#N canvas 49 309 580 426 10;
#X obj 209 289 vline~;
#X obj 97 70 t b;
#X obj 329 118 +;
#X msg 124 70 bang;
#X obj 179 59 t b;
#X msg 204 60 bang;
#X obj 98 49 inlet;
#X obj 179 39 inlet;
#X obj 208 346 outlet~;
#X obj 299 32 r \$1-adsr-attack-amp;
#X obj 313 54 r \$1-adsr-attack-time;
#X obj 325 73 r \$1-adsr-decay-amp;
#X obj 340 92 r \$1-adsr-decay-time;
#X obj 360 111 r \$1-adsr-sustain-amp;
#X obj 374 130 r \$1-adsr-sustain-time;
#X obj 390 150 r \$1-adsr-release-amp;
#X obj 405 170 r \$1-adsr-release-time;
#X msg 113 233 \$2 \$3 \, \$4 \$5 \$6 \, \$7 \$8 \$9;
#X msg 343 229 \$2 \$3;
#X obj 80 206 pack f 1 1000 0.1 1000 1000 0.7 1000 2000;
#X obj 342 204 pack f 0 1000;
#X connect 0 0 8 0;
#X connect 1 0 19 0;
#X connect 2 0 19 8;
#X connect 3 0 1 0;
#X connect 4 0 20 0;
#X connect 5 0 4 0;
#X connect 6 0 1 0;
#X connect 7 0 4 0;
#X connect 9 0 19 1;
#X connect 10 0 2 0;
#X connect 10 0 19 2;
#X connect 10 0 19 5;
#X connect 11 0 19 3;
#X connect 12 0 2 1;
#X connect 12 0 19 4;
#X connect 13 0 19 6;
#X connect 14 0 19 7;
#X connect 15 0 20 1;
#X connect 16 0 20 2;
#X connect 17 0 0 0;
#X connect 18 0 0 0;
#X connect 19 0 17 0;
#X connect 20 0 18 0;
