#N canvas 49 309 580 426 10;
#X obj 209 289 vline~;
#X obj 97 70 t b;
#X obj 329 118 +;
#X msg 124 70 bang;
#X msg 113 233 \$1 \$2 \, \$3 \$4 \$5 \, \$6 \$7 \$8;
#X obj 97 204 pack 1 1000 0.1 1000 1000 0.7 1000 2000;
#X obj 342 204 pack 0 1000;
#X msg 343 229 \$1 \$2;
#X obj 179 59 t b;
#X msg 204 60 bang;
#X obj 98 49 inlet;
#X obj 179 39 inlet;
#X obj 208 346 outlet~;
#X obj 299 32 r \$1-adsr-attack-amp;
#X obj 313 54 r \$1-adsr-attack-time;
#X obj 325 73 r \$1-adsr-decay-amp;
#X obj 340 92 r \$1-adsr-decay-time;
#X obj 360 111 r \$1-adsr-sustain-amp;
#X obj 374 130 r \$1-adsr-sustain-time;
#X obj 390 150 r \$1-adsr-release-amp;
#X obj 405 170 r \$1-adsr-release-time;
#X connect 0 0 12 0;
#X connect 1 0 5 0;
#X connect 2 0 5 7;
#X connect 3 0 1 0;
#X connect 4 0 0 0;
#X connect 5 0 4 0;
#X connect 6 0 7 0;
#X connect 7 0 0 0;
#X connect 8 0 6 0;
#X connect 9 0 8 0;
#X connect 10 0 1 0;
#X connect 11 0 8 0;
#X connect 13 0 5 0;
#X connect 14 0 2 0;
#X connect 14 0 5 1;
#X connect 14 0 5 4;
#X connect 15 0 5 2;
#X connect 16 0 2 1;
#X connect 16 0 5 3;
#X connect 17 0 5 5;
#X connect 18 0 5 6;
#X connect 19 0 6 0;
#X connect 20 0 6 1;
