#N canvas 62 218 361 231 10;
#X obj 18 27 inlet;
#X obj 69 27 inlet;
#X obj 24 202 outlet;
#X text 21 9 bang;
#X text 74 9 num;
#X obj 22 163 mod \$1;
#X obj 22 130 + 1;
#X obj 90 57 route float;
#X obj 22 98 -1;
#X msg 119 112 -1;
#X connect 0 0 8 0;
#X connect 1 0 7 0;
#X connect 5 0 2 0;
#X connect 5 0 8 1;
#X connect 6 0 5 0;
#X connect 7 0 5 1;
#X connect 7 1 9 0;
#X connect 8 0 6 0;
#X connect 9 0 8 1;
