#N canvas 287 22 867 746 10;
#X obj 8 179 +~;
#X obj 609 65 chiptune_drums;
#X obj 15 47 chiptune_synth 2 2 2;
#X obj 297 60 chiptune_synth 2 2 2;
#X obj 583 106 *~ 1;
#X obj 9 358 clip~ -0.9 0.9;
#X obj 264 109 *~ 1;
#X obj 18 100 *~ 1;
#X obj 633 87 r \$1-drums-vol;
#X obj 303 86 r \$1-bass-vol;
#X obj 52 75 r \$1-synth-vol;
#X obj -34 -131 r \$1-synth-note;
#X obj -36 -111 sig~;
#X obj -5 -112 r \$1-synth-vibrato-speed;
#X obj -5 -93 sig~;
#X obj 27 -92 r \$1-synth-vibrato-depth;
#X obj 44 -73 r \$1-synth-vibrato-waveform;
#X obj 69 -54 r \$1-synth-waveform;
#X obj 87 -34 r \$1-synth-tremolo-speed;
#X obj 86 -13 sig~;
#X obj 118 -14 r \$1-synth-tremolo-depth;
#X obj 135 7 r \$1-synth-tremolo-waveform;
#X obj 265 -94 sig~;
#X obj 296 -76 sig~;
#X obj 387 4 sig~;
#X obj 267 -115 r \$1-bass-note;
#X obj 295 -95 r \$1-bass-vibrato-speed;
#X obj 328 -75 r \$1-bass-vibrato-depth;
#X obj 345 -56 r \$1-bass-vibrato-waveform;
#X obj 370 -37 r \$1-bass-waveform;
#X obj 388 -17 r \$1-bass-tremolo-speed;
#X obj 419 3 r \$1-bass-tremolo-depth;
#X obj 436 24 r \$1-bass-tremolo-waveform;
#X obj 571 -82 r \$1-drums-note;
#X obj 598 -56 r \$1-drums-kick;
#X obj 628 -34 r \$1-drums-snare;
#X obj 657 -8 r \$1-drums-hhat;
#X obj 6 207 *~ 1;
#X obj 270 -202 table synthnotes 16;
#X obj 270 -182 table bassnotes 16;
#X obj 270 -162 table drumnotes 16;
#X obj 402 -201 table synthkey;
#X obj 491 -185 loadbang;
#X obj 400 -182 table basskey;
#X msg 556 -202 \; synthkey 0 3 5 8 11 13 16 21 23;
#X msg 553 -167 \; basskey 0 3 5 8 11 13 16 21 23;
#X obj 1 380 dac~;
#X obj 100 -154 s \$0-beat;
#X obj 99 -204 metro 200;
#X msg 91 -227 bang;
#X msg 215 -227 reset;
#X obj 131 -226 r \$0-tempo-ms;
#X msg 54 -226 stop;
#X obj 99 -181 bangloop 16;
#N canvas 421 254 450 300 synthbeats 0;
#X obj 84 150 + 70;
#X obj 83 182 outlet;
#X obj 83 114 tabread synthkey;
#X obj 79 46 r \$0-beat;
#X obj 85 82 tabread synthnotes;
#X connect 0 0 1 0;
#X connect 2 0 0 0;
#X connect 3 0 4 0;
#X connect 4 0 2 0;
#X restore -47 -155 pd synthbeats;
#N canvas 53 271 450 300 bassbeats 0;
#X obj 39 111 + 34;
#X obj 38 139 outlet;
#X obj 42 83 tabread basskey;
#X obj 43 60 tabread bassnotes;
#X obj 41 20 r \$0-beat;
#X connect 0 0 1 0;
#X connect 2 0 0 0;
#X connect 3 0 2 0;
#X connect 4 0 3 0;
#X restore 251 -134 pd bassbeats;
#N canvas 100 258 450 300 drumrandom 0;
#X obj -255 155 outlet;
#X obj -210 44 r \$0-beat;
#X obj -215 73 tabread drumnotes;
#X connect 1 0 2 0;
#X connect 2 0 0 0;
#X restore 558 -100 pd drumrandom;
#X obj 70 195 r \$0-start;
#X obj 141 196 r \$0-stop;
#X msg 141 218 0;
#X msg 71 214 1;
#X obj 9 303 effectbitcrush \$1 1 3;
#X obj 93 -248 r \$1-start;
#X obj -10 -249 r \$1-stop;
#X obj 214 -249 r \$1-reset;
#X connect 0 0 37 0;
#X connect 1 0 4 0;
#X connect 2 0 7 0;
#X connect 3 0 6 0;
#X connect 4 0 0 1;
#X connect 5 0 46 0;
#X connect 5 0 46 1;
#X connect 6 0 0 1;
#X connect 7 0 0 0;
#X connect 8 0 4 1;
#X connect 9 0 6 1;
#X connect 10 0 7 1;
#X connect 11 0 12 0;
#X connect 12 0 2 0;
#X connect 13 0 14 0;
#X connect 14 0 2 1;
#X connect 15 0 2 2;
#X connect 16 0 2 3;
#X connect 17 0 2 4;
#X connect 18 0 19 0;
#X connect 19 0 2 5;
#X connect 20 0 2 6;
#X connect 21 0 2 7;
#X connect 22 0 3 0;
#X connect 23 0 3 1;
#X connect 24 0 3 5;
#X connect 25 0 22 0;
#X connect 26 0 23 0;
#X connect 27 0 3 2;
#X connect 28 0 3 3;
#X connect 29 0 3 4;
#X connect 30 0 24 0;
#X connect 31 0 3 6;
#X connect 32 0 3 7;
#X connect 33 0 1 0;
#X connect 34 0 1 1;
#X connect 35 0 1 2;
#X connect 36 0 1 3;
#X connect 37 0 61 0;
#X connect 42 0 44 0;
#X connect 42 0 45 0;
#X connect 48 0 53 0;
#X connect 49 0 48 0;
#X connect 50 0 53 1;
#X connect 51 0 48 1;
#X connect 52 0 48 0;
#X connect 53 0 47 0;
#X connect 54 0 12 0;
#X connect 55 0 22 0;
#X connect 56 0 1 0;
#X connect 57 0 60 0;
#X connect 58 0 59 0;
#X connect 59 0 37 1;
#X connect 60 0 37 1;
#X connect 61 0 5 0;
#X connect 62 0 49 0;
#X connect 63 0 52 0;
#X connect 64 0 50 0;
