#N canvas 287 22 867 746 10;
#X obj 8 179 +~;
#X obj 609 65 chiptune_drums;
#X obj 9 358 clip~ -0.9 0.9;
#X obj 633 87 r \$1-drums-vol;
#X obj 289 124 r \$1-bass-vol;
#X obj -15 124 r \$1-synth-vol;
#X obj -103 -88 sig~;
#X obj -72 -89 r \$1-synth-vibrato-speed;
#X obj -72 -70 sig~;
#X obj -40 -69 r \$1-synth-vibrato-depth;
#X obj -23 -50 r \$1-synth-vibrato-waveform;
#X obj 2 -31 r \$1-synth-waveform;
#X obj 20 -11 r \$1-synth-tremolo-speed;
#X obj 19 10 sig~;
#X obj 51 9 r \$1-synth-tremolo-depth;
#X obj 68 30 r \$1-synth-tremolo-waveform;
#X obj 265 -94 sig~;
#X obj 296 -76 sig~;
#X obj 362 1 sig~;
#X obj 267 -115 r \$1-bass-note;
#X obj 295 -95 r \$1-bass-vibrato-speed;
#X obj 328 -75 r \$1-bass-vibrato-depth;
#X obj 339 -57 r \$1-bass-vibrato-waveform;
#X obj 353 -39 r \$1-bass-waveform;
#X obj 363 -20 r \$1-bass-tremolo-speed;
#X obj 394 0 r \$1-bass-tremolo-depth;
#X obj 401 19 r \$1-bass-tremolo-waveform;
#X obj 571 -82 r \$1-drums-note;
#X obj 598 -56 r \$1-drums-kick;
#X obj 628 -34 r \$1-drums-snare;
#X obj 657 -8 r \$1-drums-hhat;
#X obj 6 207 *~ 1;
#X obj 1 380 dac~;
#X obj 70 195 r \$0-start;
#X obj 141 196 r \$0-stop;
#X msg 141 218 0;
#X msg 71 214 1;
#X obj 51 315 effectbitcrush \$1 1 3;
#X obj -101 -108 r \$1-synth-note;
#X obj 250 147 *~ 0;
#X obj 583 106 *~ 0;
#X obj -49 149 *~ 1;
#X obj 201 -119 loadbang;
#X obj 217 -97 0;
#X obj 95 48 r \$1-synth-vibrato-enable;
#X obj 411 38 r \$1-bass-vibrato-enable;
#X obj 425 57 r \$1-bass-tremolo-enable;
#X obj 283 98 chiptune_synth 2 2 2;
#X obj 108 67 r \$1-synth-tremolo-enable;
#X obj -52 98 chiptune_synth 2 2 2;
#X connect 0 0 31 0;
#X connect 1 0 40 0;
#X connect 2 0 32 0;
#X connect 2 0 32 1;
#X connect 3 0 40 1;
#X connect 4 0 39 1;
#X connect 5 0 41 1;
#X connect 6 0 49 0;
#X connect 7 0 8 0;
#X connect 8 0 49 1;
#X connect 9 0 49 2;
#X connect 10 0 49 3;
#X connect 11 0 49 4;
#X connect 12 0 13 0;
#X connect 13 0 49 5;
#X connect 14 0 49 6;
#X connect 15 0 49 7;
#X connect 16 0 47 0;
#X connect 17 0 47 1;
#X connect 18 0 47 5;
#X connect 19 0 16 0;
#X connect 20 0 17 0;
#X connect 21 0 47 2;
#X connect 22 0 47 3;
#X connect 23 0 47 4;
#X connect 24 0 18 0;
#X connect 25 0 47 6;
#X connect 26 0 47 7;
#X connect 27 0 1 0;
#X connect 28 0 1 1;
#X connect 29 0 1 2;
#X connect 30 0 1 3;
#X connect 31 0 37 0;
#X connect 31 0 2 0;
#X connect 33 0 36 0;
#X connect 34 0 35 0;
#X connect 35 0 31 1;
#X connect 36 0 31 1;
#X connect 38 0 6 0;
#X connect 39 0 0 1;
#X connect 40 0 0 1;
#X connect 41 0 0 0;
#X connect 42 0 43 0;
#X connect 43 0 13 0;
#X connect 43 0 8 0;
#X connect 43 0 6 0;
#X connect 43 0 17 0;
#X connect 43 0 16 0;
#X connect 43 0 18 0;
#X connect 43 0 47 6;
#X connect 43 0 49 6;
#X connect 44 0 49 8;
#X connect 45 0 47 8;
#X connect 46 0 47 9;
#X connect 47 0 39 0;
#X connect 48 0 49 9;
#X connect 49 0 41 0;
