#N canvas 346 234 653 431 10;
#X obj 22 368 outlet~;
#X obj 22 167 mtof~;
#X msg 115 137 2;
#X msg 115 159 3;
#X msg 115 93 0;
#X msg 115 115 1;
#X msg 161 247 2;
#X msg 161 269 3;
#X msg 161 203 0;
#X msg 161 225 1;
#X msg 124 345 2;
#X msg 124 367 3;
#X msg 124 301 0;
#X msg 124 323 1;
#X obj 157 8 inlet;
#X obj 197 8 inlet;
#X obj 236 8 inlet;
#X obj 277 8 inlet~;
#X obj 323 8 inlet;
#X obj 362 8 inlet;
#X obj 401 8 inlet;
#X obj 442 9 inlet;
#X obj 22 110 vibrato \$2;
#X obj 22 308 tremolo \$3;
#X obj 22 233 waveformselector \$1;
#X obj 22 79 line~;
#X obj 21 8 inlet;
#X msg 22 57 \$1 \$2;
#X obj 22 34 pack f 0;
#X obj 64 8 inlet;
#X obj 110 7 inlet~;
#X connect 1 0 24 0;
#X connect 2 0 22 3;
#X connect 3 0 22 3;
#X connect 4 0 22 3;
#X connect 5 0 22 3;
#X connect 6 0 24 2;
#X connect 7 0 24 2;
#X connect 8 0 24 2;
#X connect 9 0 24 2;
#X connect 10 0 23 3;
#X connect 11 0 23 3;
#X connect 12 0 23 3;
#X connect 13 0 23 3;
#X connect 14 0 22 2;
#X connect 15 0 22 3;
#X connect 16 0 24 2;
#X connect 17 0 23 1;
#X connect 18 0 23 2;
#X connect 19 0 23 3;
#X connect 20 0 22 4;
#X connect 21 0 23 4;
#X connect 22 0 1 0;
#X connect 23 0 0 0;
#X connect 24 0 23 0;
#X connect 25 0 22 0;
#X connect 26 0 28 0;
#X connect 27 0 25 0;
#X connect 28 0 27 0;
#X connect 29 0 28 1;
#X connect 30 0 22 1;
