#N canvas 79 90 1000 675 10;
#X obj -82 419 dac~;
#X obj -71 331 effectbitcrush 0 1 3;
#X obj 88 311 hsl 128 15 0 127 0 0 empty empty empty -2 -8 0 10 -262144
-1 -1 7700 1;
#X obj 86 330 / 127;
#X obj 84 351 s 0-bitcrush-dist;
#X obj 86 381 hsl 128 15 0 127 0 0 empty empty empty -2 -8 0 10 -262144
-1 -1 7400 1;
#X obj 86 403 / 20;
#X obj 85 426 s 0-bitcrush-depth;
#X obj -71 273 +~;
#X obj -16 -178 bng 15 250 50 0 empty empty empty 17 7 0 10 -262144
-1 -1;
#X obj 42 -174 bng 15 250 50 0 empty empty empty 17 7 0 10 -262144
-1 -1;
#X obj 108 -175 bng 15 250 50 0 empty empty empty 17 7 0 10 -262144
-1 -1;
#X obj -24 -157 s \$0-start;
#X obj 41 -156 s \$0-stop;
#X obj 101 -156 s \$0-reset;
#X msg 7 274 0;
#X obj 237 90 chiptune_drums;
#N canvas 100 258 450 300 drumrandom 0;
#X obj -255 155 outlet;
#X obj -210 44 r \$0-beat;
#X obj -215 73 tabread drumnotes;
#X connect 1 0 2 0;
#X connect 2 0 0 0;
#X restore 250 -183 pd drumrandom;
#X obj -105 42 / 10;
#X obj -73 61 / 80;
#X obj -95 81 chiptune_synth 2 2 2;
#X obj -101 -96 vsl 15 128 0 127 0 0 empty empty empty 0 -9 0 10 -262144
-1 -1 11500 1;
#X obj -76 -96 vsl 15 128 0 127 0 0 empty empty empty 0 -9 0 10 -262144
-1 -1 11400 1;
#X obj -8 -96 vsl 15 128 0 127 0 0 empty empty empty 0 -9 0 10 -262144
-1 -1 0 1;
#X obj 21 -96 vsl 15 128 0 127 0 0 empty empty empty 0 -9 0 10 -262144
-1 -1 0 1;
#X obj -51 -36 vradio 15 1 0 4 empty empty empty 0 -8 0 10 -262144
-1 -1 2;
#X obj -29 -36 vradio 15 1 0 4 empty empty empty 0 -8 0 10 -262144
-1 -1 2;
#X obj 48 -36 vradio 15 1 0 4 empty empty empty 0 -8 0 10 -262144 -1
-1 2;
#X obj -17 61 sig~;
#X obj 13 61 / 127;
#X obj -16 40 / 5;
#X obj -107 62 sig~;
#X obj 73 45 / 10;
#X obj 105 64 / 80;
#X obj 83 84 chiptune_synth 2 2 2;
#X obj 77 -93 vsl 15 128 0 127 0 0 empty empty empty 0 -9 0 10 -262144
-1 -1 7200 1;
#X obj 102 -93 vsl 15 128 0 127 0 0 empty empty empty 0 -9 0 10 -262144
-1 -1 0 1;
#X obj 170 -93 vsl 15 128 0 127 0 0 empty empty empty 0 -9 0 10 -262144
-1 -1 0 1;
#X obj 199 -93 vsl 15 128 0 127 0 0 empty empty empty 0 -9 0 10 -262144
-1 -1 0 1;
#X obj 127 -33 vradio 15 1 0 4 empty empty empty 0 -8 0 10 -262144
-1 -1 2;
#X obj 149 -33 vradio 15 1 0 4 empty empty empty 0 -8 0 10 -262144
-1 -1 2;
#X obj 226 -33 vradio 15 1 0 4 empty empty empty 0 -8 0 10 -262144
-1 -1 3;
#X obj 161 64 sig~;
#X obj 191 64 / 127;
#X obj 162 43 / 5;
#X obj 71 65 sig~;
#X obj 259 -158 vradio 15 1 0 16 empty empty empty 0 -8 0 10 -262144
-1 -1 4;
#X obj 317 -161 vradio 15 1 0 16 empty empty empty 0 -8 0 10 -262144
-1 -1 1;
#X obj 288 -161 vradio 15 1 0 16 empty empty empty 0 -8 0 10 -262144
-1 -1 5;
#X obj -72 301 *~ 0.1;
#X obj -72 386 +~;
#X obj 514 81 vradio 15 1 0 8 empty empty empty 0 -8 0 10 -262144 -1
-1 5;
#X obj 534 81 vradio 15 1 0 8 empty empty empty 0 -8 0 10 -262144 -1
-1 6;
#X obj 554 81 vradio 15 1 0 8 empty empty empty 0 -8 0 10 -262144 -1
-1 6;
#X obj 574 81 vradio 15 1 0 8 empty empty empty 0 -8 0 10 -262144 -1
-1 4;
#X obj 594 81 vradio 15 1 0 8 empty empty empty 0 -8 0 10 -262144 -1
-1 3;
#X obj 613 81 vradio 15 1 0 8 empty empty empty 0 -8 0 10 -262144 -1
-1 4;
#X obj 632 81 vradio 15 1 0 8 empty empty empty 0 -8 0 10 -262144 -1
-1 3;
#X obj 652 81 vradio 15 1 0 8 empty empty empty 0 -8 0 10 -262144 -1
-1 4;
#X obj 356 81 vradio 15 1 0 8 empty empty empty 0 -8 0 10 -262144 -1
-1 4;
#X obj 376 81 vradio 15 1 0 8 empty empty empty 0 -8 0 10 -262144 -1
-1 6;
#X obj 396 81 vradio 15 1 0 8 empty empty empty 0 -8 0 10 -262144 -1
-1 4;
#X obj 416 81 vradio 15 1 0 8 empty empty empty 0 -8 0 10 -262144 -1
-1 1;
#X obj 436 81 vradio 15 1 0 8 empty empty empty 0 -8 0 10 -262144 -1
-1 6;
#X obj 455 81 vradio 15 1 0 8 empty empty empty 0 -8 0 10 -262144 -1
-1 2;
#X obj 474 81 vradio 15 1 0 8 empty empty empty 0 -8 0 10 -262144 -1
-1 3;
#X obj 494 81 vradio 15 1 0 8 empty empty empty 0 -8 0 10 -262144 -1
-1 2;
#X obj 347 -199 table synthnotes 16;
#X obj 347 -179 table bassnotes 16;
#X obj 347 -159 table drumnotes 16;
#X obj 653 205 pack f 15;
#X obj 645 224 pack f 14;
#X obj 636 243 pack f 13;
#X obj 627 262 pack f 12;
#X obj 572 204 pack f 11;
#X obj 564 223 pack f 10;
#X obj 555 242 pack f 9;
#X obj 546 261 pack f 8;
#X obj 391 263 pack f 0;
#X obj 400 244 pack f 1;
#X obj 409 225 pack f 2;
#X obj 417 205 pack f 3;
#X obj 469 262 pack f 4;
#X obj 478 242 pack f 5;
#X obj 487 224 pack f 6;
#X obj 495 205 pack f 7;
#X obj 479 -198 table synthkey;
#X obj 568 -182 loadbang;
#X obj 477 -179 table basskey;
#N canvas 0 22 450 300 beats 1;
#X obj 78 59 metro 200;
#X msg 70 36 bang;
#X floatatom 79 112 5 0 0 0 - - -;
#X msg 194 36 reset;
#X obj 70 15 r \$0-start;
#X obj 110 37 r \$0-tempo-ms;
#X obj 193 14 r \$0-reset;
#X msg 33 37 stop;
#X obj 8 15 r \$0-stop;
#X obj 78 82 bangloop 16;
#X obj 46 184 outlet;
#X connect 0 0 9 0;
#X connect 1 0 0 0;
#X connect 3 0 9 1;
#X connect 4 0 1 0;
#X connect 5 0 0 1;
#X connect 6 0 3 0;
#X connect 7 0 0 0;
#X connect 8 0 7 0;
#X connect 9 0 2 0;
#X connect 9 0 10 0;
#X restore 190 -176 pd beats;
#X obj -120 -196 hsl 128 15 0 127 0 0 empty empty empty -2 -8 0 10
-262144 -1 -1 0 1;
#X obj -123 -159 s \$0-tempo-ms;
#X obj -125 -178 * 2;
#X obj 188 -149 s \$0-beat;
#N canvas 421 254 450 300 synthbeats 1;
#X obj 84 150 + 70;
#X obj 83 182 outlet;
#X obj 83 114 tabread synthkey;
#X obj 79 46 r \$0-beat;
#X obj 85 82 tabread synthnotes;
#X connect 0 0 1 0;
#X connect 2 0 0 0;
#X connect 3 0 4 0;
#X connect 4 0 2 0;
#X restore -113 -120 pd synthbeats;
#N canvas 53 271 450 300 bassbeats 1;
#X obj 39 111 + 34;
#X obj 38 139 outlet;
#X obj 42 83 tabread basskey;
#X obj 43 60 tabread bassnotes;
#X obj 41 20 r \$0-beat;
#X connect 0 0 1 0;
#X connect 2 0 0 0;
#X connect 3 0 2 0;
#X connect 4 0 3 0;
#X restore 73 -126 pd bassbeats;
#X msg 633 -199 \; synthkey 0 3 5 8 11 13 16 21 23;
#X msg 630 -164 \; basskey 0 3 5 8 11 13 16 21 23;
#X obj 510 -128 vradio 15 1 0 8 empty empty empty 0 -8 0 10 -262144
-1 -1 5;
#X obj 530 -128 vradio 15 1 0 8 empty empty empty 0 -8 0 10 -262144
-1 -1 6;
#X obj 550 -128 vradio 15 1 0 8 empty empty empty 0 -8 0 10 -262144
-1 -1 6;
#X obj 570 -128 vradio 15 1 0 8 empty empty empty 0 -8 0 10 -262144
-1 -1 7;
#X obj 590 -128 vradio 15 1 0 8 empty empty empty 0 -8 0 10 -262144
-1 -1 6;
#X obj 609 -128 vradio 15 1 0 8 empty empty empty 0 -8 0 10 -262144
-1 -1 4;
#X obj 628 -128 vradio 15 1 0 8 empty empty empty 0 -8 0 10 -262144
-1 -1 2;
#X obj 648 -128 vradio 15 1 0 8 empty empty empty 0 -8 0 10 -262144
-1 -1 2;
#X obj 352 -128 vradio 15 1 0 8 empty empty empty 0 -8 0 10 -262144
-1 -1 2;
#X obj 372 -128 vradio 15 1 0 8 empty empty empty 0 -8 0 10 -262144
-1 -1 4;
#X obj 392 -128 vradio 15 1 0 8 empty empty empty 0 -8 0 10 -262144
-1 -1 3;
#X obj 412 -128 vradio 15 1 0 8 empty empty empty 0 -8 0 10 -262144
-1 -1 1;
#X obj 432 -128 vradio 15 1 0 8 empty empty empty 0 -8 0 10 -262144
-1 -1 4;
#X obj 451 -128 vradio 15 1 0 8 empty empty empty 0 -8 0 10 -262144
-1 -1 1;
#X obj 470 -128 vradio 15 1 0 8 empty empty empty 0 -8 0 10 -262144
-1 -1 3;
#X obj 490 -128 vradio 15 1 0 8 empty empty empty 0 -8 0 10 -262144
-1 -1 4;
#X obj 649 -4 pack f 15;
#X msg 667 -40 \; synthnotes \$2 \$1;
#X obj 641 15 pack f 14;
#X obj 632 34 pack f 13;
#X obj 623 53 pack f 12;
#X obj 568 -5 pack f 11;
#X obj 560 14 pack f 10;
#X obj 551 33 pack f 9;
#X obj 542 52 pack f 8;
#X obj 387 54 pack f 0;
#X obj 396 35 pack f 1;
#X obj 405 16 pack f 2;
#X obj 413 -4 pack f 3;
#X obj 465 53 pack f 4;
#X obj 474 33 pack f 5;
#X obj 483 15 pack f 6;
#X obj 491 -4 pack f 7;
#X msg 671 169 \; bassnotes \$2 \$1;
#X obj 516 287 vradio 15 1 0 3 empty empty empty 0 -8 0 10 -262144
-1 -1 0;
#X obj 536 287 vradio 15 1 0 3 empty empty empty 0 -8 0 10 -262144
-1 -1 1;
#X obj 556 287 vradio 15 1 0 3 empty empty empty 0 -8 0 10 -262144
-1 -1 1;
#X obj 576 287 vradio 15 1 0 3 empty empty empty 0 -8 0 10 -262144
-1 -1 1;
#X obj 596 287 vradio 15 1 0 3 empty empty empty 0 -8 0 10 -262144
-1 -1 1;
#X obj 614 286 vradio 15 1 0 3 empty empty empty 0 -8 0 10 -262144
-1 -1 0;
#X obj 633 287 vradio 15 1 0 3 empty empty empty 0 -8 0 10 -262144
-1 -1 2;
#X obj 654 287 vradio 15 1 0 3 empty empty empty 0 -8 0 10 -262144
-1 -1 0;
#X obj 357 286 vradio 15 1 0 3 empty empty empty 0 -8 0 10 -262144
-1 -1 0;
#X obj 378 285 vradio 15 1 0 3 empty empty empty 0 -8 0 10 -262144
-1 -1 0;
#X obj 398 287 vradio 15 1 0 3 empty empty empty 0 -8 0 10 -262144
-1 -1 2;
#X obj 418 287 vradio 15 1 0 3 empty empty empty 0 -8 0 10 -262144
-1 -1 0;
#X obj 438 287 vradio 15 1 0 3 empty empty empty 0 -8 0 10 -262144
-1 -1 0;
#X obj 457 287 vradio 15 1 0 3 empty empty empty 0 -8 0 10 -262144
-1 -1 0;
#X obj 476 287 vradio 15 1 0 3 empty empty empty 0 -8 0 10 -262144
-1 -1 2;
#X obj 496 287 vradio 15 1 0 3 empty empty empty 0 -8 0 10 -262144
-1 -1 0;
#X obj 657 344 pack f 15;
#X obj 649 363 pack f 14;
#X obj 640 382 pack f 13;
#X obj 631 401 pack f 12;
#X obj 576 343 pack f 11;
#X obj 568 362 pack f 10;
#X obj 559 381 pack f 9;
#X obj 550 400 pack f 8;
#X obj 395 402 pack f 0;
#X obj 404 383 pack f 1;
#X obj 413 364 pack f 2;
#X obj 421 344 pack f 3;
#X obj 473 401 pack f 4;
#X obj 482 381 pack f 5;
#X obj 491 363 pack f 6;
#X obj 499 344 pack f 7;
#X msg 675 308 \; drumnotes \$2 \$1;
#X msg -30 272 0.2;
#X obj 211 131 *~ 1;
#X obj -69 364 clip~ -0.9 0.9;
#X obj 246 132 / 127;
#X obj 50 133 *~ 1;
#X obj 82 133 / 127;
#X obj 84 110 hsl 128 15 0 127 0 0 empty empty empty -2 -8 0 10 -262144
-1 -1 5300 1;
#X obj 222 110 hsl 128 15 0 127 0 0 empty empty empty -2 -8 0 10 -262144
-1 -1 9300 1;
#X obj -92 134 *~ 1;
#X obj -60 134 / 127;
#X obj -58 111 hsl 128 15 0 127 0 0 empty empty empty -2 -8 0 10 -262144
-1 -1 6600 1;
#X connect 1 0 167 0;
#X connect 2 0 3 0;
#X connect 3 0 4 0;
#X connect 5 0 6 0;
#X connect 6 0 7 0;
#X connect 8 0 49 0;
#X connect 9 0 12 0;
#X connect 10 0 13 0;
#X connect 11 0 14 0;
#X connect 15 0 49 1;
#X connect 16 0 166 0;
#X connect 17 0 16 0;
#X connect 18 0 31 0;
#X connect 19 0 20 2;
#X connect 20 0 173 0;
#X connect 21 0 18 0;
#X connect 22 0 19 0;
#X connect 23 0 30 0;
#X connect 24 0 29 0;
#X connect 25 0 20 3;
#X connect 26 0 20 4;
#X connect 27 0 20 7;
#X connect 28 0 20 5;
#X connect 29 0 20 6;
#X connect 30 0 28 0;
#X connect 31 0 20 1;
#X connect 32 0 45 0;
#X connect 33 0 34 2;
#X connect 34 0 169 0;
#X connect 35 0 32 0;
#X connect 36 0 33 0;
#X connect 37 0 44 0;
#X connect 38 0 43 0;
#X connect 39 0 34 3;
#X connect 40 0 34 4;
#X connect 41 0 34 7;
#X connect 42 0 34 5;
#X connect 43 0 34 6;
#X connect 44 0 42 0;
#X connect 45 0 34 1;
#X connect 46 0 16 1;
#X connect 47 0 16 3;
#X connect 48 0 16 2;
#X connect 49 0 1 0;
#X connect 50 0 0 1;
#X connect 50 0 0 0;
#X connect 51 0 77 0;
#X connect 52 0 76 0;
#X connect 53 0 75 0;
#X connect 54 0 74 0;
#X connect 55 0 73 0;
#X connect 56 0 72 0;
#X connect 57 0 71 0;
#X connect 58 0 70 0;
#X connect 59 0 78 0;
#X connect 60 0 79 0;
#X connect 61 0 80 0;
#X connect 62 0 81 0;
#X connect 63 0 82 0;
#X connect 64 0 83 0;
#X connect 65 0 84 0;
#X connect 66 0 85 0;
#X connect 70 0 131 0;
#X connect 71 0 131 0;
#X connect 72 0 131 0;
#X connect 73 0 131 0;
#X connect 74 0 131 0;
#X connect 75 0 131 0;
#X connect 76 0 131 0;
#X connect 77 0 131 0;
#X connect 78 0 131 0;
#X connect 79 0 131 0;
#X connect 80 0 131 0;
#X connect 81 0 131 0;
#X connect 82 0 131 0;
#X connect 83 0 131 0;
#X connect 84 0 131 0;
#X connect 85 0 131 0;
#X connect 87 0 96 0;
#X connect 87 0 97 0;
#X connect 89 0 93 0;
#X connect 90 0 92 0;
#X connect 92 0 91 0;
#X connect 94 0 20 0;
#X connect 95 0 34 0;
#X connect 98 0 122 0;
#X connect 99 0 121 0;
#X connect 100 0 120 0;
#X connect 101 0 119 0;
#X connect 102 0 118 0;
#X connect 103 0 117 0;
#X connect 104 0 116 0;
#X connect 105 0 114 0;
#X connect 106 0 123 0;
#X connect 107 0 124 0;
#X connect 108 0 125 0;
#X connect 109 0 126 0;
#X connect 110 0 127 0;
#X connect 111 0 128 0;
#X connect 112 0 129 0;
#X connect 113 0 130 0;
#X connect 114 0 115 0;
#X connect 116 0 115 0;
#X connect 117 0 115 0;
#X connect 118 0 115 0;
#X connect 119 0 115 0;
#X connect 120 0 115 0;
#X connect 121 0 115 0;
#X connect 122 0 115 0;
#X connect 123 0 115 0;
#X connect 124 0 115 0;
#X connect 125 0 115 0;
#X connect 126 0 115 0;
#X connect 127 0 115 0;
#X connect 128 0 115 0;
#X connect 129 0 115 0;
#X connect 130 0 115 0;
#X connect 132 0 155 0;
#X connect 133 0 154 0;
#X connect 134 0 153 0;
#X connect 135 0 152 0;
#X connect 136 0 151 0;
#X connect 137 0 150 0;
#X connect 138 0 149 0;
#X connect 139 0 148 0;
#X connect 140 0 156 0;
#X connect 141 0 157 0;
#X connect 142 0 158 0;
#X connect 143 0 159 0;
#X connect 144 0 160 0;
#X connect 145 0 161 0;
#X connect 146 0 162 0;
#X connect 147 0 163 0;
#X connect 148 0 164 0;
#X connect 149 0 164 0;
#X connect 150 0 164 0;
#X connect 151 0 164 0;
#X connect 152 0 164 0;
#X connect 153 0 164 0;
#X connect 154 0 164 0;
#X connect 155 0 164 0;
#X connect 156 0 164 0;
#X connect 157 0 164 0;
#X connect 158 0 164 0;
#X connect 159 0 164 0;
#X connect 160 0 164 0;
#X connect 161 0 164 0;
#X connect 162 0 164 0;
#X connect 163 0 164 0;
#X connect 165 0 49 1;
#X connect 166 0 8 1;
#X connect 167 0 50 0;
#X connect 168 0 166 1;
#X connect 169 0 8 1;
#X connect 170 0 169 1;
#X connect 171 0 170 0;
#X connect 172 0 168 0;
#X connect 173 0 8 0;
#X connect 174 0 173 1;
#X connect 175 0 174 0;
