#N canvas 29 80 880 684 10;
#X declare -lib mrpeach;
#X obj -87 135 dac~;
#X obj -73 -31 effectbitcrush 0 1 3;
#X obj 77 -39 hsl 128 15 0 127 0 1 empty empty empty -2 -8 0 10 -262144
-1 -1 0 1;
#X obj 210 -41 / 127;
#X obj 77 -20 hsl 128 15 0 127 0 1 empty empty empty -2 -8 0 10 -262144
-1 -1 12700 1;
#X obj 210 -21 / 20;
#X obj -11 -470 bng 15 250 50 0 empty empty empty 17 7 0 10 -262144
-1 -1;
#X obj 47 -466 bng 15 250 50 0 empty empty empty 17 7 0 10 -262144
-1 -1;
#X obj 113 -467 bng 15 250 50 0 empty empty empty 17 7 0 10 -262144
-1 -1;
#X obj -19 -449 s \$0-start;
#X obj 46 -448 s \$0-stop;
#X obj 106 -448 s \$0-reset;
#X msg 2 -84 0;
#X obj 380 -189 chiptune_drums;
#N canvas 205 102 450 300 drumrandom 0;
#X obj -73 211 outlet;
#X obj -207 46 r \$0-beat;
#X obj -210 70 tabread kicknotes;
#X msg -210 112 0;
#X obj -93 43 r \$0-beat;
#X obj -96 67 tabread snarenotes;
#X msg -97 108 1;
#X obj 32 64 tabread highhatnotes;
#X msg 32 105 2;
#X obj -94 88 moses 0.1;
#X obj -209 92 moses 0.1;
#X obj 34 85 moses 0.1;
#X obj 35 40 r \$0-halfbeat;
#X connect 1 0 2 0;
#X connect 2 0 10 0;
#X connect 3 0 0 0;
#X connect 4 0 5 0;
#X connect 5 0 9 0;
#X connect 6 0 0 0;
#X connect 7 0 11 0;
#X connect 8 0 0 0;
#X connect 9 1 6 0;
#X connect 10 1 3 0;
#X connect 11 1 8 0;
#X connect 12 0 7 0;
#X restore 380 -454 pd drumrandom;
#X obj -87 -242 / 10;
#X obj -53 -223 / 80;
#X obj -112 -183 chiptune_synth 2 2 2;
#X obj -87 -380 vsl 15 128 0 127 0 0 empty empty empty 0 -9 0 10 -262144
-1 -1 0 1;
#X obj -67 -380 vsl 15 128 0 127 0 0 empty empty empty 0 -9 0 10 -262144
-1 -1 0 1;
#X obj -12 -380 vsl 15 128 0 127 0 0 empty empty empty 0 -9 0 10 -262144
-1 -1 0 1;
#X obj 7 -380 vsl 15 128 0 127 0 0 empty empty empty 0 -9 0 10 -262144
-1 -1 0 1;
#X obj -49 -320 vradio 15 1 0 4 empty empty empty 0 -8 0 10 -262144
-1 -1 0;
#X obj -30 -320 vradio 15 1 0 4 empty empty empty 0 -8 0 10 -262144
-1 -1 0;
#X obj 24 -320 vradio 15 1 0 4 empty empty empty 0 -8 0 10 -262144
-1 -1 0;
#X obj -3 -223 sig~;
#X obj 27 -223 / 127;
#X obj -9 -244 / 5;
#X obj -87 -222 sig~;
#X obj 170 -243 / 10;
#X obj 200 -223 / 80;
#X obj 170 -381 vsl 15 128 0 127 0 0 empty empty empty 0 -9 0 10 -262144
-1 -1 0 1;
#X obj 189 -381 vsl 15 128 0 127 0 0 empty empty empty 0 -9 0 10 -262144
-1 -1 0 1;
#X obj 243 -381 vsl 15 128 0 127 0 0 empty empty empty 0 -9 0 10 -262144
-1 -1 0 1;
#X obj 261 -381 vsl 15 128 0 127 0 0 empty empty empty 0 -9 0 10 -262144
-1 -1 0 1;
#X obj 207 -321 vradio 15 1 0 4 empty empty empty 0 -8 0 10 -262144
-1 -1 0;
#X obj 225 -321 vradio 15 1 0 4 empty empty empty 0 -8 0 10 -262144
-1 -1 0;
#X obj 280 -321 vradio 15 1 0 4 empty empty empty 0 -8 0 10 -262144
-1 -1 0;
#X obj 254 -224 sig~;
#X obj 283 -224 / 127;
#X obj 255 -245 / 5;
#X obj 170 -223 sig~;
#X obj 389 -434 vradio 15 1 1 16 empty empty empty 0 -8 0 10 -262144
-1 -1 4;
#X obj 423 -434 vradio 15 1 1 16 empty empty empty 0 -8 0 10 -262144
-1 -1 5;
#X obj 406 -434 vradio 15 1 1 16 empty empty empty 0 -8 0 10 -262144
-1 -1 4;
#X obj -77 -57 *~ 0.1;
#X obj 379 -474 table synthkey;
#X obj 379 -493 table basskey;
#N canvas 0 22 450 300 beats 0;
#X obj 79 92 metro 200;
#X msg 71 69 bang;
#X msg 195 69 reset;
#X obj 70 15 r \$0-start;
#X obj 111 45 r \$0-tempo-ms;
#X obj 193 14 r \$0-reset;
#X msg 34 70 stop;
#X obj 8 15 r \$0-stop;
#X obj 44 262 outlet;
#X obj 202 248 outlet;
#X obj 82 176 mod 2;
#X obj 61 219 spigot;
#X obj 56 241 / 2;
#X floatatom 91 245 5 0 0 0 - - -;
#X obj 87 197 - 1;
#X floatatom 209 218 5 0 0 0 - - -;
#X obj 123 67 / 2;
#X obj 83 125 bangloop 32;
#X connect 0 0 17 0;
#X connect 1 0 0 0;
#X connect 2 0 17 1;
#X connect 3 0 1 0;
#X connect 4 0 16 0;
#X connect 5 0 2 0;
#X connect 6 0 0 0;
#X connect 7 0 6 0;
#X connect 10 0 14 0;
#X connect 11 0 12 0;
#X connect 12 0 8 0;
#X connect 12 0 13 0;
#X connect 14 0 11 1;
#X connect 16 0 0 1;
#X connect 17 0 10 0;
#X connect 17 0 11 0;
#X connect 17 0 9 0;
#X connect 17 0 15 0;
#X restore 195 -468 pd beats;
#X obj -115 -488 hsl 128 15 0 127 0 1 empty empty empty -2 -8 0 10
-262144 -1 -1 9000 1;
#X obj -116 -451 s \$0-tempo-ms;
#X obj 193 -441 s \$0-beat;
#N canvas 421 255 450 300 synthbeats 0;
#X obj 75 16 r \$0-beat;
#X obj 80 51 tabread synthnotes;
#X obj 70 79 moses 0;
#X msg 206 186 1;
#X msg 244 188 0;
#X obj 179 257 outlet;
#X obj 88 263 outlet;
#X obj 91 222 + 72;
#X obj 114 178 + 0;
#X obj 135 157 r \$0-offset;
#X obj 115 139 tabread synthkey;
#X connect 0 0 1 0;
#X connect 1 0 2 0;
#X connect 2 0 4 0;
#X connect 2 1 3 0;
#X connect 2 1 10 0;
#X connect 3 0 5 0;
#X connect 4 0 5 0;
#X connect 7 0 6 0;
#X connect 8 0 7 0;
#X connect 9 0 8 1;
#X connect 10 0 8 0;
#X restore -112 -403 pd synthbeats;
#N canvas 53 271 450 300 bassbeats 0;
#X obj 85 26 r \$0-beat;
#X obj 93 90 moses 0;
#X msg 219 199 1;
#X msg 257 201 0;
#X obj 192 270 outlet;
#X obj 98 273 outlet;
#X obj 90 60 tabread bassnotes;
#X obj 97 231 + 36;
#X obj 124 188 + 0;
#X obj 145 167 r \$0-offset;
#X obj 125 149 tabread synthkey;
#X connect 0 0 6 0;
#X connect 1 0 3 0;
#X connect 1 1 2 0;
#X connect 1 1 10 0;
#X connect 2 0 4 0;
#X connect 3 0 4 0;
#X connect 6 0 1 0;
#X connect 7 0 5 0;
#X connect 8 0 7 0;
#X connect 9 0 8 1;
#X connect 10 0 8 0;
#X restore 146 -404 pd bassbeats;
#X msg -35 -86 0.2;
#X obj 378 -146 *~ 1;
#X obj -74 80 clip~ -0.9 0.9;
#X obj 413 -145 / 127;
#X obj 150 -96 *~ 1;
#X obj 182 -96 / 127;
#X obj 184 -117 hsl 128 15 0 127 0 1 empty empty empty -2 -8 0 10 -262144
-1 -1 5900 1;
#X obj 368 -167 hsl 128 15 0 127 0 1 empty empty empty -2 -8 0 10 -262144
-1 -1 12700 1;
#X obj -102 -108 *~ 1;
#X obj -70 -108 / 127;
#X obj -68 -131 hsl 128 15 0 127 0 1 empty empty empty -2 -8 0 10 -262144
-1 -1 2300 1;
#N canvas 0 22 450 300 (subpatch) 0;
#X array synthnotes 16 float 3;
#A 0 1 3 4.87143 4.22858 2.42859 2.17145 2.17145 2.30002 2.55716 2.75002
3.2643 4.22858 5.51428 6.28571 6.47856 5;
#X coords 0 8 16 -1 200 140 1;
#X restore 529 -429 graph;
#X obj -120 -470 * 4;
#X obj 404 -63 r setbassnote;
#X obj 404 -106 r setsynthnote;
#N canvas 0 22 450 300 (subpatch) 0;
#X array bassnotes 16 float 3;
#A 0 1 1 11.4429 11.4429 11.4429 11.5644 11.5644 11.5644 11.5644 11.5644
6.58575 5.49289 4.52145 2.82144 2.70001 2.45715;
#X coords 0 16 16 -1 200 140 1;
#X restore 528 -270 graph;
#X obj 404 -22 r setkicknote;
#N canvas 0 22 450 300 (subpatch) 0;
#X array kicknotes 16 float 3;
#A 0 1 0 -0.0500002 -0.150001 -0.300001 -0.350001 -0.400002 -0.400002
-0.200001 0 0 1 1 1 1 1;
#X coords 0 1 16 0 200 20 1;
#X restore 528 -114 graph;
#N canvas 0 22 450 300 (subpatch) 0;
#X array snarenotes 16 float 3;
#A 0 0 0 0 0 1 0 1 0 0 0 0 0 1 0 1 0;
#X coords 0 1 16 0 200 20 1;
#X restore 531 -71 graph;
#N canvas 0 22 450 300 (subpatch) 0;
#X array highhatnotes 32 float 3;
#A 0 1 1 1 1 1 0 0 0 1 0 0 1 1 -0.149999 -0.149999 -0.149999 -0.149999
-0.149999 -0.149999 -0.099999 1 0 0 0 1 0 0 1 1 1 1 1;
#X coords 0 1 32 0 200 20 1;
#X restore 527 -30 graph;
#X obj -56 53 effectreverb;
#X obj 25 80 clip~ -0.9 0.9;
#X text 252 -43 crusher;
#X text 253 -20 depth;
#X text 133 -67 bitcrusher;
#X obj 76 11 hsl 128 15 0 127 0 1 empty empty empty -2 -8 0 10 -262144
-1 -1 0 1;
#X obj 209 9 / 127;
#X text 251 7 mix;
#X text 123 -7 reverb;
#X obj 76 33 hsl 128 15 0 127 0 0 empty empty empty -2 -8 0 10 -262144
-1 -1 0 1;
#X obj 209 33 / 127;
#X text 249 28 room;
#X obj 77 54 hsl 128 15 0 127 0 0 empty empty empty -2 -8 0 10 -262144
-1 -1 0 1;
#X obj 210 54 / 127;
#X text 250 49 damping;
#X obj -84 -163 simple_adsr 1 0 0 100 0;
#X obj 43 -381 vsl 15 128 0 127 0 0 empty empty empty 0 -9 0 10 -262144
-1 -1 0 1;
#X obj 62 -381 vsl 15 128 0 127 0 0 empty empty empty 0 -9 0 10 -262144
-1 -1 0 1;
#X obj 81 -381 vsl 15 128 0 127 0 0 empty empty empty 0 -9 0 10 -262144
-1 -1 0 1;
#X obj 100 -381 vsl 15 128 0 127 0 0 empty empty empty 0 -9 0 10 -262144
-1 -1 0 1;
#X text 47 -401 a;
#X text 67 -399 d;
#X text 85 -401 s;
#X text 102 -400 r;
#X obj 36 -245 * 2;
#X obj 60 -245 * 2;
#X obj 84 -244 / 1.27;
#X obj 103 -225 * 2;
#X obj 208 -142 simple_adsr 1 0 0 100 0;
#X obj 298 -384 vsl 15 128 0 127 0 0 empty empty empty 0 -9 0 10 -262144
-1 -1 0 1;
#X obj 317 -384 vsl 15 128 0 127 0 0 empty empty empty 0 -9 0 10 -262144
-1 -1 0 1;
#X obj 336 -384 vsl 15 128 0 127 0 0 empty empty empty 0 -9 0 10 -262144
-1 -1 0 1;
#X obj 355 -384 vsl 15 128 0 127 0 0 empty empty empty 0 -9 0 10 -262144
-1 -1 0 1;
#X obj 286 -248 * 2;
#X obj 310 -248 * 2;
#X obj 334 -247 / 1.27;
#X obj 357 -223 * 2;
#X obj 153 -118 *~;
#X obj -102 -138 *~;
#X obj -55 0 clip~ -0.9 0.9;
#X obj -105 -380 vsl 15 128 0 127 0 0 empty empty empty 0 -9 0 10 -262144
-1 -1 0 1;
#X obj -111 -227 * 2;
#X obj 146 -163 chiptune_synth 2 2 2;
#X obj 152 -381 vsl 15 128 0 127 0 0 empty empty empty 0 -9 0 10 -262144
-1 -1 0 1;
#X obj 152 -201 * 2;
#X obj 261 -439 s \$0-halfbeat;
#X obj -76 -85 +~;
#N canvas 325 80 798 329 osc 1;
#X obj 107 33 import mrpeach;
#X obj 65 60 udpreceive 1338;
#X obj 58 94 unpackOSC;
#X obj 5 184 send setsynthnote;
#X obj 68 205 send setbassnote;
#X obj 112 231 send setkicknote;
#X obj 151 251 send setsnarenote;
#X obj 196 271 send sethighhatnote;
#X obj 12 160 routeOSC /synth /bass /kick /snare /highhat;
#X obj 414 158 send setmodemanual;
#X obj 14 119 routeOSC /setnote /setmode /setmodemanual;
#X obj 304 159 send setmode;
#X connect 1 0 2 0;
#X connect 2 0 10 0;
#X connect 8 0 3 0;
#X connect 8 1 4 0;
#X connect 8 2 5 0;
#X connect 8 3 6 0;
#X connect 8 4 7 0;
#X connect 10 0 8 0;
#X connect 10 1 11 0;
#X connect 10 2 9 0;
#X restore 622 -477 pd osc;
#N canvas 0 22 450 300 setsynthnote 0;
#X msg -111 84 \; synthnotes \$1 \$2;
#X obj 13 31 unpack f f;
#X obj 13 71 pack \$0 f f;
#X obj 12 51 t b f;
#X msg 10 88 \; \$1-synpitch\$2 \$3;
#X obj 84 41 + 1;
#X obj -102 20 inlet;
#X connect 1 0 3 0;
#X connect 1 1 5 0;
#X connect 2 0 4 0;
#X connect 3 0 2 0;
#X connect 3 1 2 1;
#X connect 5 0 2 2;
#X connect 6 0 0 0;
#X connect 6 0 1 0;
#X restore 404 -84 pd setsynthnote;
#N canvas 0 22 292 149 setbassnote 0;
#X msg 18 80 \; bassnotes \$1 \$2;
#X obj 100 20 unpack f f;
#X obj 100 60 pack \$0 f f;
#X obj 99 40 t b f;
#X obj 171 30 + 1;
#X msg 142 85 \; \$1-basspitch\$2 \$3;
#X obj 12 42 inlet;
#X connect 1 0 3 0;
#X connect 1 1 4 0;
#X connect 2 0 5 0;
#X connect 3 0 2 0;
#X connect 3 1 2 1;
#X connect 4 0 2 2;
#X connect 6 0 0 0;
#X connect 6 0 1 0;
#X restore 404 -42 pd setbassnote;
#N canvas 0 22 450 300 setkicknote 0;
#X msg -56 -163 \; kicknotes \$1 \$2;
#X obj -38 -192 inlet;
#X connect 1 0 0 0;
#X restore 404 -1 pd setkicknote;
#X obj 404 21 r setsnarenote;
#N canvas 0 22 450 300 setsnarenote 0;
#X obj -38 -192 inlet;
#X msg -56 -163 \; snarenotes \$1 \$2;
#X connect 0 0 1 0;
#X restore 404 41 pd setsnarenote;
#X obj 404 62 r sethighhatnote;
#N canvas 0 22 450 300 sethighhatnote 0;
#X obj -38 -192 inlet;
#X msg -56 -163 \; highhatnotes \$1 \$2;
#X connect 0 0 1 0;
#X restore 404 83 pd sethighhatnote;
#X text 618 -495 control OSC here;
#X obj 33 -487 loadbang;
#N canvas 90 65 791 597 melodymood 0;
#X msg -121 252 \; synthkey \$1 \$2 \$3 \$4 \$5 \$6 \$7 \$8;
#X msg 92 251 \; basskey \$1 \$2 \$3 \$4 \$5 \$6 \$7 \$8;
#X obj -158 104 pack 0 2 4 5 7 9 11 12;
#X obj -127 64 t b;
#X obj -158 84 t b;
#X msg -147 -171 majorscale;
#X msg -59 -169 majorchord;
#X msg 27 -170 pentatonic;
#X obj -102 62 pack 0 3 5 8 11 13 16 21 23;
#X obj -102 41 t b;
#X obj -49 -194 loadbang;
#X obj -127 83 pack 0 4 7 12 16 19 24 26 29;
#X obj -73 21 t b;
#X obj -75 41 pack 0 4 7 11 12 16 19 23 24;
#X msg 105 -164 majorseventh;
#X obj -46 0 t b;
#X obj -46 19 pack 0 3 7 12 15 19 24 26 29;
#X msg 201 -165 minorchord;
#X obj -192 -180 inlet;
#X msg 285 -161 harmonicminorscale;
#X obj -204 -118 route majorscale majorchord pentatonic majorseventh
minorchord harmonicminor;
#X obj -20 -2 pack 0 2 4 5 7 9 11 12;
#X obj -20 -22 t b;
#X obj 451 -183 inlet;
#X msg 352 -84 \; synthkey \$1 \$2;
#X msg 460 -83 \; basskey \$1 \$2;
#X connect 2 0 0 0;
#X connect 2 0 1 0;
#X connect 3 0 11 0;
#X connect 4 0 2 0;
#X connect 5 0 20 0;
#X connect 6 0 20 0;
#X connect 7 0 20 0;
#X connect 8 0 1 0;
#X connect 8 0 0 0;
#X connect 9 0 8 0;
#X connect 10 0 5 0;
#X connect 11 0 0 0;
#X connect 11 0 1 0;
#X connect 12 0 13 0;
#X connect 13 0 0 0;
#X connect 13 0 1 0;
#X connect 14 0 20 0;
#X connect 15 0 16 0;
#X connect 16 0 0 0;
#X connect 16 0 1 0;
#X connect 17 0 20 0;
#X connect 18 0 20 0;
#X connect 19 0 20 0;
#X connect 20 0 4 0;
#X connect 20 1 3 0;
#X connect 20 2 9 0;
#X connect 20 3 12 0;
#X connect 20 4 15 0;
#X connect 20 5 22 0;
#X connect 21 0 0 0;
#X connect 21 0 1 0;
#X connect 22 0 21 0;
#X connect 23 0 25 0;
#X connect 23 0 24 0;
#X restore 538 28 pd melodymood;
#X obj 538 4 r setmode;
#X obj 613 5 r setmodemanual;
#X connect 1 0 113 0;
#X connect 2 0 3 0;
#X connect 3 0 1 1;
#X connect 4 0 5 0;
#X connect 5 0 1 2;
#X connect 6 0 9 0;
#X connect 7 0 10 0;
#X connect 8 0 11 0;
#X connect 12 0 45 1;
#X connect 13 0 55 0;
#X connect 14 0 13 0;
#X connect 15 0 28 0;
#X connect 16 0 17 3;
#X connect 17 0 112 0;
#X connect 18 0 15 0;
#X connect 19 0 16 0;
#X connect 20 0 27 0;
#X connect 21 0 26 0;
#X connect 22 0 17 4;
#X connect 23 0 17 5;
#X connect 24 0 17 8;
#X connect 25 0 17 6;
#X connect 26 0 17 7;
#X connect 27 0 25 0;
#X connect 28 0 17 2;
#X connect 29 0 41 0;
#X connect 30 0 116 3;
#X connect 31 0 29 0;
#X connect 32 0 30 0;
#X connect 33 0 40 0;
#X connect 34 0 39 0;
#X connect 35 0 116 4;
#X connect 36 0 116 5;
#X connect 37 0 116 8;
#X connect 38 0 116 6;
#X connect 39 0 116 7;
#X connect 40 0 38 0;
#X connect 41 0 116 2;
#X connect 42 0 13 1;
#X connect 43 0 13 3;
#X connect 44 0 13 2;
#X connect 45 0 1 0;
#X connect 48 0 51 0;
#X connect 48 1 119 0;
#X connect 49 0 66 0;
#X connect 52 0 17 0;
#X connect 52 1 89 0;
#X connect 53 0 116 0;
#X connect 53 1 102 0;
#X connect 54 0 45 1;
#X connect 55 0 120 1;
#X connect 56 0 0 0;
#X connect 57 0 55 1;
#X connect 58 0 120 1;
#X connect 59 0 58 1;
#X connect 60 0 59 0;
#X connect 61 0 57 0;
#X connect 62 0 120 0;
#X connect 63 0 62 1;
#X connect 64 0 63 0;
#X connect 66 0 50 0;
#X connect 67 0 123 0;
#X connect 68 0 122 0;
#X connect 70 0 124 0;
#X connect 74 0 56 0;
#X connect 74 1 75 0;
#X connect 75 0 0 1;
#X connect 79 0 80 0;
#X connect 80 0 74 1;
#X connect 83 0 84 0;
#X connect 84 0 74 2;
#X connect 86 0 87 0;
#X connect 87 0 74 3;
#X connect 89 0 112 1;
#X connect 90 0 98 0;
#X connect 91 0 99 0;
#X connect 92 0 100 0;
#X connect 93 0 101 0;
#X connect 98 0 89 2;
#X connect 99 0 89 3;
#X connect 100 0 89 4;
#X connect 101 0 89 5;
#X connect 102 0 111 1;
#X connect 103 0 107 0;
#X connect 104 0 108 0;
#X connect 105 0 109 0;
#X connect 106 0 110 0;
#X connect 107 0 102 2;
#X connect 108 0 102 3;
#X connect 109 0 102 4;
#X connect 110 0 102 5;
#X connect 111 0 58 0;
#X connect 112 0 62 0;
#X connect 113 0 74 0;
#X connect 114 0 115 0;
#X connect 115 0 17 1;
#X connect 116 0 111 0;
#X connect 117 0 118 0;
#X connect 118 0 116 1;
#X connect 120 0 45 0;
#X connect 125 0 126 0;
#X connect 127 0 128 0;
#X connect 130 0 6 0;
#X connect 132 0 131 0;
#X connect 133 0 131 1;
