#N canvas 246 189 568 401 10;
#X obj 21 8 inlet~;
#X obj 21 328 outlet~;
#X obj 21 127 mtof~;
#X msg 114 97 2;
#X msg 114 119 3;
#X msg 114 53 0;
#X msg 114 75 1;
#X msg 160 207 2;
#X msg 160 229 3;
#X msg 160 163 0;
#X msg 160 185 1;
#X msg 123 305 2;
#X msg 123 327 3;
#X msg 123 261 0;
#X msg 123 283 1;
#X obj 69 8 inlet~;
#X obj 116 8 inlet;
#X obj 156 8 inlet;
#X obj 195 8 inlet;
#X obj 236 8 inlet~;
#X obj 282 8 inlet;
#X obj 321 8 inlet;
#X obj 360 8 inlet;
#X obj 401 9 inlet;
#X obj 21 70 vibrato \$2;
#X obj 21 268 tremolo \$3;
#X obj 21 193 waveformselector \$1;
#X connect 0 0 24 0;
#X connect 2 0 26 0;
#X connect 3 0 24 3;
#X connect 4 0 24 3;
#X connect 5 0 24 3;
#X connect 6 0 24 3;
#X connect 7 0 26 2;
#X connect 8 0 26 2;
#X connect 9 0 26 2;
#X connect 10 0 26 2;
#X connect 11 0 25 3;
#X connect 12 0 25 3;
#X connect 13 0 25 3;
#X connect 14 0 25 3;
#X connect 15 0 24 1;
#X connect 16 0 24 2;
#X connect 17 0 24 3;
#X connect 18 0 26 2;
#X connect 19 0 25 1;
#X connect 20 0 25 2;
#X connect 21 0 25 3;
#X connect 22 0 24 4;
#X connect 23 0 25 4;
#X connect 24 0 2 0;
#X connect 25 0 1 0;
#X connect 26 0 25 0;
