#N canvas 0 22 528 383 10;
#X obj 21 14 inlet;
#X obj 17 352 outlet~;
#X obj 94 209 bng 15 250 50 0 empty empty empty 17 7 0 10 -262144 -1
-1;
#X obj 95 169 bng 15 250 50 0 empty empty empty 17 7 0 10 -262144 -1
-1;
#X obj 96 128 bng 15 250 50 0 empty empty empty 17 7 0 10 -262144 -1
-1;
#X obj 93 226 sampler 3 drums/kick/8.aiff;
#X obj 94 186 sampler 2 drums/snare/14.aiff;
#X obj 95 145 sampler 1 drums/hhat/12.aiff;
#X obj 22 38 route 0 1;
#X obj 22 330 +~;
#X obj 259 17 inlet;
#X obj 296 17 inlet;
#X obj 333 18 inlet;
#X msg 304 210 drums/kick/\$1.aiff;
#X msg 323 178 drums/snare/\$1.aiff;
#X msg 352 140 drums/hhat/\$1.aiff;
#X connect 0 0 8 0;
#X connect 2 0 5 0;
#X connect 3 0 6 0;
#X connect 4 0 7 0;
#X connect 5 0 9 0;
#X connect 6 0 9 0;
#X connect 7 0 9 0;
#X connect 8 0 2 0;
#X connect 8 1 3 0;
#X connect 8 2 4 0;
#X connect 9 0 1 0;
#X connect 10 0 13 0;
#X connect 11 0 14 0;
#X connect 12 0 15 0;
#X connect 13 0 5 1;
#X connect 14 0 6 1;
#X connect 15 0 7 1;
