#N canvas 33 123 346 335 10;
#X obj 32 20 inlet~;
#X obj 33 283 outlet~;
#X obj 114 190 delread~ delaytab 100;
#X obj 82 68 delwrite~ delaytab 1000;
#X obj 56 220 *~ 0.3;
#X obj 88 258 *~ 0.8;
#X obj 119 164 receive \$1-delay-time;
#X obj 117 211 receive \$1-delay-feedback;
#X obj 121 238 receive \$1-delay-mix;
#X obj 97 22 table delaytab \$2;
#X connect 0 0 1 0;
#X connect 0 0 3 0;
#X connect 2 0 4 0;
#X connect 2 0 5 0;
#X connect 4 0 3 0;
#X connect 5 0 1 0;
#X connect 6 0 2 0;
#X connect 7 0 4 1;
#X connect 8 0 5 1;
