#N canvas 140 126 475 542 10;
#X obj -62 496 outlet~;
#N canvas 0 22 466 316 rh_scalelog 0;
#X obj 20 155 exp;
#X obj 20 107 *;
#X obj 20 130 +;
#X obj 98 87 log;
#X obj 194 84 log;
#X obj 123 123 t b f;
#X obj 123 145 -;
#X obj 20 183 outlet;
#X obj 20 19 inlet;
#X obj 98 23 inlet;
#X obj 194 24 inlet;
#X connect 0 0 7 0;
#X connect 1 0 2 0;
#X connect 2 0 0 0;
#X connect 3 0 2 1;
#X connect 3 0 5 0;
#X connect 4 0 6 0;
#X connect 5 0 6 0;
#X connect 5 1 6 1;
#X connect 6 0 1 1;
#X connect 8 0 1 0;
#X connect 9 0 3 0;
#X connect 10 0 4 0;
#X restore 101 431 pd rh_scalelog;
#X msg 173 398 0.1;
#X msg 219 398 10;
#X obj -19 91 inlet~;
#X obj 14 178 wrap~;
#X obj -17 221 -~;
#X obj -15 140 *~ 65536;
#X obj -17 243 /~ 65536;
#N canvas 0 22 466 316 rh_scalelog 0;
#X obj 20 155 exp;
#X obj 20 107 *;
#X obj 20 130 +;
#X obj 98 87 log;
#X obj 194 84 log;
#X obj 123 123 t b f;
#X obj 123 145 -;
#X obj 20 183 outlet;
#X obj 20 19 inlet;
#X obj 98 23 inlet;
#X obj 194 24 inlet;
#X connect 0 0 7 0;
#X connect 1 0 2 0;
#X connect 2 0 0 0;
#X connect 3 0 2 1;
#X connect 3 0 5 0;
#X connect 4 0 6 0;
#X connect 5 0 6 0;
#X connect 5 1 6 1;
#X connect 6 0 1 1;
#X connect 8 0 1 0;
#X connect 9 0 3 0;
#X connect 10 0 4 0;
#X restore 74 164 pd rh_scalelog;
#X msg 192 131 65536;
#X msg 146 131 1;
#X obj 45 275 samphold~;
#X obj 231 189 phasor~ 4400;
#N canvas 0 22 466 316 rh_scalelog 0;
#X obj 20 155 exp;
#X obj 20 107 *;
#X obj 20 130 +;
#X obj 98 87 log;
#X obj 194 84 log;
#X obj 123 123 t b f;
#X obj 123 145 -;
#X obj 20 183 outlet;
#X obj 20 19 inlet;
#X obj 98 23 inlet;
#X obj 194 24 inlet;
#X connect 0 0 7 0;
#X connect 1 0 2 0;
#X connect 2 0 0 0;
#X connect 3 0 2 1;
#X connect 3 0 5 0;
#X connect 4 0 6 0;
#X connect 5 0 6 0;
#X connect 5 1 6 1;
#X connect 6 0 1 1;
#X connect 8 0 1 0;
#X connect 9 0 3 0;
#X connect 10 0 4 0;
#X restore 229 163 pd rh_scalelog;
#X msg 347 130 44009;
#X msg 299 129 512;
#X obj 43 467 *~;
#X obj 75 77 expr pow($f1 \, 4);
#X obj 126 352 r \$1-bitcrush-dist;
#X obj 235 61 r \$1-bitcrush-samplerate;
#X obj 73 29 r \$1-bitcrush-depth;
#X obj 301 102 loadbang;
#X obj 173 370 loadbang;
#X obj 146 103 loadbang;
#X obj 61 443 sig~ 1;
#X obj -59 440 sig~ 0;
#X obj -69 466 *~;
#X obj -19 397 - 1;
#X obj -8 426 abs;
#X connect 2 0 1 1;
#X connect 3 0 1 2;
#X connect 4 0 7 0;
#X connect 4 0 27 0;
#X connect 5 0 6 1;
#X connect 6 0 8 0;
#X connect 7 0 5 0;
#X connect 7 0 6 0;
#X connect 8 0 12 0;
#X connect 9 0 7 1;
#X connect 9 0 8 1;
#X connect 10 0 9 2;
#X connect 11 0 9 1;
#X connect 12 0 17 0;
#X connect 13 0 12 1;
#X connect 14 0 13 0;
#X connect 15 0 14 2;
#X connect 16 0 14 1;
#X connect 17 0 0 0;
#X connect 18 0 9 0;
#X connect 19 0 1 0;
#X connect 19 0 25 0;
#X connect 19 0 28 0;
#X connect 20 0 14 0;
#X connect 21 0 18 0;
#X connect 22 0 16 0;
#X connect 22 0 15 0;
#X connect 23 0 2 0;
#X connect 23 0 3 0;
#X connect 24 0 11 0;
#X connect 24 0 10 0;
#X connect 25 0 17 1;
#X connect 26 0 27 1;
#X connect 27 0 0 0;
#X connect 28 0 29 0;
#X connect 29 0 26 0;
