#N canvas 140 355 384 338 10;
#X obj 115 270 outlet~;
#X obj 122 246 +~;
#X obj 22 15 inlet~;
#X obj 161 193 *~ 1;
#X obj 328 46 loadbang;
#X obj 329 98 + 1;
#X obj 85 18 r \$1-vib-speed;
#X obj 86 41 sig~;
#X obj 124 37 r \$1-vib-depth;
#X obj 155 56 r \$1-vib-waveform;
#X obj 288 12 r \$1-vib-enable;
#X obj 165 138 waveformselector;
#X obj 331 70 \$2;
#X obj 193 75 r \$1-vib-waveform-x;
#X connect 1 0 0 0;
#X connect 2 0 1 0;
#X connect 3 0 1 1;
#X connect 4 0 12 0;
#X connect 5 0 3 1;
#X connect 6 0 7 0;
#X connect 7 0 11 0;
#X connect 8 0 11 1;
#X connect 9 0 11 2;
#X connect 10 0 3 1;
#X connect 11 0 3 0;
#X connect 12 0 5 0;
#X connect 13 0 11 3;
