#N canvas 197 405 352 346 10;
#X obj 32 20 inlet~;
#X obj 27 308 outlet~;
#X obj 56 220 *~ 0.3;
#X obj 88 258 *~ 0.8;
#X obj 119 164 receive \$1-delay-time;
#X obj 117 211 receive \$1-delay-feedback;
#X obj 121 238 receive \$1-delay-mix;
#X obj 81 68 delwrite~ \$1-delaytab 1000;
#X obj 114 190 delread~ \$1-delaytab 100;
#X obj 263 97 print;
#X obj 97 22 table \$1-delaytab \$2;
#X connect 0 0 1 0;
#X connect 0 0 7 0;
#X connect 2 0 7 0;
#X connect 3 0 1 0;
#X connect 4 0 8 0;
#X connect 4 0 9 0;
#X connect 5 0 2 1;
#X connect 6 0 3 1;
#X connect 8 0 2 0;
#X connect 8 0 3 0;
