#N canvas 660 379 388 396 10;
#X obj 8 10 inlet~;
#X obj 9 346 outlet~;
#X obj 125 346 outlet~;
#X obj 78 12 inlet;
#X msg 78 77 wet \$1;
#X msg 99 55 dry \$1;
#X obj 99 35 - 1;
#X obj 126 39 abs;
#X obj 159 16 inlet;
#X msg 160 42 roomsize \$1;
#X obj 227 15 inlet;
#X obj 66 202 freeverb~;
#X msg 190 66 damping \$1;
#X connect 0 0 11 0;
#X connect 0 0 11 1;
#X connect 0 0 1 0;
#X connect 0 0 2 0;
#X connect 3 0 4 0;
#X connect 3 0 6 0;
#X connect 4 0 11 0;
#X connect 5 0 11 0;
#X connect 6 0 7 0;
#X connect 7 0 5 0;
#X connect 8 0 9 0;
#X connect 9 0 11 0;
#X connect 10 0 12 0;
#X connect 11 0 1 0;
#X connect 11 1 2 0;
#X connect 12 0 11 0;
