#N canvas 0 22 482 383 10;
#X obj 70 5 inlet~;
#X obj 65 301 outlet~;
#X obj 84 70 *~ 10;
#X obj 151 -31 hsl 128 15 0 127 0 0 empty empty empty -2 -8 0 10 -262144
-1 -1 0 1;
#X obj 198 95 sig~ 1;
#X obj 170 137 +~;
#X msg 112 23 1;
#N canvas 195 396 450 300 upsample 0;
#X obj 29 25 inlet~;
#X obj 15 226 outlet~;
#X obj 123 94 tanh~;
#X obj 191 276 block~ 64 1 16;
#X obj 135 68 *~ 16;
#X obj 132 36 lp10_cheb~ 14000;
#X obj 249 142 lp10_cheb~ 14000;
#X obj 269 44 inlet;
#X obj 168 193 hip~ 5;
#X connect 0 0 5 0;
#X connect 2 0 6 0;
#X connect 4 0 2 0;
#X connect 5 0 4 0;
#X connect 6 0 8 0;
#X connect 7 0 5 1;
#X connect 7 0 6 1;
#X connect 8 0 1 0;
#X restore 91 227 pd upsample;
#X obj 82 262 *~ 0.7;
#X obj 39 255 *~ 0.3;
#X obj 146 273 hsl 128 15 0 127 0 0 empty empty empty -2 -8 0 10 -262144
-1 -1 0 1;
#X obj 145 298 / 127;
#X obj 56 199 - 1;
#X obj 55 225 * -1;
#X obj 103 147 *~;
#X obj 265 99 *~ 1;
#X obj 227 124 +~ 1;
#X obj 302 75 osc~ 0.1;
#X obj 311 120 hsl 128 15 0 127 0 0 empty empty empty -2 -8 0 10 -262144
-1 -1 0 1;
#X obj 324 165 mtof;
#X obj 358 166 nbx 5 14 -1e+37 1e+37 0 0 empty empty empty 0 -8 0 10
-262144 -1 -1 0 256;
#X obj 154 70 + 1;
#X obj 186 67 nbx 5 14 -1e+37 1e+37 0 0 empty empty empty 0 -8 0 10
-262144 -1 -1 0 256;
#X obj 155 43 / 6;
#X msg 126 0 20000;
#X obj 168 1 pow 1.6;
#X obj 327 137 + 13;
#X obj 248 -2 r \$1-fuzz-dist;
#X obj 313 196 r \$1-fuzz-cutoff;
#X obj 194 232 r \$1-fuzz-mix;
#X connect 0 0 2 0;
#X connect 0 0 9 0;
#X connect 2 0 14 0;
#X connect 3 0 25 0;
#X connect 4 0 5 0;
#X connect 5 0 14 1;
#X connect 6 0 2 1;
#X connect 7 0 8 0;
#X connect 8 0 1 0;
#X connect 9 0 1 0;
#X connect 10 0 11 0;
#X connect 11 0 12 0;
#X connect 11 0 8 1;
#X connect 12 0 13 0;
#X connect 13 0 9 1;
#X connect 14 0 7 0;
#X connect 15 0 16 0;
#X connect 17 0 15 0;
#X connect 18 0 26 0;
#X connect 19 0 20 0;
#X connect 19 0 7 1;
#X connect 21 0 22 0;
#X connect 21 0 2 1;
#X connect 23 0 21 0;
#X connect 24 0 2 1;
#X connect 25 0 23 0;
#X connect 26 0 19 0;
#X connect 27 0 2 1;
#X connect 28 0 7 1;
#X connect 29 0 12 0;
#X connect 29 0 8 1;
