#N canvas 325 97 311 163 10;
#X obj 24 11 inlet~;
#X obj 26 110 outlet~;
#X obj 66 10 r \$1-moog-cutoff;
#X obj 174 13 r \$1-moog-q;
#X obj 175 34 sig~;
#X obj 59 35 sig~;
#X obj 30 58 moog~ 22500 0;
#X connect 0 0 6 0;
#X connect 2 0 5 0;
#X connect 3 0 4 0;
#X connect 4 0 6 2;
#X connect 5 0 6 1;
#X connect 6 0 1 0;
