#N canvas 179 325 388 396 10;
#X obj 70 5 inlet~;
#X obj 70 344 outlet~;
#X obj 182 153 wrap~;
#X obj 165 208 -~;
#X obj 55 272 *~;
#X obj 78 215 - 1;
#X obj 261 28 r \$1-bitcrush-depth;
#X obj 262 -4 r \$1-bitcrush-dist;
#X obj 80 245 abs;
#X obj 153 112 *~ \$2;
#X obj 167 251 /~ \$2;
#X obj 130 283 *~ 1;
#X obj 80 160 loadbang;
#X obj 81 185 0;
#X connect 0 0 4 0;
#X connect 0 0 9 0;
#X connect 2 0 3 1;
#X connect 3 0 10 0;
#X connect 4 0 1 0;
#X connect 5 0 8 0;
#X connect 6 0 9 1;
#X connect 6 0 10 1;
#X connect 7 0 5 0;
#X connect 7 0 11 1;
#X connect 8 0 4 1;
#X connect 9 0 2 0;
#X connect 9 0 3 0;
#X connect 10 0 11 0;
#X connect 11 0 1 0;
#X connect 12 0 13 0;
#X connect 13 0 5 0;
