#N canvas 97 41 564 286 10;
#X obj 24 11 inlet~;
#X obj 28 224 outlet~;
#X obj 66 10 r \$1-moog-cutoff;
#X obj 174 13 r \$1-moog-q;
#X obj 175 34 sig~;
#X obj 58 35 sig~;
#X obj 32 172 moog~ 22500;
#X obj 62 149 mtof~;
#X obj 60 127 effectvibrato \$1-moog-cut 20;
#X obj 239 127 effectvibrato \$1-moog-q 3;
#X connect 0 0 6 0;
#X connect 2 0 5 0;
#X connect 3 0 4 0;
#X connect 4 0 9 0;
#X connect 5 0 8 0;
#X connect 6 0 1 0;
#X connect 7 0 6 1;
#X connect 8 0 7 0;
#X connect 9 0 6 2;
