#N canvas 715 322 518 434 12;
#X obj 70 5 inlet~;
#X obj 65 301 outlet~;
#X obj 75 172 clip~ -1 1;
#X obj 74 118 overdrive~;
#X obj 142 75 r c\$1-dist;
#X obj 267 175 wrap~;
#X obj 249 247 *~ 0.2;
#X obj 36 260 *~ 0.8;
#X obj 74 209 r c\$1-distwrap;
#X obj 286 209 r c\$1-distwrap;
#X obj 88 232 - 1;
#X connect 0 0 3 0;
#X connect 2 0 7 0;
#X connect 3 0 2 0;
#X connect 3 0 5 0;
#X connect 4 0 3 1;
#X connect 5 0 6 0;
#X connect 6 0 1 0;
#X connect 7 0 1 0;
#X connect 8 0 10 0;
#X connect 9 0 6 1;
#X connect 10 0 7 1;
#X coords 0 0 1 1 90 160 0;
