#N canvas 109 299 945 446 10;
#X obj 30 378 +~;
#X obj 31 304 effectdelay \$1-d 44100;
#X obj 31 326 effectdelay \$1-r 4410;
#X obj 33 247 effectbitcrush \$1;
#X obj 34 151 effecthighpass \$1;
#X obj 34 179 effectlowpass \$1;
#X obj 33 204 effectmoogpass \$1;
#N canvas 145 88 1117 570 controls 0;
#X obj 336 57 hsl 128 15 0 127 0 0 empty empty empty -2 -8 0 10 -262144
-1 -1 3429 1;
#X floatatom 366 77 5 0 0 0 - - -;
#X obj 445 397 bng 15 250 50 0 empty empty empty 17 7 0 10 -262144
-1 -1;
#X obj 426 417 bng 15 250 50 0 empty empty empty 17 7 0 10 -262144
-1 -1;
#X obj 838 320 hsl 128 15 0 127 0 0 empty empty empty -2 -8 0 10 -262144
-1 -1 635 1;
#X obj 835 337 / 127;
#X obj 873 340 * 1000;
#X obj 608 61 hsl 128 15 0 127 0 0 empty empty empty -2 -8 0 10 -262144
-1 -1 9525 1;
#X obj 605 78 / 127;
#X obj 608 1 hsl 128 15 0 127 0 0 empty empty empty -2 -8 0 10 -262144
-1 -1 0 1;
#X obj 605 18 / 127;
#X obj 843 132 hsl 128 15 0 127 0 0 empty empty empty -2 -8 0 10 -262144
-1 -1 8509 1;
#X obj 840 149 / 127;
#X obj 878 152 * 1000;
#X obj 843 250 hsl 128 15 0 127 0 0 empty empty empty -2 -8 0 10 -262144
-1 -1 6223 1;
#X obj 840 267 / 127;
#X obj 843 190 hsl 128 15 0 127 0 0 empty empty empty -2 -8 0 10 -262144
-1 -1 6096 1;
#X obj 840 207 / 127;
#X text 842 116 delay;
#X obj 840 168 s \$1-d-delay-time;
#X obj 840 226 s \$1-d-delay-mix;
#X obj 840 286 s \$1-d-delay-feedback;
#X obj 835 356 s \$1-r-delay-time;
#X obj 838 438 hsl 128 15 0 127 0 0 empty empty empty -2 -8 0 10 -262144
-1 -1 3810 1;
#X obj 835 455 / 127;
#X obj 838 378 hsl 128 15 0 127 0 0 empty empty empty -2 -8 0 10 -262144
-1 -1 6731 1;
#X obj 835 395 / 127;
#X obj 835 414 s \$1-r-delay-mix;
#X obj 835 474 s \$1-r-delay-feedback;
#X text 613 -19 bitcrush;
#X obj 605 37 s \$1-bitcrush-dist;
#X obj 603 98 s \$1-bitcrush-depth;
#X obj 679 77 + 1;
#X obj 645 78 * 31;
#X obj -71 191 / 10;
#X obj -31 210 / 80;
#X obj -33 38 vsl 15 128 0 127 0 0 empty empty empty 0 -9 0 10 -262144
-1 -1 11049 1;
#X obj -8 38 vsl 15 128 0 127 0 0 empty empty empty 0 -9 0 10 -262144
-1 -1 10795 1;
#X obj 67 31 vsl 15 128 0 127 0 0 empty empty empty 0 -9 0 10 -262144
-1 -1 7747 1;
#X obj 96 31 vsl 15 128 0 127 0 0 empty empty empty 0 -9 0 10 -262144
-1 -1 9652 1;
#X obj 17 98 vradio 15 1 0 4 empty empty empty 0 -8 0 10 -262144 -1
-1 3;
#X obj 39 98 vradio 15 1 0 4 empty empty empty 0 -8 0 10 -262144 -1
-1 2;
#X obj 121 99 vradio 15 1 0 4 empty empty empty 0 -8 0 10 -262144 -1
-1 2;
#X obj 83 211 / 127;
#X obj 55 207 / 5;
#X obj 338 13 hsl 128 15 0 127 0 0 empty empty empty -2 -8 0 10 -262144
-1 -1 12700 1;
#X floatatom 367 33 5 0 0 0 - - -;
#X obj 401 470 hsl 128 15 0 127 0 0 empty empty empty -2 -8 0 10 -262144
-1 -1 0 1;
#X floatatom 522 487 5 0 0 0 - - -;
#X obj 333 76 / 30;
#X obj 330 149 hsl 128 15 0 127 0 0 empty empty empty -2 -8 0 10 -262144
-1 -1 12700 1;
#X floatatom 360 169 5 0 0 0 - - -;
#X obj 332 96 hsl 128 15 0 127 0 0 empty empty empty -2 -8 0 10 -262144
-1 -1 0 1;
#X floatatom 361 116 5 0 0 0 - - -;
#X obj 165 35 vsl 15 128 0 127 0 0 empty empty empty 0 -9 0 10 -262144
-1 -1 7500 1;
#X obj 170 209 / 127;
#X obj 144 104 vradio 15 1 0 4 empty empty empty 0 -8 0 10 -262144
-1 -1 0;
#X obj -46 250 s \$1-synth-vibrato-speed;
#X obj -14 270 s \$1-synth-vibrato-depth;
#X obj -25 288 s \$1-synth-vibrato-waveform;
#X obj 28 308 s \$1-synth-waveform;
#X obj 46 328 s \$1-synth-tremolo-speed;
#X obj 149 314 s \$1-synth-tremolo-depth;
#X obj 152 294 s \$1-synth-tremolo-waveform;
#X obj 159 273 s \$1-synth-suboctave-waveform;
#X obj 170 253 s \$1-synth-suboctave-mix;
#X obj 404 34 s \$1-moog-cutoff;
#X obj 399 77 s \$1-moog-q;
#X obj 397 118 s \$1-hip-cutoff;
#X obj 394 169 s \$1-lop-cutoff;
#X obj 447 420 s \$1-synth-noteon;
#X obj 426 439 s \$1-synth-noteoff;
#X obj 400 486 s \$1-synth-note;
#X obj -73 11 r \$1p1;
#X obj -23 14 r \$1p2;
#X obj 10 41 r \$1p3;
#X obj 21 61 r \$1p4;
#X obj 40 8 r \$1p5;
#X obj 86 9 r \$1p6;
#X obj 116 44 r \$1p7;
#X obj 123 67 r \$1p8;
#X obj 147 11 r \$1p9;
#X obj 262 350 s \$1-adsr-attack-amp;
#X obj 262 369 s \$1-adsr-attack-time;
#X obj 262 388 s \$1-adsr-decay-amp;
#X obj 264 407 s \$1-adsr-decay-time;
#X obj 263 426 s \$1-adsr-sustain-amp;
#X obj 263 447 s \$1-adsr-sustain-time;
#X obj 264 469 s \$1-adsr-release-amp;
#X obj 264 490 s \$1-adsr-release-time;
#X obj 182 351 / 127;
#X obj 183 390 / 127;
#X obj 183 429 / 127;
#X obj 184 471 / 127;
#X obj 38 348 hsl 128 15 0 127 0 0 empty empty empty -2 -8 0 10 -262144
-1 -1 11800 1;
#X obj -71 347 r \$1p10;
#X obj 37 451 hsl 128 15 0 127 0 0 empty empty empty -2 -8 0 10 -262144
-1 -1 300 1;
#X obj 31 410 hsl 128 15 0 127 0 0 empty empty empty -2 -8 0 10 -262144
-1 -1 0 1;
#X obj 33 429 hsl 128 15 0 127 0 0 empty empty empty -2 -8 0 10 -262144
-1 -1 12700 1;
#X obj 36 370 hsl 128 15 0 127 0 0 empty empty empty -2 -8 0 10 -262144
-1 -1 0 1;
#X obj 34 390 hsl 128 15 0 127 0 0 empty empty empty -2 -8 0 10 -262144
-1 -1 12700 1;
#X obj 37 469 hsl 128 15 0 127 0 0 empty empty empty -2 -8 0 10 -262144
-1 -1 0 1;
#X obj 34 487 hsl 128 15 0 127 0 0 empty empty empty -2 -8 0 10 -262144
-1 -1 1100 1;
#X obj -69 369 r \$1p11;
#X obj -75 388 r \$1p12;
#X obj -78 407 r \$1p13;
#X obj -76 429 r \$1p14;
#X obj -73 448 r \$1p15;
#X obj -73 467 r \$1p16;
#X obj -76 484 r \$1p17;
#X obj 229 13 r \$1p18;
#X obj 228 54 r \$1p19;
#X obj 223 94 r \$1p20;
#X obj 223 147 r \$1p21;
#X obj 277 56 sp \$1 19;
#X obj 773 305 r \$1p22;
#X obj 775 368 r \$1p23;
#X obj 775 427 r \$1p24;
#X obj 774 129 r \$1p25;
#X obj 776 185 r \$1p26;
#X obj 776 244 r \$1p27;
#X obj 543 -8 r \$1p28;
#X obj 543 51 r \$1p29;
#X obj 863 17 hsl 128 15 0 127 0 0 empty empty empty -2 -8 0 10 -262144
-1 -1 9271 1;
#X floatatom 896 36 5 0 0 0 - - -;
#X obj 932 36 s \$1-volume;
#X obj 860 36 / 127;
#X obj 756 15 r \$1p0;
#X obj 230 35 r \$1s1;
#X obj -65 172 sp \$1 1;
#X obj -36 189 sp \$1 2;
#X obj -11 172 sp \$1 3;
#X obj 17 188 sp \$1 4;
#X obj 48 169 sp \$1 5;
#X obj 81 191 sp \$1 6;
#X obj 109 172 sp \$1 7;
#X obj 122 213 sp \$1 8;
#X obj 171 189 sp \$1 9;
#X obj -21 348 sp \$1 10;
#X obj -20 370 sp \$1 11;
#X obj -25 389 sp \$1 12;
#X obj -28 408 sp \$1 13;
#X obj -25 430 sp \$1 14;
#X obj -23 449 sp \$1 15;
#X obj -23 467 sp \$1 16;
#X obj -26 485 sp \$1 17;
#X obj 279 15 sp \$1 18;
#X obj 273 95 sp \$1 20;
#X obj 273 148 sp \$1 21;
#X obj 775 334 sp \$1 22;
#X obj 776 397 sp \$1 23;
#X obj 777 456 sp \$1 24;
#X obj 776 158 sp \$1 25;
#X obj 777 214 sp \$1 26;
#X obj 779 273 sp \$1 27;
#X obj 545 21 sp \$1 28;
#X obj 545 80 sp \$1 29;
#X obj 806 16 sp \$1 0;
#X obj 276 36 ss \$1 1;
#X obj 228 -8 r \$1s2;
#X obj 277 -11 ss \$1 2;
#X obj 327 168 mtof;
#X obj 327 118 mtof;
#X obj 333 35 mtof;
#X obj 191 489 mtof;
#X floatatom 225 491 5 0 0 0 - - -;
#X obj 195 371 mtof;
#X floatatom 229 374 5 0 0 0 - - -;
#X obj 194 409 mtof;
#X floatatom 227 412 5 0 0 0 - - -;
#X obj 190 450 mtof;
#X floatatom 223 451 5 0 0 0 - - -;
#X obj 605 202 hsl 128 15 0 127 0 0 empty empty empty -2 -8 0 10 -262144
-1 -1 0 1;
#X obj 602 219 / 127;
#X obj 605 142 hsl 128 15 0 127 0 0 empty empty empty -2 -8 0 10 -262144
-1 -1 12700 1;
#X obj 540 133 r \$1p30;
#X obj 542 162 sp \$1 30;
#X obj 540 192 r \$1p31;
#X obj 542 221 sp \$1 31;
#X obj 603 181 s \$1-dist;
#X obj 600 239 s \$1-distwrap;
#X text 609 122 distortion;
#X text 838 304 reverb;
#X obj 602 159 / 30;
#X obj 639 159 + 1;
#X obj 728 426 r \$1s16;
#X obj 723 459 ss \$1 16;
#X obj 722 402 ss \$1 15;
#X obj 727 369 r \$1s15;
#X obj 722 333 ss \$1 14;
#X obj 726 300 r \$1s14;
#X obj 723 276 ss \$1 13;
#X obj 728 244 r \$1s13;
#X obj 724 216 ss \$1 12;
#X obj 729 183 r \$1s12;
#X obj 729 149 ss \$1 11;
#X obj 733 117 r \$1s11;
#X obj 813 -5 ss \$1 3;
#X obj 763 -5 r \$1s3;
#X obj 501 -8 r \$1s4;
#X obj 498 21 ss \$1 4;
#X obj 502 49 r \$1s5;
#X obj 497 82 ss \$1 5;
#X obj 498 131 r \$1s6;
#X obj 493 162 ss \$1 6;
#X obj -73 -10 r \$1s7;
#X obj -27 -9 r \$1s8;
#X obj 38 -11 r \$1s9;
#X obj 87 -13 r \$1s10;
#X obj -72 223 ss \$1 7;
#X obj -19 229 ss \$1 8;
#X obj 43 228 ss \$1 9;
#X obj 92 231 ss \$1 10;
#X connect 0 0 49 0;
#X connect 0 0 114 0;
#X connect 0 0 158 0;
#X connect 2 0 70 0;
#X connect 3 0 71 0;
#X connect 4 0 5 0;
#X connect 4 0 149 0;
#X connect 4 0 189 0;
#X connect 5 0 6 0;
#X connect 6 0 22 0;
#X connect 7 0 8 0;
#X connect 7 0 156 0;
#X connect 7 0 202 0;
#X connect 8 0 33 0;
#X connect 9 0 10 0;
#X connect 9 0 155 0;
#X connect 9 0 200 0;
#X connect 10 0 30 0;
#X connect 11 0 12 0;
#X connect 11 0 152 0;
#X connect 11 0 195 0;
#X connect 12 0 13 0;
#X connect 13 0 19 0;
#X connect 14 0 15 0;
#X connect 14 0 154 0;
#X connect 14 0 191 0;
#X connect 15 0 21 0;
#X connect 16 0 17 0;
#X connect 16 0 153 0;
#X connect 16 0 193 0;
#X connect 17 0 20 0;
#X connect 23 0 24 0;
#X connect 23 0 151 0;
#X connect 23 0 186 0;
#X connect 24 0 28 0;
#X connect 25 0 26 0;
#X connect 25 0 150 0;
#X connect 25 0 187 0;
#X connect 26 0 27 0;
#X connect 32 0 31 0;
#X connect 33 0 32 0;
#X connect 34 0 57 0;
#X connect 35 0 58 0;
#X connect 36 0 34 0;
#X connect 36 0 129 0;
#X connect 36 0 209 0;
#X connect 37 0 35 0;
#X connect 37 0 130 0;
#X connect 37 0 210 0;
#X connect 38 0 44 0;
#X connect 38 0 133 0;
#X connect 38 0 211 0;
#X connect 39 0 43 0;
#X connect 39 0 134 0;
#X connect 39 0 212 0;
#X connect 40 0 59 0;
#X connect 40 0 131 0;
#X connect 41 0 60 0;
#X connect 41 0 132 0;
#X connect 42 0 63 0;
#X connect 42 0 135 0;
#X connect 43 0 62 0;
#X connect 44 0 61 0;
#X connect 45 0 146 0;
#X connect 45 0 160 0;
#X connect 45 0 163 0;
#X connect 47 0 48 0;
#X connect 47 0 72 0;
#X connect 49 0 1 0;
#X connect 49 0 67 0;
#X connect 50 0 148 0;
#X connect 50 0 161 0;
#X connect 52 0 147 0;
#X connect 52 0 162 0;
#X connect 54 0 55 0;
#X connect 54 0 137 0;
#X connect 55 0 65 0;
#X connect 56 0 64 0;
#X connect 56 0 136 0;
#X connect 73 0 36 0;
#X connect 74 0 37 0;
#X connect 75 0 40 0;
#X connect 76 0 41 0;
#X connect 77 0 38 0;
#X connect 78 0 39 0;
#X connect 79 0 42 0;
#X connect 80 0 56 0;
#X connect 81 0 54 0;
#X connect 90 0 82 0;
#X connect 91 0 84 0;
#X connect 92 0 86 0;
#X connect 93 0 88 0;
#X connect 94 0 90 0;
#X connect 94 0 138 0;
#X connect 95 0 94 0;
#X connect 96 0 143 0;
#X connect 96 0 170 0;
#X connect 97 0 141 0;
#X connect 97 0 168 0;
#X connect 98 0 92 0;
#X connect 98 0 142 0;
#X connect 99 0 139 0;
#X connect 99 0 166 0;
#X connect 100 0 91 0;
#X connect 100 0 140 0;
#X connect 101 0 93 0;
#X connect 101 0 144 0;
#X connect 102 0 145 0;
#X connect 102 0 164 0;
#X connect 103 0 99 0;
#X connect 104 0 100 0;
#X connect 105 0 97 0;
#X connect 106 0 98 0;
#X connect 107 0 96 0;
#X connect 108 0 101 0;
#X connect 109 0 102 0;
#X connect 110 0 45 0;
#X connect 111 0 0 0;
#X connect 112 0 52 0;
#X connect 113 0 50 0;
#X connect 115 0 4 0;
#X connect 116 0 25 0;
#X connect 117 0 23 0;
#X connect 118 0 11 0;
#X connect 119 0 16 0;
#X connect 120 0 14 0;
#X connect 121 0 9 0;
#X connect 122 0 7 0;
#X connect 123 0 126 0;
#X connect 123 0 157 0;
#X connect 123 0 197 0;
#X connect 126 0 124 0;
#X connect 126 0 125 0;
#X connect 127 0 123 0;
#X connect 128 0 0 0;
#X connect 159 0 45 0;
#X connect 161 0 51 0;
#X connect 161 0 69 0;
#X connect 162 0 53 0;
#X connect 162 0 68 0;
#X connect 163 0 46 0;
#X connect 163 0 66 0;
#X connect 164 0 89 0;
#X connect 164 0 165 0;
#X connect 166 0 83 0;
#X connect 166 0 167 0;
#X connect 168 0 85 0;
#X connect 168 0 169 0;
#X connect 170 0 87 0;
#X connect 170 0 171 0;
#X connect 172 0 173 0;
#X connect 172 0 178 0;
#X connect 173 0 180 0;
#X connect 174 0 176 0;
#X connect 174 0 183 0;
#X connect 174 0 204 0;
#X connect 175 0 174 0;
#X connect 177 0 172 0;
#X connect 183 0 184 0;
#X connect 184 0 179 0;
#X connect 185 0 23 0;
#X connect 188 0 25 0;
#X connect 190 0 4 0;
#X connect 192 0 14 0;
#X connect 194 0 16 0;
#X connect 196 0 11 0;
#X connect 198 0 123 0;
#X connect 199 0 9 0;
#X connect 201 0 7 0;
#X connect 203 0 174 0;
#X connect 205 0 36 0;
#X connect 206 0 37 0;
#X connect 207 0 38 0;
#X connect 208 0 39 0;
#X restore 539 15 pd controls;
#X obj 72 134 +~;
#X obj 78 62 route 1 2 3 4 5 6 7 8;
#X obj 77 -5 inlet;
#X obj 22 419 outlet~;
#X obj 80 38 pack f f f;
#X obj 75 16 poly 8 0;
#N canvas 12 22 616 152 presets2 1;
#X obj 66 7 inlet;
#X obj -414 19 inlet;
#N canvas 208 74 1009 726 save 0;
#X obj -205 495 textfile;
#X msg -492 279 write presets/preset-\$1.txt;
#X msg -301 279 add param \$1 \$2;
#X obj 66 7 inlet;
#X obj 51 32 t f b b;
#X obj -301 232 r \$1-presetline;
#X msg 329 254 clear;
#X obj -34 179 0;
#X obj -32 205 + 1;
#X obj -31 230 moses 50;
#X msg -35 150 0;
#X obj -105 203 pack f \$1;
#X msg -119 228 \; \$2p\$1 bang \;;
#X obj 34 145 print SAVING:;
#X connect 1 0 0 0;
#X connect 2 0 0 0;
#X connect 3 0 4 0;
#X connect 3 0 13 0;
#X connect 4 0 1 0;
#X connect 4 1 10 0;
#X connect 4 2 6 0;
#X connect 5 0 2 0;
#X connect 6 0 0 0;
#X connect 7 0 8 0;
#X connect 7 0 11 0;
#X connect 8 0 9 0;
#X connect 9 0 7 0;
#X connect 10 0 7 0;
#X connect 11 0 12 0;
#X restore 76 114 pd save;
#N canvas 0 22 806 756 load 0;
#X obj 100 41 inlet;
#X obj 298 150 textfile;
#X msg 176 169 bang;
#X msg 185 87 rewind;
#X obj 177 145 until;
#X msg 178 123 1;
#X obj 389 133 route param;
#X msg 191 13 clear;
#X obj 191 59 print READING: \$1;
#X obj 54 110 t b b f f;
#X msg 62 71 3;
#X msg 185 34 read presets/preset-\$1.txt cr;
#X obj 421 293 print;
#X obj 389 190 unpack f f;
#X obj 395 214 pack f f \$1;
#X msg 376 242 \; \$3p\$1 \$2;
#X connect 0 0 9 0;
#X connect 1 0 6 0;
#X connect 1 0 5 0;
#X connect 2 0 1 0;
#X connect 3 0 1 0;
#X connect 4 0 2 0;
#X connect 5 0 4 0;
#X connect 6 0 13 0;
#X connect 7 0 1 0;
#X connect 9 0 5 0;
#X connect 9 1 3 0;
#X connect 9 2 11 0;
#X connect 9 3 7 0;
#X connect 10 0 9 0;
#X connect 11 0 1 0;
#X connect 11 0 8 0;
#X connect 13 0 14 0;
#X connect 13 1 14 1;
#X connect 14 0 15 0;
#X connect 15 0 12 0;
#X restore -418 109 pd load;
#X msg 128 47 3;
#X msg -384 46 3;
#X obj 59 66 f;
#X connect 0 0 6 0;
#X connect 1 0 3 0;
#X connect 1 0 6 0;
#X connect 4 0 2 0;
#X connect 5 0 3 0;
#X connect 6 0 2 0;
#X restore 797 401 pd presets2;
#X obj 35 280 *~ 1;
#X obj 349 265 r \$1-volume;
#X obj 671 383 hradio 15 1 0 12 empty empty empty 0 -8 0 10 -262144
-1 -1 10;
#X obj 859 380 bng 15 250 50 0 empty empty empty 17 7 0 10 -262144
-1 -1;
#X text 879 376 save;
#X obj 861 193 vradio 15 1 0 12 empty empty empty 0 -8 0 10 -262144
-1 -1 10;
#N canvas 0 22 730 503 osc 0;
#X obj 44 41 mrpeach/unpackOSC;
#X obj 20 104 mrpeach/routeOSC /presets;
#X obj 40 11 r oscrecvdood;
#X obj 44 70 mrpeach/routeOSC /\$1;
#X obj 22 134 mrpeach/routeOSC /1 /2 /3 /4 /5 /6 /7 /8 /9 /10 /11 /12
;
#X obj 47 260 s \$1-preset;
#X msg 13 163 0;
#X msg 42 165 1;
#X msg 67 164 2;
#X msg 91 164 3;
#X msg 115 164 4;
#X msg 141 164 5;
#X msg 168 164 6;
#X msg 192 164 7;
#X msg 215 164 8;
#X msg 240 163 9;
#X msg 265 163 10;
#X msg 289 164 11;
#X obj 197 102 mrpeach/routeOSC /sliders;
#X obj 279 354 s \$1s1;
#X obj 324 354 s \$1s2;
#X obj 368 354 s \$1s3;
#X obj 413 354 s \$1s4;
#X obj 457 354 s \$1s5;
#X obj 502 354 s \$1s6;
#X obj 546 354 s \$1s7;
#X obj 591 354 s \$1s8;
#X obj 279 332 * 127;
#X obj 324 332 * 127;
#X obj 368 332 * 127;
#X obj 413 332 * 127;
#X obj 457 332 * 127;
#X obj 502 332 * 127;
#X obj 547 332 * 127;
#X obj 591 332 * 127;
#X obj 26 461 s oscsenddood;
#X obj 29 316 r \$1-sliderline;
#X obj 39 428 mrpeach/packOSC;
#X obj 40 337 unpack f f;
#X obj 45 385 pack f f \$1;
#X obj 180 386 print;
#X msg 44 402 send /\$3/sliders/slider\$1 \$2;
#X obj 78 363 / 127;
#X obj 362 132 mrpeach/routeOSC /slider1 /slider2 /slider3 /slider4
/slider5 /slider6 /slider7 /slider8 /slider9 /slider10 /slider11 /slider12
/slider13 /slider14 /slider15 /slider16;
#X obj 364 274 * 127;
#X obj 409 274 * 127;
#X obj 453 274 * 127;
#X obj 498 274 * 127;
#X obj 542 274 * 127;
#X obj 587 274 * 127;
#X obj 632 274 * 127;
#X obj 676 274 * 127;
#X obj 364 296 s \$1s9;
#X obj 409 296 s \$1s10;
#X obj 453 296 s \$1s11;
#X obj 500 296 s \$1s12;
#X obj 542 296 s \$1s13;
#X obj 588 296 s \$1s14;
#X obj 632 296 s \$1s15;
#X obj 677 296 s \$1s16;
#X connect 0 0 3 0;
#X connect 1 0 4 0;
#X connect 2 0 0 0;
#X connect 3 0 1 0;
#X connect 3 0 18 0;
#X connect 4 0 6 0;
#X connect 4 1 7 0;
#X connect 4 2 8 0;
#X connect 4 3 9 0;
#X connect 4 4 10 0;
#X connect 4 5 11 0;
#X connect 4 6 12 0;
#X connect 4 7 13 0;
#X connect 4 8 14 0;
#X connect 4 9 15 0;
#X connect 4 10 16 0;
#X connect 4 11 17 0;
#X connect 6 0 5 0;
#X connect 7 0 5 0;
#X connect 8 0 5 0;
#X connect 9 0 5 0;
#X connect 10 0 5 0;
#X connect 11 0 5 0;
#X connect 12 0 5 0;
#X connect 13 0 5 0;
#X connect 14 0 5 0;
#X connect 15 0 5 0;
#X connect 16 0 5 0;
#X connect 17 0 5 0;
#X connect 18 0 43 0;
#X connect 27 0 19 0;
#X connect 28 0 20 0;
#X connect 29 0 21 0;
#X connect 30 0 22 0;
#X connect 31 0 23 0;
#X connect 32 0 24 0;
#X connect 33 0 25 0;
#X connect 34 0 26 0;
#X connect 36 0 38 0;
#X connect 38 0 39 0;
#X connect 38 1 42 0;
#X connect 39 0 41 0;
#X connect 41 0 37 0;
#X connect 41 0 40 0;
#X connect 42 0 39 1;
#X connect 43 0 27 0;
#X connect 43 1 28 0;
#X connect 43 2 29 0;
#X connect 43 3 30 0;
#X connect 43 4 31 0;
#X connect 43 5 32 0;
#X connect 43 6 33 0;
#X connect 43 7 34 0;
#X connect 43 8 44 0;
#X connect 43 9 45 0;
#X connect 43 10 46 0;
#X connect 43 11 47 0;
#X connect 43 12 48 0;
#X connect 43 13 49 0;
#X connect 43 14 50 0;
#X connect 43 15 51 0;
#X connect 44 0 52 0;
#X connect 45 0 53 0;
#X connect 46 0 54 0;
#X connect 47 0 55 0;
#X connect 48 0 56 0;
#X connect 49 0 57 0;
#X connect 50 0 58 0;
#X connect 51 0 59 0;
#X restore 524 111 pd osc;
#X obj 674 363 r \$1-preset;
#X obj 763 340 loadbang;
#X obj 766 362 6;
#X obj 32 226 effectdistortion \$1;
#X obj -15 91 synth2 \$1;
#X obj 43 92 synth2 \$1;
#X obj 100 92 synth2 \$1;
#X obj 157 93 synth2 \$1;
#X obj 391 95 synth2 \$1;
#X obj 218 93 synth2 \$1;
#X obj 277 94 synth2 \$1;
#X obj 334 94 synth2 \$1;
#X connect 0 0 11 0;
#X connect 1 0 2 0;
#X connect 2 0 0 0;
#X connect 3 0 15 0;
#X connect 4 0 5 0;
#X connect 5 0 6 0;
#X connect 6 0 25 0;
#X connect 8 0 4 0;
#X connect 9 0 26 0;
#X connect 9 1 27 0;
#X connect 9 2 28 0;
#X connect 9 3 29 0;
#X connect 9 4 31 0;
#X connect 9 5 32 0;
#X connect 9 6 33 0;
#X connect 9 7 30 0;
#X connect 10 0 13 0;
#X connect 12 0 9 0;
#X connect 13 0 12 0;
#X connect 13 1 12 1;
#X connect 13 2 12 2;
#X connect 15 0 1 0;
#X connect 16 0 15 1;
#X connect 17 0 14 0;
#X connect 18 0 14 1;
#X connect 20 0 14 1;
#X connect 22 0 17 0;
#X connect 23 0 24 0;
#X connect 24 0 17 0;
#X connect 25 0 3 0;
#X connect 26 0 8 1;
#X connect 27 0 8 0;
#X connect 28 0 8 0;
#X connect 29 0 8 0;
#X connect 30 0 8 1;
#X connect 31 0 8 1;
#X connect 32 0 8 1;
#X connect 33 0 8 1;
