#N canvas 35 234 945 446 10;
#X obj 37 336 dac~;
#X obj 36 305 +~;
#X obj 373 30 hsl 128 15 0 127 0 0 empty empty empty -2 -8 0 10 -262144
-1 -1 5700 1;
#X obj 346 57 s synth1-pitch;
#X floatatom 442 57 5 0 0 0 - - -;
#X obj 371 79 hsl 128 15 0 127 0 0 empty empty empty -2 -8 0 10 -262144
-1 -1 0 1;
#X obj 344 106 s synth1-pitch;
#X floatatom 440 106 5 0 0 0 - - -;
#X obj 370 132 hsl 128 15 0 127 0 0 empty empty empty -2 -8 0 10 -262144
-1 -1 0 1;
#X obj 343 159 s synth1-pitch;
#X floatatom 439 159 5 0 0 0 - - -;
#X obj 222 31 bng 15 250 50 0 empty empty empty 17 7 0 10 -262144 -1
-1;
#X obj 219 84 bng 15 250 50 0 empty empty empty 17 7 0 10 -262144 -1
-1;
#X obj 224 56 s synth1-noteon;
#X obj 220 106 s synth1-noteoff;
#X obj 247 216 s synth1-sawtooth;
#X obj 360 207 s synth1-sinewave;
#X obj 473 206 s synth1-square;
#X msg 265 192 1;
#X msg 296 192 0;
#X obj 36 29 synth synth1;
#X obj 607 43 hsl 128 15 0 127 0 0 empty empty empty -2 -8 0 10 -262144
-1 -1 0 1;
#X obj 604 60 / 127;
#X obj 642 63 * 1000;
#X obj 762 337 hsl 128 15 0 127 0 0 empty empty empty -2 -8 0 10 -262144
-1 -1 1500 1;
#X obj 759 354 / 127;
#X obj 762 277 hsl 128 15 0 127 0 0 empty empty empty -2 -8 0 10 -262144
-1 -1 2500 1;
#X obj 759 294 / 127;
#X msg 355 179 1;
#X msg 386 179 0;
#X msg 451 178 1;
#X msg 482 178 0;
#X obj 36 252 effectdelay \$1-d 44100;
#X obj 36 274 effectdelay \$1-r 4410;
#X obj 750 43 hsl 128 15 0 127 0 0 empty empty empty -2 -8 0 10 -262144
-1 -1 0 1;
#X obj 747 60 / 127;
#X obj 785 63 * 1000;
#X obj 750 161 hsl 128 15 0 127 0 0 empty empty empty -2 -8 0 10 -262144
-1 -1 0 1;
#X obj 747 178 / 127;
#X obj 750 101 hsl 128 15 0 127 0 0 empty empty empty -2 -8 0 10 -262144
-1 -1 0 1;
#X obj 747 118 / 127;
#X text 749 27 delay;
#X obj 747 79 s \$1-d-delay-time;
#X obj 747 137 s \$1-d-delay-mix;
#X obj 747 197 s \$1-d-delay-feedback;
#X text 607 27 relay;
#X obj 604 79 s \$1-r-delay-time;
#X obj 607 161 hsl 128 15 0 127 0 0 empty empty empty -2 -8 0 10 -262144
-1 -1 0 1;
#X obj 604 178 / 127;
#X obj 607 101 hsl 128 15 0 127 0 0 empty empty empty -2 -8 0 10 -262144
-1 -1 0 1;
#X obj 604 118 / 127;
#X obj 604 137 s \$1-r-delay-mix;
#X obj 604 197 s \$1-r-delay-feedback;
#X text 767 257 bitcrush;
#X obj 759 313 s \$1-bitcrush-dist;
#X obj 757 374 s \$1-bitcrush-depth;
#X obj 833 353 + 1;
#X obj 799 354 * 31;
#X obj 36 229 effectbitcrush \$1;
#X obj 49 87 effecthighpass \$1;
#X obj 49 113 effectlowpass \$1;
#X connect 1 0 0 0;
#X connect 1 0 0 1;
#X connect 2 0 3 0;
#X connect 2 0 4 0;
#X connect 5 0 6 0;
#X connect 5 0 7 0;
#X connect 8 0 9 0;
#X connect 8 0 10 0;
#X connect 11 0 13 0;
#X connect 12 0 14 0;
#X connect 18 0 15 0;
#X connect 19 0 15 0;
#X connect 20 0 58 0;
#X connect 21 0 22 0;
#X connect 22 0 23 0;
#X connect 23 0 46 0;
#X connect 24 0 25 0;
#X connect 25 0 57 0;
#X connect 26 0 27 0;
#X connect 27 0 54 0;
#X connect 28 0 16 0;
#X connect 29 0 16 0;
#X connect 30 0 17 0;
#X connect 31 0 17 0;
#X connect 32 0 33 0;
#X connect 33 0 1 0;
#X connect 34 0 35 0;
#X connect 35 0 36 0;
#X connect 36 0 42 0;
#X connect 37 0 38 0;
#X connect 38 0 44 0;
#X connect 39 0 40 0;
#X connect 40 0 43 0;
#X connect 47 0 48 0;
#X connect 48 0 52 0;
#X connect 49 0 50 0;
#X connect 50 0 51 0;
#X connect 56 0 55 0;
#X connect 57 0 56 0;
#X connect 58 0 32 0;
