#N canvas 161 261 945 446 10;
#X obj 30 378 +~;
#X obj 34 325 effectdelay \$1-d 44100;
#X obj 34 347 effectdelay \$1-r 4410;
#X obj 34 151 effecthighpass \$1;
#X obj 34 179 effectlowpass \$1;
#X obj 68 203 effectmoogpass \$1;
#N canvas 656 22 542 631 controls 0;
#N canvas 235 259 547 452 synthparams 0;
#X obj -28 194 / 10;
#X obj 12 213 / 80;
#X obj 10 38 vsl 15 128 0 127 0 0 empty empty empty 0 -9 0 10 -262144
-1 -1 0 1;
#X obj 27 38 vsl 15 128 0 127 0 0 empty empty empty 0 -9 0 10 -262144
-1 -1 0 1;
#X obj 90 38 vsl 15 128 0 127 0 0 empty empty empty 0 -9 0 10 -262144
-1 -1 0 1;
#X obj 108 38 vsl 15 128 0 127 0 0 empty empty empty 0 -9 0 10 -262144
-1 -1 0 1;
#X obj 46 92 vradio 15 1 0 5 empty empty empty 0 -8 0 10 -262144 -1
-1 3;
#X obj 197 92 vradio 15 1 0 5 empty empty empty 0 -8 0 10 -262144 -1
-1 3;
#X obj 126 92 vradio 15 1 0 5 empty empty empty 0 -8 0 10 -262144 -1
-1 0;
#X obj 126 214 / 127;
#X obj 98 210 / 5;
#X obj 234 38 vsl 15 128 0 127 0 0 empty empty empty 0 -9 0 10 -262144
-1 -1 11600 1;
#X obj 213 212 / 127;
#X obj 215 92 vradio 15 1 0 5 empty empty empty 0 -8 0 10 -262144 -1
-1 0;
#X obj -3 253 s \$1-synth-vibrato-speed;
#X obj 29 273 s \$1-synth-vibrato-depth;
#X obj 18 291 s \$1-synth-vibrato-waveform;
#X obj 71 311 s \$1-synth-waveform;
#X obj 89 331 s \$1-synth-tremolo-speed;
#X obj 197 308 s \$1-synth-tremolo-depth;
#X obj 200 288 s \$1-synth-tremolo-waveform;
#X obj 207 267 s \$1-synth-suboctave-waveform;
#X obj 218 247 s \$1-synth-suboctave-mix;
#X obj -4 -80 r \$1p1;
#X obj 46 -77 r \$1p2;
#X obj 56 -60 r \$1p3;
#X obj 67 -40 r \$1p4;
#X obj 109 -83 r \$1p5;
#X obj 155 -82 r \$1p6;
#X obj 166 -56 r \$1p7;
#X obj 173 -33 r \$1p8;
#X obj 216 -80 r \$1p9;
#X obj -22 175 sp \$1 1;
#X obj 7 192 sp \$1 2;
#X obj 32 175 sp \$1 3;
#X obj 60 191 sp \$1 4;
#X obj 91 172 sp \$1 5;
#X obj 124 194 sp \$1 6;
#X obj 152 175 sp \$1 7;
#X obj 165 216 sp \$1 8;
#X obj 214 192 sp \$1 9;
#X obj -4 -101 r \$1s7;
#X obj 42 -100 r \$1s8;
#X obj 107 -102 r \$1s9;
#X obj 152 -101 r \$1s10;
#X obj -29 226 ss \$1 7;
#X obj 24 232 ss \$1 8;
#X obj 86 231 ss \$1 9;
#X obj 135 234 ss \$1 10;
#X text 182 78 sub wave;
#X text 170 66 main wave;
#X text 3 20 tremolo;
#X text 82 19 vibrato;
#X text 227 20 sub;
#X obj 144 38 vsl 15 128 0 127 0 0 empty empty empty 0 -9 0 10 -262144
-1 -1 0 1;
#X obj 309 174 sp \$1 35;
#X obj 305 -50 r \$1p35;
#X obj 280 191 / 127;
#X obj 305 209 s \$1-synth-tremolo-waveform-x;
#X obj 9 4 hsl 128 15 0 127 0 0 empty empty empty -2 -8 0 10 -262144
-1 -1 12700 1;
#X text 144 3 pre volume;
#X obj 320 26 s \$1-synth-volume;
#X obj 280 23 / 127;
#X obj 307 -20 r \$1p44;
#X obj 308 4 sp \$1 44;
#X connect 0 0 14 0;
#X connect 1 0 15 0;
#X connect 2 0 0 0;
#X connect 2 0 32 0;
#X connect 2 0 45 0;
#X connect 3 0 1 0;
#X connect 3 0 33 0;
#X connect 3 0 46 0;
#X connect 4 0 10 0;
#X connect 4 0 36 0;
#X connect 4 0 47 0;
#X connect 5 0 9 0;
#X connect 5 0 37 0;
#X connect 5 0 48 0;
#X connect 6 0 16 0;
#X connect 6 0 34 0;
#X connect 7 0 17 0;
#X connect 7 0 35 0;
#X connect 8 0 20 0;
#X connect 8 0 38 0;
#X connect 9 0 19 0;
#X connect 10 0 18 0;
#X connect 11 0 12 0;
#X connect 11 0 40 0;
#X connect 12 0 22 0;
#X connect 13 0 21 0;
#X connect 13 0 39 0;
#X connect 23 0 2 0;
#X connect 24 0 3 0;
#X connect 25 0 6 0;
#X connect 26 0 7 0;
#X connect 27 0 4 0;
#X connect 28 0 5 0;
#X connect 29 0 8 0;
#X connect 30 0 13 0;
#X connect 31 0 11 0;
#X connect 41 0 2 0;
#X connect 42 0 3 0;
#X connect 43 0 4 0;
#X connect 44 0 5 0;
#X connect 54 0 55 0;
#X connect 54 0 57 0;
#X connect 56 0 54 0;
#X connect 57 0 58 0;
#X connect 59 0 62 0;
#X connect 59 0 64 0;
#X connect 62 0 61 0;
#X connect 63 0 59 0;
#X coords 0 0 1 1 250 170 2 0 0;
#X restore -21 82 pd synthparams;
#N canvas 0 23 608 313 filters 0;
#X obj 114 123 hsl 128 15 0 127 0 0 empty empty empty -2 -8 0 10 -262130
-1 -1 3900 1;
#X floatatom 399 125 5 0 0 0 - - -;
#X obj 114 103 hsl 128 15 0 127 0 0 empty empty empty -2 -8 0 10 -262130
-1 -1 6200 1;
#X floatatom 399 99 5 0 0 0 - - -;
#X obj 366 124 / 30;
#X obj 106 255 hsl 128 15 0 127 0 0 empty empty empty -2 -8 0 10 -262130
-1 -1 12700 1;
#X floatatom 391 257 5 0 0 0 - - -;
#X obj 106 235 hsl 128 15 0 127 0 0 empty empty empty -2 -8 0 10 -262130
-1 -1 0 1;
#X floatatom 390 233 5 0 0 0 - - -;
#X obj 436 100 s \$1-moog-cutoff;
#X obj 432 125 s \$1-moog-q;
#X obj 426 235 s \$1-hip-cutoff;
#X obj 425 257 s \$1-lop-cutoff;
#X obj 7 68 r \$1p18;
#X obj 6 120 r \$1p19;
#X obj -6 233 r \$1p20;
#X obj -6 254 r \$1p21;
#X obj 55 122 sp \$1 19;
#X obj 8 101 r \$1s1;
#X obj 57 70 sp \$1 18;
#X obj 44 234 sp \$1 20;
#X obj 44 254 sp \$1 21;
#X obj 54 102 ss \$1 1;
#X obj 6 47 r \$1s2;
#X obj 55 44 ss \$1 2;
#X obj 358 256 mtof;
#X obj 356 235 mtof;
#X floatatom 238 255 8 0 0 0 - - -;
#X floatatom 239 235 8 0 0 0 - - -;
#X floatatom 247 123 8 0 0 0 - - -;
#X floatatom 248 103 8 0 0 0 - - -;
#X text 302 102 moog cut;
#X text 301 125 moog Q;
#X text 292 236 highpass;
#X text 291 255 lowpass;
#X obj 365 102 + 0;
#X text 118 136 Moog Cut Vibrato;
#X text 114 182 Moog Q Vibrato;
#X obj 103 196 vibratoeffectview \$1-moog-q 40 41 42 43;
#X obj 103 150 vibratoeffectview \$1-moog-cut 36 37 38 39;
#X connect 0 0 4 0;
#X connect 0 0 17 0;
#X connect 0 0 22 0;
#X connect 2 0 19 0;
#X connect 2 0 24 0;
#X connect 2 0 35 0;
#X connect 4 0 1 0;
#X connect 4 0 10 0;
#X connect 4 0 29 0;
#X connect 5 0 21 0;
#X connect 5 0 25 0;
#X connect 7 0 20 0;
#X connect 7 0 26 0;
#X connect 13 0 2 0;
#X connect 14 0 0 0;
#X connect 15 0 7 0;
#X connect 16 0 5 0;
#X connect 18 0 0 0;
#X connect 23 0 2 0;
#X connect 25 0 6 0;
#X connect 25 0 12 0;
#X connect 25 0 27 0;
#X connect 26 0 8 0;
#X connect 26 0 11 0;
#X connect 26 0 28 0;
#X connect 35 0 3 0;
#X connect 35 0 9 0;
#X connect 35 0 30 0;
#X coords 0 -1 1 1 250 180 2 100 100;
#X restore 234 26 pd filters;
#N canvas 471 127 681 565 distortions 0;
#X obj 106 135 hsl 128 15 0 127 0 0 empty empty empty -2 -8 0 10 -204786
-1 -1 12700 1;
#X obj 347 108 / 127;
#X obj 106 116 hsl 128 15 0 127 0 0 empty empty empty -2 -8 0 10 -204786
-1 -1 0 1;
#X obj 346 66 / 127;
#X text 102 99 bitcrush;
#X obj 346 85 s \$1-bitcrush-dist;
#X obj 345 128 s \$1-bitcrush-depth;
#X obj -50 38 r \$1p28;
#X obj -50 97 r \$1p29;
#X obj -48 67 sp \$1 28;
#X obj -48 119 sp \$1 29;
#X obj 106 208 hsl 128 15 0 127 0 0 empty empty empty -2 -8 0 10 -204786
-1 -1 0 1;
#X obj 335 253 / 127;
#X obj 106 189 hsl 128 15 0 127 0 0 empty empty empty -2 -8 0 10 -204786
-1 -1 400 1;
#X obj -38 210 r \$1p30;
#X obj -36 232 sp \$1 30;
#X obj -39 253 r \$1p31;
#X obj -37 276 sp \$1 31;
#X obj 333 230 s \$1-dist;
#X obj 333 273 s \$1-distwrap;
#X text 101 174 distortion;
#X obj 332 208 / 30;
#X obj 369 208 + 1;
#X obj -92 38 r \$1s4;
#X obj -95 67 ss \$1 4;
#X obj -91 95 r \$1s5;
#X obj -96 121 ss \$1 5;
#X obj -80 208 r \$1s6;
#X obj -85 232 ss \$1 6;
#X text 241 113 amount;
#X text 240 133 depth;
#X text 239 186 amount;
#X text 240 208 wrap;
#X obj 106 255 hsl 128 15 0 127 0 0 empty empty empty -2 -8 0 10 -204786
-1 -1 12700 1;
#X obj 106 236 hsl 128 15 0 127 0 0 empty empty empty -2 -8 0 10 -204786
-1 -1 1900 1;
#X text 100 222 fuzz;
#X obj 329 369 s \$1-fuzz-dist;
#X obj 360 393 s \$1-fuzz-cutoff;
#X obj -83 374 r \$1p32;
#X obj -31 373 sp \$1 32;
#X obj -31 397 sp \$1 33;
#X obj -80 398 r \$1p33;
#X obj -80 423 r \$1p34;
#X obj -31 423 sp \$1 34;
#X obj 106 275 hsl 128 15 0 127 0 0 empty empty empty -2 -8 0 10 -204786
-1 -1 800 1;
#X text 241 275 mix;
#X text 239 233 fuzz;
#X text 240 254 cutoff;
#X obj 321 417 / 127;
#X obj 362 418 s \$1-fuzz-mix;
#X obj 333 345 + 1;
#X obj 357 346 / 6;
#X obj 384 349 pow 1.6;
#X obj 292 394 + 13;
#X obj 327 394 mtof;
#X obj -96 168 r \$1p45;
#X obj -44 167 sp \$1 45;
#X obj 106 154 hsl 128 15 0 127 0 0 empty empty empty -2 -8 0 10 -204786
-1 -1 12700 1;
#X text 239 152 sample;
#X obj 341 151 / 127;
#X obj 346 176 s \$1-bitcrush-samplerate;
#X connect 0 0 1 0;
#X connect 0 0 10 0;
#X connect 0 0 26 0;
#X connect 1 0 6 0;
#X connect 2 0 3 0;
#X connect 2 0 9 0;
#X connect 2 0 24 0;
#X connect 3 0 5 0;
#X connect 7 0 2 0;
#X connect 8 0 0 0;
#X connect 11 0 12 0;
#X connect 11 0 17 0;
#X connect 12 0 19 0;
#X connect 13 0 15 0;
#X connect 13 0 21 0;
#X connect 13 0 28 0;
#X connect 14 0 13 0;
#X connect 16 0 11 0;
#X connect 21 0 22 0;
#X connect 22 0 18 0;
#X connect 23 0 2 0;
#X connect 25 0 0 0;
#X connect 27 0 13 0;
#X connect 33 0 40 0;
#X connect 33 0 53 0;
#X connect 34 0 39 0;
#X connect 34 0 52 0;
#X connect 38 0 34 0;
#X connect 41 0 33 0;
#X connect 42 0 44 0;
#X connect 44 0 43 0;
#X connect 44 0 48 0;
#X connect 48 0 49 0;
#X connect 50 0 36 0;
#X connect 51 0 50 0;
#X connect 52 0 51 0;
#X connect 53 0 54 0;
#X connect 54 0 37 0;
#X connect 55 0 57 0;
#X connect 57 0 56 0;
#X connect 57 0 59 0;
#X connect 59 0 60 0;
#X coords 0 -1 1 1 180 200 2 100 100;
#X restore 234 209 pd distortions;
#N canvas 0 22 727 577 delayverb 0;
#X obj 105 190 hsl 128 15 0 127 0 0 empty empty empty -2 -8 0 10 -204800
-1 -1 0 1;
#X obj 410 209 / 127;
#X obj 448 212 * 1000;
#X obj 106 128 hsl 128 15 0 127 0 0 empty empty empty -2 -8 0 10 -204800
-1 -1 2300 1;
#X obj 397 41 / 127;
#X obj 435 44 * 1000;
#X obj 106 165 hsl 128 15 0 127 0 0 empty empty empty -2 -8 0 10 -204800
-1 -1 0 1;
#X obj 404 138 / 127;
#X obj 106 147 hsl 128 15 0 127 0 0 empty empty empty -2 -8 0 10 -204800
-1 -1 0 1;
#X obj 406 95 / 127;
#X text 105 112 delay;
#X obj 397 60 s \$1-d-delay-time;
#X obj 406 114 s \$1-d-delay-mix;
#X obj 404 157 s \$1-d-delay-feedback;
#X obj 410 228 s \$1-r-delay-time;
#X obj 105 226 hsl 128 15 0 127 0 0 empty empty empty -2 -8 0 10 -204800
-1 -1 0 1;
#X obj 455 355 / 127;
#X obj 105 208 hsl 128 15 0 127 0 0 empty empty empty -2 -8 0 10 -204800
-1 -1 0 1;
#X obj 413 290 / 127;
#X obj 413 309 s \$1-r-delay-mix;
#X obj 455 374 s \$1-r-delay-feedback;
#X obj -41 216 r \$1p22;
#X obj -39 279 r \$1p23;
#X obj -39 338 r \$1p24;
#X obj -40 40 r \$1p25;
#X obj -38 96 r \$1p26;
#X obj -38 155 r \$1p27;
#X obj -39 245 sp \$1 22;
#X obj -38 308 sp \$1 23;
#X obj -37 367 sp \$1 24;
#X obj -38 69 sp \$1 25;
#X obj -37 125 sp \$1 26;
#X obj -35 184 sp \$1 27;
#X text 105 174 reverb;
#X obj -86 337 r \$1s16;
#X obj -91 370 ss \$1 16;
#X obj -92 313 ss \$1 15;
#X obj -87 280 r \$1s15;
#X obj -92 244 ss \$1 14;
#X obj -88 211 r \$1s14;
#X obj -91 187 ss \$1 13;
#X obj -86 155 r \$1s13;
#X obj -90 127 ss \$1 12;
#X obj -85 94 r \$1s12;
#X obj -85 60 ss \$1 11;
#X obj -81 28 r \$1s11;
#X floatatom 238 226 8 0 0 0 - - -;
#X floatatom 238 208 8 0 0 0 - - -;
#X floatatom 238 189 8 0 0 0 - - -;
#X floatatom 239 165 8 0 0 0 - - -;
#X floatatom 239 147 8 0 0 0 - - -;
#X floatatom 239 129 8 0 0 0 - - -;
#X text 292 127 time;
#X text 291 147 mix;
#X text 290 167 fback;
#X text 290 189 time;
#X text 290 207 mix;
#X text 283 227 fbac;
#X connect 0 0 1 0;
#X connect 0 0 27 0;
#X connect 0 0 38 0;
#X connect 1 0 2 0;
#X connect 1 0 48 0;
#X connect 2 0 14 0;
#X connect 3 0 4 0;
#X connect 3 0 30 0;
#X connect 3 0 44 0;
#X connect 4 0 5 0;
#X connect 5 0 11 0;
#X connect 5 0 51 0;
#X connect 6 0 7 0;
#X connect 6 0 32 0;
#X connect 6 0 40 0;
#X connect 7 0 13 0;
#X connect 7 0 49 0;
#X connect 8 0 9 0;
#X connect 8 0 31 0;
#X connect 8 0 42 0;
#X connect 9 0 12 0;
#X connect 9 0 50 0;
#X connect 15 0 16 0;
#X connect 15 0 29 0;
#X connect 15 0 35 0;
#X connect 16 0 20 0;
#X connect 16 0 46 0;
#X connect 17 0 18 0;
#X connect 17 0 28 0;
#X connect 17 0 36 0;
#X connect 18 0 19 0;
#X connect 18 0 47 0;
#X connect 21 0 0 0;
#X connect 22 0 17 0;
#X connect 23 0 15 0;
#X connect 24 0 3 0;
#X connect 25 0 8 0;
#X connect 26 0 6 0;
#X connect 34 0 15 0;
#X connect 37 0 17 0;
#X connect 39 0 0 0;
#X connect 41 0 6 0;
#X connect 43 0 8 0;
#X connect 45 0 3 0;
#X coords 0 -1 1 1 230 150 2 100 100;
#X restore 232 411 pd delayverb;
#N canvas 0 22 450 300 volume 0;
#X obj 106 119 hsl 128 15 0 127 0 0 empty empty empty -2 -8 0 10 -262144
-1 -1 12700 1;
#X floatatom 240 118 5 0 0 0 - - -;
#X obj 363 119 s \$1-volume;
#X obj 291 119 / 127;
#X obj -1 117 r \$1p0;
#X obj 49 118 sp \$1 0;
#X obj 56 97 ss \$1 3;
#X obj 6 97 r \$1s3;
#X connect 0 0 3 0;
#X connect 0 0 5 0;
#X connect 0 0 6 0;
#X connect 3 0 1 0;
#X connect 3 0 2 0;
#X connect 4 0 0 0;
#X connect 7 0 0 0;
#X coords 0 -1 1 1 180 40 1 100 100;
#X restore -19 26 pd volume;
#N canvas 0 22 418 325 preset 0;
#X obj 104 110 hradio 15 1 0 12 empty empty empty 0 -8 0 10 -262144
-1 -1 6;
#X obj 292 107 bng 15 250 50 0 empty empty empty 17 7 0 10 -262144
-1 -1;
#X text 312 103 save;
#X obj 290 -79 vradio 15 1 0 12 empty empty empty 0 -8 0 10 -262144
-1 -1 0;
#X obj 196 67 loadbang;
#X obj 199 89 6;
#X obj 105 135 s \$1-preset;
#X obj 292 134 s \$1-save;
#X connect 0 0 6 0;
#X connect 1 0 7 0;
#X connect 4 0 5 0;
#X connect 5 0 0 0;
#X coords 0 -1 1 1 250 30 2 100 100;
#X restore 225 564 pd preset;
#N canvas 167 212 716 459 volenv 0;
#X obj 514 89 s \$1-adsr-attack-amp;
#X obj 514 108 s \$1-adsr-attack-time;
#X obj 514 127 s \$1-adsr-decay-amp;
#X obj 516 146 s \$1-adsr-decay-time;
#X obj 515 165 s \$1-adsr-sustain-amp;
#X obj 515 186 s \$1-adsr-sustain-time;
#X obj 516 208 s \$1-adsr-release-amp;
#X obj 516 229 s \$1-adsr-release-time;
#X obj 434 90 / 127;
#X obj 435 129 / 127;
#X obj 435 168 / 127;
#X obj 436 210 / 127;
#X obj 105 119 hsl 128 15 0 127 0 0 empty empty empty -2 -8 0 10 -203904
-1 -1 11800 1;
#X obj -3 85 r \$1p10;
#X obj 105 170 hsl 128 15 0 127 0 0 empty empty empty -2 -8 0 10 -232576
-1 -1 300 1;
#X obj 105 136 hsl 128 15 0 127 0 0 empty empty empty -2 -8 0 10 -232576
-1 -1 0 1;
#X obj 105 188 hsl 128 15 0 127 0 0 empty empty empty -2 -8 0 10 -203904
-1 -1 12700 1;
#X obj 105 102 hsl 128 15 0 127 0 0 empty empty empty -2 -8 0 10 -232576
-1 -1 300 1;
#X obj 105 154 hsl 128 15 0 127 0 0 empty empty empty -2 -8 0 10 -203904
-1 -1 12700 1;
#X obj 105 222 hsl 128 15 0 127 0 0 empty empty empty -2 -8 0 10 -203904
-1 -1 0 1;
#X obj 105 204 hsl 128 15 0 127 0 0 empty empty empty -2 -8 0 10 -232576
-1 -1 1100 1;
#X obj -1 107 r \$1p11;
#X obj -7 126 r \$1p12;
#X obj -10 145 r \$1p13;
#X obj -8 167 r \$1p14;
#X obj -5 186 r \$1p15;
#X obj -5 205 r \$1p16;
#X obj -8 222 r \$1p17;
#X obj 47 86 sp \$1 10;
#X obj 48 108 sp \$1 11;
#X obj 43 127 sp \$1 12;
#X obj 40 146 sp \$1 13;
#X obj 43 168 sp \$1 14;
#X obj 45 187 sp \$1 15;
#X obj 45 205 sp \$1 16;
#X obj 42 223 sp \$1 17;
#X obj 443 228 mtof;
#X floatatom 238 205 5 0 0 0 - - -;
#X obj 447 110 mtof;
#X floatatom 237 102 5 0 0 0 - - -;
#X obj 446 148 mtof;
#X floatatom 237 137 5 0 0 0 - - -;
#X obj 442 189 mtof;
#X floatatom 238 171 5 0 0 0 - - -;
#X text 321 101 attack amp;
#X text 322 138 decay amp;
#X text 322 189 sustain time;
#X text 322 220 release time;
#X text 237 154 decay;
#X text 238 118 attack;
#X text 237 221 release;
#X text 240 187 sustain;
#X connect 8 0 0 0;
#X connect 9 0 2 0;
#X connect 10 0 4 0;
#X connect 11 0 6 0;
#X connect 12 0 8 0;
#X connect 12 0 28 0;
#X connect 13 0 12 0;
#X connect 14 0 33 0;
#X connect 14 0 42 0;
#X connect 15 0 31 0;
#X connect 15 0 40 0;
#X connect 16 0 10 0;
#X connect 16 0 32 0;
#X connect 17 0 29 0;
#X connect 17 0 38 0;
#X connect 18 0 9 0;
#X connect 18 0 30 0;
#X connect 19 0 11 0;
#X connect 19 0 34 0;
#X connect 20 0 35 0;
#X connect 20 0 36 0;
#X connect 21 0 17 0;
#X connect 22 0 18 0;
#X connect 23 0 15 0;
#X connect 24 0 16 0;
#X connect 25 0 14 0;
#X connect 26 0 19 0;
#X connect 27 0 20 0;
#X connect 36 0 7 0;
#X connect 36 0 37 0;
#X connect 38 0 1 0;
#X connect 38 0 39 0;
#X connect 40 0 3 0;
#X connect 40 0 41 0;
#X connect 42 0 5 0;
#X connect 42 0 43 0;
#X coords 0 -1 1 1 240 140 1 100 100;
#X restore -21 256 pd volenv;
#X restore 539 15 pd controls;
#X obj 72 134 +~;
#X obj 78 62 route 1 2 3 4 5 6 7 8;
#X obj 77 -5 inlet;
#X obj 22 419 outlet~;
#X obj 80 38 pack f f f;
#X obj 75 16 poly 8 0;
#N canvas 12 22 616 152 presets2 0;
#X obj 66 7 inlet;
#X obj -382 2 inlet;
#N canvas 208 74 1009 726 save 0;
#X obj -205 495 textfile;
#X msg -492 279 write presets/preset-\$1.txt;
#X msg -301 279 add param \$1 \$2;
#X obj 66 7 inlet;
#X obj 51 32 t f b b;
#X obj -301 232 r \$1-presetline;
#X msg 329 254 clear;
#X obj -34 179 0;
#X obj -32 205 + 1;
#X obj -31 230 moses 50;
#X msg -35 150 0;
#X obj -105 203 pack f \$1;
#X msg -119 228 \; \$2p\$1 bang \;;
#X obj 34 145 print SAVING:;
#X connect 1 0 0 0;
#X connect 2 0 0 0;
#X connect 3 0 4 0;
#X connect 3 0 13 0;
#X connect 4 0 1 0;
#X connect 4 1 10 0;
#X connect 4 2 6 0;
#X connect 5 0 2 0;
#X connect 6 0 0 0;
#X connect 7 0 8 0;
#X connect 7 0 11 0;
#X connect 8 0 9 0;
#X connect 9 0 7 0;
#X connect 10 0 7 0;
#X connect 11 0 12 0;
#X restore 76 114 pd save;
#N canvas 0 22 806 756 load 0;
#X obj 100 41 inlet;
#X obj 298 150 textfile;
#X msg 176 169 bang;
#X msg 185 87 rewind;
#X obj 177 145 until;
#X msg 178 123 1;
#X obj 389 133 route param;
#X msg 191 13 clear;
#X obj 191 59 print READING: \$1;
#X obj 54 110 t b b f f;
#X msg 62 71 3;
#X msg 185 34 read presets/preset-\$1.txt cr;
#X obj 421 293 print;
#X obj 389 190 unpack f f;
#X obj 395 214 pack f f \$1;
#X msg 376 242 \; \$3p\$1 \$2;
#X connect 0 0 9 0;
#X connect 1 0 6 0;
#X connect 1 0 5 0;
#X connect 2 0 1 0;
#X connect 3 0 1 0;
#X connect 4 0 2 0;
#X connect 5 0 4 0;
#X connect 6 0 13 0;
#X connect 7 0 1 0;
#X connect 9 0 5 0;
#X connect 9 1 3 0;
#X connect 9 2 11 0;
#X connect 9 3 7 0;
#X connect 10 0 9 0;
#X connect 11 0 1 0;
#X connect 11 0 8 0;
#X connect 13 0 14 0;
#X connect 13 1 14 1;
#X connect 14 0 15 0;
#X connect 15 0 12 0;
#X restore -418 109 pd load;
#X msg 128 47 3;
#X msg -384 46 3;
#X obj 25 98 f;
#X connect 0 0 6 0;
#X connect 1 0 3 0;
#X connect 1 0 6 1;
#X connect 4 0 2 0;
#X connect 5 0 3 0;
#X connect 6 0 2 0;
#X restore 797 401 pd presets2;
#X obj 38 301 *~ 1;
#X obj 349 265 r \$1-volume;
#X obj 671 383 hradio 15 1 0 12 empty empty empty 0 -8 0 10 -262144
-1 -1 5;
#X obj 859 380 bng 15 250 50 0 empty empty empty 17 7 0 10 -262144
-1 -1;
#X text 879 376 save;
#X obj 861 193 vradio 15 1 0 12 empty empty empty 0 -8 0 10 -262144
-1 -1 0;
#N canvas 0 22 730 503 osc 0;
#X obj 44 41 mrpeach/unpackOSC;
#X obj 20 104 mrpeach/routeOSC /presets;
#X obj 40 11 r oscrecvdood;
#X obj 44 70 mrpeach/routeOSC /\$1;
#X obj 22 134 mrpeach/routeOSC /1 /2 /3 /4 /5 /6 /7 /8 /9 /10 /11 /12
;
#X obj 47 260 s \$1-preset;
#X msg 13 163 0;
#X msg 42 165 1;
#X msg 67 164 2;
#X msg 91 164 3;
#X msg 115 164 4;
#X msg 141 164 5;
#X msg 168 164 6;
#X msg 192 164 7;
#X msg 215 164 8;
#X msg 240 163 9;
#X msg 265 163 10;
#X msg 289 164 11;
#X obj 197 102 mrpeach/routeOSC /sliders;
#X obj 279 354 s \$1s1;
#X obj 324 354 s \$1s2;
#X obj 368 354 s \$1s3;
#X obj 413 354 s \$1s4;
#X obj 457 354 s \$1s5;
#X obj 502 354 s \$1s6;
#X obj 546 354 s \$1s7;
#X obj 591 354 s \$1s8;
#X obj 279 332 * 127;
#X obj 324 332 * 127;
#X obj 368 332 * 127;
#X obj 413 332 * 127;
#X obj 457 332 * 127;
#X obj 502 332 * 127;
#X obj 547 332 * 127;
#X obj 591 332 * 127;
#X obj 26 461 s oscsenddood;
#X obj 29 316 r \$1-sliderline;
#X obj 39 428 mrpeach/packOSC;
#X obj 40 337 unpack f f;
#X obj 45 385 pack f f \$1;
#X obj 180 386 print;
#X msg 44 402 send /\$3/sliders/slider\$1 \$2;
#X obj 78 363 / 127;
#X obj 362 132 mrpeach/routeOSC /slider1 /slider2 /slider3 /slider4
/slider5 /slider6 /slider7 /slider8 /slider9 /slider10 /slider11 /slider12
/slider13 /slider14 /slider15 /slider16;
#X obj 364 274 * 127;
#X obj 409 274 * 127;
#X obj 453 274 * 127;
#X obj 498 274 * 127;
#X obj 542 274 * 127;
#X obj 587 274 * 127;
#X obj 632 274 * 127;
#X obj 676 274 * 127;
#X obj 364 296 s \$1s9;
#X obj 409 296 s \$1s10;
#X obj 453 296 s \$1s11;
#X obj 500 296 s \$1s12;
#X obj 542 296 s \$1s13;
#X obj 588 296 s \$1s14;
#X obj 632 296 s \$1s15;
#X obj 677 296 s \$1s16;
#X connect 0 0 3 0;
#X connect 1 0 4 0;
#X connect 2 0 0 0;
#X connect 3 0 1 0;
#X connect 3 0 18 0;
#X connect 4 0 6 0;
#X connect 4 1 7 0;
#X connect 4 2 8 0;
#X connect 4 3 9 0;
#X connect 4 4 10 0;
#X connect 4 5 11 0;
#X connect 4 6 12 0;
#X connect 4 7 13 0;
#X connect 4 8 14 0;
#X connect 4 9 15 0;
#X connect 4 10 16 0;
#X connect 4 11 17 0;
#X connect 6 0 5 0;
#X connect 7 0 5 0;
#X connect 8 0 5 0;
#X connect 9 0 5 0;
#X connect 10 0 5 0;
#X connect 11 0 5 0;
#X connect 12 0 5 0;
#X connect 13 0 5 0;
#X connect 14 0 5 0;
#X connect 15 0 5 0;
#X connect 16 0 5 0;
#X connect 17 0 5 0;
#X connect 18 0 43 0;
#X connect 27 0 19 0;
#X connect 28 0 20 0;
#X connect 29 0 21 0;
#X connect 30 0 22 0;
#X connect 31 0 23 0;
#X connect 32 0 24 0;
#X connect 33 0 25 0;
#X connect 34 0 26 0;
#X connect 36 0 38 0;
#X connect 37 0 35 0;
#X connect 38 0 39 0;
#X connect 38 1 42 0;
#X connect 39 0 41 0;
#X connect 41 0 37 0;
#X connect 41 0 40 0;
#X connect 42 0 39 1;
#X connect 43 0 27 0;
#X connect 43 1 28 0;
#X connect 43 2 29 0;
#X connect 43 3 30 0;
#X connect 43 4 31 0;
#X connect 43 5 32 0;
#X connect 43 6 33 0;
#X connect 43 7 34 0;
#X connect 43 8 44 0;
#X connect 43 9 45 0;
#X connect 43 10 46 0;
#X connect 43 11 47 0;
#X connect 43 12 48 0;
#X connect 43 13 49 0;
#X connect 43 14 50 0;
#X connect 43 15 51 0;
#X connect 44 0 52 0;
#X connect 45 0 53 0;
#X connect 46 0 54 0;
#X connect 47 0 55 0;
#X connect 48 0 56 0;
#X connect 49 0 57 0;
#X connect 50 0 58 0;
#X connect 51 0 59 0;
#X restore 524 111 pd osc;
#X obj 674 363 r \$1-preset;
#X obj 763 340 loadbang;
#X obj 766 362 6;
#X obj 32 226 effectdistortion \$1;
#X obj 44 274 effectdistortion3 \$1;
#X obj -15 91 synth2 \$1;
#X obj 43 92 synth2 \$1;
#X obj 100 92 synth2 \$1;
#X obj 157 93 synth2 \$1;
#X obj 391 95 synth2 \$1;
#X obj 218 93 synth2 \$1;
#X obj 277 94 synth2 \$1;
#X obj 334 94 synth2 \$1;
#X obj 877 357 r \$1-save;
#X obj 57 251 effectbitcrush2 \$1;
#X connect 0 0 10 0;
#X connect 1 0 2 0;
#X connect 2 0 0 0;
#X connect 3 0 4 0;
#X connect 4 0 5 0;
#X connect 5 0 24 0;
#X connect 7 0 3 0;
#X connect 8 0 26 0;
#X connect 8 1 27 0;
#X connect 8 2 28 0;
#X connect 8 3 29 0;
#X connect 8 4 31 0;
#X connect 8 5 32 0;
#X connect 8 6 33 0;
#X connect 8 7 30 0;
#X connect 9 0 12 0;
#X connect 11 0 8 0;
#X connect 12 0 11 0;
#X connect 12 1 11 1;
#X connect 12 2 11 2;
#X connect 14 0 1 0;
#X connect 15 0 14 1;
#X connect 16 0 13 0;
#X connect 17 0 13 1;
#X connect 19 0 13 1;
#X connect 21 0 16 0;
#X connect 22 0 23 0;
#X connect 23 0 16 0;
#X connect 24 0 35 0;
#X connect 25 0 14 0;
#X connect 26 0 7 1;
#X connect 27 0 7 0;
#X connect 28 0 7 0;
#X connect 29 0 7 0;
#X connect 30 0 7 1;
#X connect 31 0 7 1;
#X connect 32 0 7 1;
#X connect 33 0 7 1;
#X connect 34 0 17 0;
#X connect 35 0 25 0;
