#N canvas 109 299 945 446 10;
#X obj 30 378 +~;
#X obj 31 304 effectdelay \$1-d 44100;
#X obj 31 326 effectdelay \$1-r 4410;
#X obj 33 247 effectbitcrush \$1;
#X obj 34 171 effecthighpass \$1;
#X obj 34 199 effectlowpass \$1;
#X obj 33 224 effectmoogpass \$1;
#X obj 34 349 hip~ 5;
#N canvas 119 49 1030 655 controls 1;
#X obj 364 75 hsl 128 15 0 127 0 0 empty empty empty -2 -8 0 10 -262144
-1 -1 0 1;
#X floatatom 394 95 5 0 0 0 - - -;
#X obj 203 536 bng 15 250 50 0 empty empty empty 17 7 0 10 -262144
-1 -1;
#X obj 200 589 bng 15 250 50 0 empty empty empty 17 7 0 10 -262144
-1 -1;
#X obj 671 192 hsl 128 15 0 127 0 0 empty empty empty -2 -8 0 10 -262144
-1 -1 0 1;
#X obj 668 209 / 127;
#X obj 706 212 * 1000;
#X obj 670 457 hsl 128 15 0 127 0 0 empty empty empty -2 -8 0 10 -262144
-1 -1 7600 1;
#X obj 667 474 / 127;
#X obj 670 397 hsl 128 15 0 127 0 0 empty empty empty -2 -8 0 10 -262144
-1 -1 11000 1;
#X obj 667 414 / 127;
#X obj 676 4 hsl 128 15 0 127 0 0 empty empty empty -2 -8 0 10 -262144
-1 -1 2300 1;
#X obj 673 21 / 127;
#X obj 711 24 * 1000;
#X obj 676 122 hsl 128 15 0 127 0 0 empty empty empty -2 -8 0 10 -262144
-1 -1 0 1;
#X obj 673 139 / 127;
#X obj 676 62 hsl 128 15 0 127 0 0 empty empty empty -2 -8 0 10 -262144
-1 -1 0 1;
#X obj 673 79 / 127;
#X text 675 -12 delay;
#X obj 673 40 s \$1-d-delay-time;
#X obj 673 98 s \$1-d-delay-mix;
#X obj 673 158 s \$1-d-delay-feedback;
#X text 671 176 relay;
#X obj 668 228 s \$1-r-delay-time;
#X obj 671 310 hsl 128 15 0 127 0 0 empty empty empty -2 -8 0 10 -262144
-1 -1 0 1;
#X obj 668 327 / 127;
#X obj 671 250 hsl 128 15 0 127 0 0 empty empty empty -2 -8 0 10 -262144
-1 -1 0 1;
#X obj 668 267 / 127;
#X obj 668 286 s \$1-r-delay-mix;
#X obj 668 346 s \$1-r-delay-feedback;
#X text 675 377 bitcrush;
#X obj 667 433 s \$1-bitcrush-dist;
#X obj 665 494 s \$1-bitcrush-depth;
#X obj 741 473 + 1;
#X obj 707 474 * 31;
#X obj -60 167 / 10;
#X obj -20 186 / 80;
#X obj -21 9 vsl 15 128 0 127 0 0 empty empty empty 0 -9 0 10 -262144
-1 -1 0 1;
#X obj 4 9 vsl 15 128 0 127 0 0 empty empty empty 0 -9 0 10 -262144
-1 -1 0 1;
#X obj 79 2 vsl 15 128 0 127 0 0 empty empty empty 0 -9 0 10 -262144
-1 -1 0 1;
#X obj 108 2 vsl 15 128 0 127 0 0 empty empty empty 0 -9 0 10 -262144
-1 -1 0 1;
#X obj 29 69 vradio 15 1 0 4 empty empty empty 0 -8 0 10 -262144 -1
-1 3;
#X obj 51 69 vradio 15 1 0 4 empty empty empty 0 -8 0 10 -262144 -1
-1 3;
#X obj 133 70 vradio 15 1 0 4 empty empty empty 0 -8 0 10 -262144 -1
-1 2;
#X obj 94 187 / 127;
#X obj 66 183 / 5;
#X obj 366 31 hsl 128 15 0 127 0 0 empty empty empty -2 -8 0 10 -262144
-1 -1 11300 1;
#X floatatom 395 51 5 0 0 0 - - -;
#X obj 226 638 hsl 128 15 0 127 0 0 empty empty empty -2 -8 0 10 -262144
-1 -1 0 1;
#X floatatom 280 668 5 0 0 0 - - -;
#X obj 361 53 * 10;
#X obj 361 94 / 30;
#X obj 358 167 hsl 128 15 0 127 0 0 empty empty empty -2 -8 0 10 -262144
-1 -1 12700 1;
#X floatatom 388 187 5 0 0 0 - - -;
#X obj 360 114 hsl 128 15 0 127 0 0 empty empty empty -2 -8 0 10 -262144
-1 -1 0 1;
#X floatatom 389 134 5 0 0 0 - - -;
#X obj 355 136 * 10;
#X obj 355 186 * 10;
#X obj 177 6 vsl 15 128 0 127 0 0 empty empty empty 0 -9 0 10 -262144
-1 -1 7500 1;
#X obj 181 185 / 127;
#X obj 156 75 vradio 15 1 0 4 empty empty empty 0 -8 0 10 -262144 -1
-1 0;
#X obj -34 205 s \$1-synth-vibrato-speed;
#X obj -2 225 s \$1-synth-vibrato-depth;
#X obj -13 243 s \$1-synth-vibrato-waveform;
#X obj 40 263 s \$1-synth-waveform;
#X obj 58 283 s \$1-synth-tremolo-speed;
#X obj 161 269 s \$1-synth-tremolo-depth;
#X obj 164 249 s \$1-synth-tremolo-waveform;
#X obj 171 228 s \$1-synth-suboctave-waveform;
#X obj 182 208 s \$1-synth-suboctave-mix;
#X obj 432 52 s \$1-moog-cutoff;
#X obj 427 95 s \$1-moog-q;
#X obj 425 136 s \$1-hip-cutoff;
#X obj 422 187 s \$1-lop-cutoff;
#X obj 205 559 s \$1-synth-noteon;
#X obj 200 611 s \$1-synth-noteoff;
#X obj 141 666 s \$1-synth-note;
#X obj -61 -18 r \$1p1;
#X obj -11 -15 r \$1p2;
#X obj 22 12 r \$1p3;
#X obj 33 32 r \$1p4;
#X obj -53 143 sp \$1 1;
#X obj -25 165 sp \$1 2;
#X obj 1 143 sp \$1 3;
#X obj 28 164 sp \$1 4;
#X obj 52 -21 r \$1p5;
#X obj 60 140 sp \$1 5;
#X obj 98 -20 r \$1p6;
#X obj 128 15 r \$1p7;
#X obj 135 38 r \$1p8;
#X obj 92 167 sp \$1 6;
#X obj 121 143 sp \$1 7;
#X obj 133 189 sp \$1 8;
#X obj 183 152 sp \$1 9;
#X obj 159 -18 r \$1p9;
#X obj 243 355 s \$1-adsr-attack-amp;
#X obj 257 377 s \$1-adsr-attack-time;
#X obj 269 396 s \$1-adsr-decay-amp;
#X obj 284 415 s \$1-adsr-decay-time;
#X obj 304 434 s \$1-adsr-sustain-amp;
#X obj 318 453 s \$1-adsr-sustain-time;
#X obj 334 473 s \$1-adsr-release-amp;
#X obj 349 493 s \$1-adsr-release-time;
#X obj 206 354 / 127;
#X obj 233 396 / 127;
#X obj 267 435 / 127;
#X obj 297 473 / 127;
#X obj 233 377 * 5;
#X obj 257 415 * 5;
#X obj 289 454 * 5;
#X obj 319 494 * 5;
#X obj -1 359 hsl 128 15 0 127 0 0 empty empty empty -2 -8 0 10 -262144
-1 -1 11800 1;
#X obj -110 358 r \$1p10;
#X obj -60 359 sp \$1 10;
#X obj -2 462 hsl 128 15 0 127 0 0 empty empty empty -2 -8 0 10 -262144
-1 -1 300 1;
#X obj -8 421 hsl 128 15 0 127 0 0 empty empty empty -2 -8 0 10 -262144
-1 -1 0 1;
#X obj -6 440 hsl 128 15 0 127 0 0 empty empty empty -2 -8 0 10 -262144
-1 -1 12700 1;
#X obj -3 381 hsl 128 15 0 127 0 0 empty empty empty -2 -8 0 10 -262144
-1 -1 300 1;
#X obj -5 401 hsl 128 15 0 127 0 0 empty empty empty -2 -8 0 10 -262144
-1 -1 12700 1;
#X obj -2 480 hsl 128 15 0 127 0 0 empty empty empty -2 -8 0 10 -262144
-1 -1 0 1;
#X obj -5 498 hsl 128 15 0 127 0 0 empty empty empty -2 -8 0 10 -262144
-1 -1 1100 1;
#X obj -108 380 r \$1p11;
#X obj -59 381 sp \$1 11;
#X obj -114 399 r \$1p12;
#X obj -117 418 r \$1p13;
#X obj -115 440 r \$1p14;
#X obj -112 459 r \$1p15;
#X obj -112 478 r \$1p16;
#X obj -115 495 r \$1p17;
#X obj -64 400 sp \$1 12;
#X obj -67 419 sp \$1 13;
#X obj -64 441 sp \$1 14;
#X obj -62 460 sp \$1 15;
#X obj -62 478 sp \$1 16;
#X obj -65 496 sp \$1 17;
#X obj 257 31 r \$1p18;
#X obj 256 72 r \$1p19;
#X obj 251 112 r \$1p20;
#X obj 251 165 r \$1p21;
#X obj 307 33 sp \$1 18;
#X obj 305 74 sp \$1 19;
#X obj 301 113 sp \$1 20;
#X obj 301 166 sp \$1 21;
#X obj 606 177 r \$1p22;
#X obj 608 206 sp \$1 22;
#X obj 608 240 r \$1p23;
#X obj 609 269 sp \$1 23;
#X obj 608 299 r \$1p24;
#X obj 610 328 sp \$1 24;
#X obj 607 1 r \$1p25;
#X obj 609 30 sp \$1 25;
#X obj 609 57 r \$1p26;
#X obj 610 86 sp \$1 26;
#X obj 609 116 r \$1p27;
#X obj 612 145 sp \$1 27;
#X obj 605 388 r \$1p28;
#X obj 607 417 sp \$1 28;
#X obj 605 447 r \$1p29;
#X obj 607 476 sp \$1 29;
#X obj 414 303 hsl 128 15 0 127 0 0 empty empty empty -2 -8 0 10 -262144
-1 -1 12300 1;
#X floatatom 447 322 5 0 0 0 - - -;
#X obj 483 322 s \$1-volume;
#X obj 411 322 / 127;
#X obj 307 301 r \$1p0;
#X obj 357 302 sp \$1 0;
#X connect 0 0 51 0;
#X connect 0 0 140 0;
#X connect 2 0 74 0;
#X connect 3 0 75 0;
#X connect 4 0 5 0;
#X connect 4 0 144 0;
#X connect 5 0 6 0;
#X connect 6 0 23 0;
#X connect 7 0 8 0;
#X connect 7 0 158 0;
#X connect 8 0 34 0;
#X connect 9 0 10 0;
#X connect 9 0 156 0;
#X connect 10 0 31 0;
#X connect 11 0 12 0;
#X connect 11 0 150 0;
#X connect 12 0 13 0;
#X connect 13 0 19 0;
#X connect 14 0 15 0;
#X connect 14 0 154 0;
#X connect 15 0 21 0;
#X connect 16 0 17 0;
#X connect 16 0 152 0;
#X connect 17 0 20 0;
#X connect 24 0 25 0;
#X connect 24 0 148 0;
#X connect 25 0 29 0;
#X connect 26 0 27 0;
#X connect 26 0 146 0;
#X connect 27 0 28 0;
#X connect 33 0 32 0;
#X connect 34 0 33 0;
#X connect 35 0 61 0;
#X connect 36 0 62 0;
#X connect 37 0 35 0;
#X connect 37 0 81 0;
#X connect 38 0 36 0;
#X connect 38 0 82 0;
#X connect 39 0 45 0;
#X connect 39 0 86 0;
#X connect 40 0 44 0;
#X connect 40 0 90 0;
#X connect 41 0 63 0;
#X connect 41 0 83 0;
#X connect 42 0 64 0;
#X connect 42 0 84 0;
#X connect 43 0 67 0;
#X connect 43 0 91 0;
#X connect 44 0 66 0;
#X connect 45 0 65 0;
#X connect 46 0 50 0;
#X connect 46 0 139 0;
#X connect 48 0 49 0;
#X connect 48 0 76 0;
#X connect 50 0 47 0;
#X connect 50 0 70 0;
#X connect 51 0 1 0;
#X connect 51 0 71 0;
#X connect 52 0 57 0;
#X connect 52 0 142 0;
#X connect 54 0 56 0;
#X connect 54 0 141 0;
#X connect 56 0 55 0;
#X connect 56 0 72 0;
#X connect 57 0 53 0;
#X connect 57 0 73 0;
#X connect 58 0 59 0;
#X connect 58 0 93 0;
#X connect 59 0 69 0;
#X connect 60 0 68 0;
#X connect 60 0 92 0;
#X connect 77 0 37 0;
#X connect 78 0 38 0;
#X connect 79 0 41 0;
#X connect 80 0 42 0;
#X connect 85 0 39 0;
#X connect 87 0 40 0;
#X connect 88 0 43 0;
#X connect 89 0 60 0;
#X connect 94 0 58 0;
#X connect 103 0 95 0;
#X connect 104 0 97 0;
#X connect 105 0 99 0;
#X connect 106 0 101 0;
#X connect 107 0 96 0;
#X connect 108 0 98 0;
#X connect 109 0 100 0;
#X connect 110 0 102 0;
#X connect 111 0 113 0;
#X connect 111 0 103 0;
#X connect 112 0 111 0;
#X connect 114 0 109 0;
#X connect 114 0 132 0;
#X connect 115 0 108 0;
#X connect 115 0 130 0;
#X connect 116 0 105 0;
#X connect 116 0 131 0;
#X connect 117 0 107 0;
#X connect 117 0 122 0;
#X connect 118 0 104 0;
#X connect 118 0 129 0;
#X connect 119 0 106 0;
#X connect 119 0 133 0;
#X connect 120 0 110 0;
#X connect 120 0 134 0;
#X connect 121 0 117 0;
#X connect 123 0 118 0;
#X connect 124 0 115 0;
#X connect 125 0 116 0;
#X connect 126 0 114 0;
#X connect 127 0 119 0;
#X connect 128 0 120 0;
#X connect 135 0 46 0;
#X connect 136 0 0 0;
#X connect 137 0 54 0;
#X connect 138 0 52 0;
#X connect 143 0 4 0;
#X connect 145 0 26 0;
#X connect 147 0 24 0;
#X connect 149 0 11 0;
#X connect 151 0 16 0;
#X connect 153 0 14 0;
#X connect 155 0 9 0;
#X connect 157 0 7 0;
#X connect 159 0 162 0;
#X connect 159 0 164 0;
#X connect 162 0 160 0;
#X connect 162 0 161 0;
#X connect 163 0 159 0;
#X restore 539 15 pd controls;
#X obj 72 134 +~;
#X obj 78 62 route 1 2 3 4 5 6 7 8;
#X obj 77 -5 inlet;
#X obj 22 419 outlet~;
#X obj 80 38 pack f f f;
#X obj 250 42 print;
#X obj 75 16 poly 8 0;
#X obj -15 91 synth2 \$1;
#X obj 43 92 synth2 \$1;
#X obj 100 92 synth2 \$1;
#X obj 157 93 synth2 \$1;
#X obj 218 93 synth2 \$1;
#X obj 277 94 synth2 \$1;
#X obj 334 94 synth2 \$1;
#X obj 391 95 synth2 \$1;
#N canvas 12 22 616 152 presets2 1;
#X obj 66 7 inlet;
#X obj -414 19 inlet;
#N canvas 208 74 1009 726 save 0;
#X obj -205 495 textfile;
#X msg -492 279 write presets/preset-\$1.txt;
#X msg -301 279 add param \$1 \$2;
#X obj 66 7 inlet;
#X obj 51 32 t f b b;
#X obj -301 232 r \$1-presetline;
#X msg 329 254 clear;
#X obj -34 179 0;
#X obj -32 205 + 1;
#X obj -31 230 moses 50;
#X msg -35 150 0;
#X obj -105 203 pack f \$1;
#X msg -119 228 \; \$2p\$1 bang \;;
#X connect 1 0 0 0;
#X connect 2 0 0 0;
#X connect 3 0 4 0;
#X connect 4 0 1 0;
#X connect 4 1 10 0;
#X connect 4 2 6 0;
#X connect 5 0 2 0;
#X connect 6 0 0 0;
#X connect 7 0 8 0;
#X connect 7 0 11 0;
#X connect 8 0 9 0;
#X connect 9 0 7 0;
#X connect 10 0 7 0;
#X connect 11 0 12 0;
#X restore 76 114 pd save;
#N canvas 0 22 806 756 load 0;
#X obj 100 41 inlet;
#X obj 298 150 textfile;
#X msg 176 169 bang;
#X msg 185 87 rewind;
#X obj 177 145 until;
#X msg 178 123 1;
#X obj 389 133 route param;
#X msg 191 13 clear;
#X obj 191 59 print READING: \$1;
#X obj 54 110 t b b f f;
#X msg 62 71 3;
#X msg 185 34 read presets/preset-\$1.txt cr;
#X obj 421 293 print;
#X obj 389 190 unpack f f;
#X obj 395 214 pack f f \$1;
#X msg 376 242 \; \$3p\$1 \$2;
#X connect 0 0 9 0;
#X connect 1 0 6 0;
#X connect 1 0 5 0;
#X connect 2 0 1 0;
#X connect 3 0 1 0;
#X connect 4 0 2 0;
#X connect 5 0 4 0;
#X connect 6 0 13 0;
#X connect 7 0 1 0;
#X connect 9 0 5 0;
#X connect 9 1 3 0;
#X connect 9 2 11 0;
#X connect 9 3 7 0;
#X connect 10 0 9 0;
#X connect 11 0 1 0;
#X connect 11 0 8 0;
#X connect 13 0 14 0;
#X connect 13 1 14 1;
#X connect 14 0 15 0;
#X connect 15 0 12 0;
#X restore -418 109 pd load;
#X msg 128 47 3;
#X msg -384 46 3;
#X obj 59 66 f;
#X connect 0 0 6 0;
#X connect 1 0 3 0;
#X connect 1 0 6 0;
#X connect 4 0 2 0;
#X connect 5 0 3 0;
#X connect 6 0 2 0;
#X restore 627 101 pd presets2;
#X obj 35 280 *~ 1;
#X obj 349 265 r \$1-volume;
#X obj 501 83 hradio 15 1 0 12 empty empty empty 0 -8 0 10 -262144
-1 -1 0;
#X obj 689 80 bng 15 250 50 0 empty empty empty 17 7 0 10 -262144 -1
-1;
#X text 709 76 save;
#X connect 0 0 12 0;
#X connect 1 0 2 0;
#X connect 2 0 7 0;
#X connect 3 0 25 0;
#X connect 4 0 5 0;
#X connect 5 0 6 0;
#X connect 6 0 3 0;
#X connect 7 0 0 0;
#X connect 9 0 4 0;
#X connect 10 0 16 0;
#X connect 10 1 17 0;
#X connect 10 2 18 0;
#X connect 10 3 19 0;
#X connect 10 4 20 0;
#X connect 10 5 21 0;
#X connect 10 6 22 0;
#X connect 10 7 23 0;
#X connect 11 0 15 0;
#X connect 13 0 10 0;
#X connect 13 0 14 0;
#X connect 15 0 13 0;
#X connect 15 1 13 1;
#X connect 15 2 13 2;
#X connect 16 0 9 1;
#X connect 17 0 9 0;
#X connect 18 0 9 0;
#X connect 19 0 9 0;
#X connect 20 0 9 1;
#X connect 21 0 9 1;
#X connect 22 0 9 1;
#X connect 23 0 9 1;
#X connect 25 0 1 0;
#X connect 26 0 25 1;
#X connect 27 0 24 0;
#X connect 28 0 24 1;
