#N canvas 53 175 621 600 10;
#X obj 21 8 inlet~;
#X obj 255 488 outlet~;
#X obj 233 122 mtof~;
#X msg 326 92 2;
#X msg 326 114 3;
#X msg 326 48 0;
#X msg 326 70 1;
#X msg 207 243 2;
#X msg 207 265 3;
#X msg 207 199 0;
#X msg 207 221 1;
#X msg 357 465 2;
#X msg 357 487 3;
#X msg 357 421 0;
#X msg 357 443 1;
#X obj 69 8 inlet~;
#X obj 116 8 inlet;
#X obj 156 8 inlet;
#X obj 239 8 inlet;
#X obj 280 8 inlet~;
#X obj 326 8 inlet;
#X obj 365 8 inlet;
#X obj 444 8 inlet;
#X obj 485 9 inlet;
#X obj 233 65 vibrato \$2;
#X msg 444 248 2;
#X msg 444 270 3;
#X msg 444 204 0;
#X msg 444 226 1;
#X obj 296 173 /~ 2;
#X obj 524 8 inlet;
#X obj 565 7 inlet;
#X obj 272 372 *~ 0.5;
#X obj 235 402 +~;
#X obj 68 229 waveformselector \$1;
#X obj 305 234 waveformselector \$1;
#X obj 255 428 tremolo \$3;
#X obj 201 7 inlet;
#X obj 404 6 inlet;
#X connect 0 0 24 0;
#X connect 2 0 29 0;
#X connect 2 0 34 0;
#X connect 3 0 24 3;
#X connect 4 0 24 3;
#X connect 5 0 24 3;
#X connect 6 0 24 3;
#X connect 7 0 34 2;
#X connect 8 0 34 2;
#X connect 9 0 34 2;
#X connect 10 0 34 2;
#X connect 11 0 36 3;
#X connect 12 0 36 3;
#X connect 13 0 36 3;
#X connect 14 0 36 3;
#X connect 15 0 24 1;
#X connect 16 0 24 2;
#X connect 17 0 24 3;
#X connect 18 0 34 2;
#X connect 19 0 36 1;
#X connect 20 0 36 2;
#X connect 21 0 36 3;
#X connect 22 0 24 5;
#X connect 23 0 36 5;
#X connect 24 0 2 0;
#X connect 25 0 35 2;
#X connect 26 0 35 2;
#X connect 27 0 35 2;
#X connect 28 0 35 2;
#X connect 29 0 35 0;
#X connect 30 0 35 2;
#X connect 31 0 32 1;
#X connect 32 0 33 1;
#X connect 33 0 36 0;
#X connect 34 0 33 0;
#X connect 35 0 32 0;
#X connect 36 0 1 0;
#X connect 37 0 24 4;
#X connect 38 0 36 4;
