#N canvas 237 270 945 446 10;
#X obj 242 265 dac~;
#X obj 264 15 notein;
#N canvas 316 444 450 300 magic 0;
#X obj 146 50 inlet;
#X obj 218 55 inlet;
#X obj 299 54 inlet;
#X obj 200 175 pack 0 0 0;
#X obj 122 149 pack 0 0;
#X obj 118 179 unpack 0 0;
#X obj 192 241 outlet;
#X connect 0 0 3 1;
#X connect 0 0 4 0;
#X connect 1 0 3 2;
#X connect 2 0 4 1;
#X connect 3 0 6 0;
#X connect 4 0 5 0;
#X connect 5 1 3 0;
#X restore 248 43 pd magic;
#X obj 243 74 route 1 2 3 4;
#X obj 239 220 hip~ 4;
#N canvas 33 529 622 261 osc 0;
#X obj 439 67 loadbang;
#X obj 296 57 r oscsenddood;
#X obj 46 109 s oscrecvdood;
#X obj 149 95 mrpeach/unpackOSC;
#X obj 54 57 mrpeach/udpreceive 8000;
#X msg 441 100 connect 192.168.10.101 9000;
#X msg 443 122 connect 192.168.252.60 9000;
#X obj 324 149 mrpeach/udpsend 192.168.10.255 9000;
#X obj 320 180 mrpeach/udpsend 192.168.252.60 9000;
#X obj 328 96 print SENDING;
#X obj 157 135 print RECEIVING;
#X connect 0 0 5 0;
#X connect 1 0 8 0;
#X connect 1 0 9 0;
#X connect 3 0 10 0;
#X connect 4 0 2 0;
#X connect 4 0 3 0;
#X connect 6 0 8 0;
#X restore 487 61 pd osc;
#X obj 197 137 instrument 2;
#X obj 243 240 clip~ -1 1;
#X connect 1 0 2 0;
#X connect 1 1 2 1;
#X connect 1 2 2 2;
#X connect 2 0 3 0;
#X connect 3 1 6 0;
#X connect 4 0 7 0;
#X connect 6 0 4 0;
#X connect 7 0 0 0;
#X connect 7 0 0 1;
