#N canvas 272 393 408 336 10;
#X obj 182 68 chiptune_band_core_core 0;
#X obj 185 -5 hsl 128 15 0 127 0 0 empty empty empty -2 -8 0 10 -262144
-1 -1 7500 1;
#X obj 181 38 s 0-synth-vol;
#X obj 180 16 / 127;
#X obj 187 104 hsl 128 15 0 127 0 0 empty empty empty -2 -8 0 10 -262144
-1 -1 4700 1;
#X obj 183 123 s 0-synth-note;
#X obj 187 229 hsl 128 15 0 127 0 0 empty empty empty -2 -8 0 10 -262144
-1 -1 12700 1;
#X obj 182 250 / 127;
#X obj 183 272 s 0-synth-vibrato-depth;
#X obj 187 152 hsl 128 15 0 127 0 0 empty empty empty -2 -8 0 10 -262144
-1 -1 12700 1;
#X obj 183 194 s 0-synth-vibrato-speed;
#X obj 180 171 / 10;
#X msg 181 296 1;
#X msg 213 294 0;
#X obj 185 318 s 0-synth-vibrato-enable;
#X obj 23 65 hsl 128 15 0 127 0 0 empty empty empty -2 -8 0 10 -262144
-1 -1 11200 1;
#X obj 18 86 / 127;
#X obj 23 -12 hsl 128 15 0 127 0 0 empty empty empty -2 -8 0 10 -262144
-1 -1 12300 1;
#X obj 16 7 / 10;
#X msg 16 130 1;
#X msg 49 130 0;
#X obj 19 108 s 0-synth-tremolo-depth;
#X obj 20 31 s 0-synth-tremolo-speed;
#X obj 20 152 s 0-synth-tremolo-enable;
#X connect 1 0 3 0;
#X connect 3 0 2 0;
#X connect 4 0 5 0;
#X connect 6 0 7 0;
#X connect 7 0 8 0;
#X connect 9 0 11 0;
#X connect 11 0 10 0;
#X connect 12 0 14 0;
#X connect 13 0 14 0;
#X connect 15 0 16 0;
#X connect 16 0 21 0;
#X connect 17 0 18 0;
#X connect 18 0 22 0;
#X connect 19 0 23 0;
#X connect 20 0 23 0;
