#N canvas 237 270 945 446 10;
#X obj 242 265 dac~;
#X obj 264 15 notein;
#N canvas 316 444 450 300 magic 0;
#X obj 146 50 inlet;
#X obj 218 55 inlet;
#X obj 299 54 inlet;
#X obj 200 175 pack 0 0 0;
#X obj 122 149 pack 0 0;
#X obj 118 179 unpack 0 0;
#X obj 192 241 outlet;
#X connect 0 0 3 1;
#X connect 0 0 4 0;
#X connect 1 0 3 2;
#X connect 2 0 4 1;
#X connect 3 0 6 0;
#X connect 4 0 5 0;
#X connect 5 1 3 0;
#X restore 248 43 pd magic;
#X obj 243 74 route 1 2 3 4;
#X obj 239 220 hip~ 4;
#X obj 243 240 clip~ -0.99 0.99;
#X obj 102 138 instrument 0;
#X obj 197 137 instrument 1;
#X obj 280 136 instrument 2;
#X obj 375 135 instrument 3;
#X connect 1 0 2 0;
#X connect 1 1 2 1;
#X connect 1 2 2 2;
#X connect 2 0 3 0;
#X connect 3 0 6 0;
#X connect 3 1 7 0;
#X connect 3 2 8 0;
#X connect 3 3 9 0;
#X connect 4 0 5 0;
#X connect 5 0 0 0;
#X connect 5 0 0 1;
#X connect 6 0 4 0;
#X connect 7 0 4 0;
#X connect 8 0 4 0;
#X connect 9 0 4 0;
