#N canvas 0 22 450 300 10;
#X text 144 33 save preset;
#X obj 106 71 inlet;
#X obj 112 97 t b f;
#X obj 95 132 pack \$2 f;
#X obj 101 157 send \$1-presetline;
#X connect 1 0 2 0;
#X connect 2 0 3 0;
#X connect 2 1 3 1;
#X connect 3 0 4 0;
