#N canvas 591 116 603 537 10;
#X obj -24 8 sig~;
#X obj 7 7 r \$1-synth-vibrato-speed;
#X obj 7 26 sig~;
#X obj 39 27 r \$1-synth-vibrato-depth;
#X obj 55 47 r \$1-synth-vibrato-waveform;
#X obj 95 87 r \$1-synth-waveform;
#X obj 113 107 r \$1-synth-tremolo-speed;
#X obj 112 128 sig~;
#X obj 144 127 r \$1-synth-tremolo-depth;
#X obj 162 145 r \$1-synth-tremolo-waveform;
#X obj -22 -12 r \$1-synth-note;
#X obj 199 184 r \$1-synth-vibrato-enable;
#X obj 212 203 r \$1-synth-tremolo-enable;
#X obj -7 415 outlet~;
#X obj 25 350 *~;
#X obj 314 277 r \$1-synth-noteon;
#X obj 342 313 r \$1-synth-noteoff;
#X obj 223 225 r \$1-synth-suboctave-waveform;
#X obj 240 247 r \$1-synth-suboctave-mix;
#X obj 231 22 loadbang;
#X obj 235 45 0;
#X obj 447 15 route 0;
#X obj 21 370 *~ 1;
#X obj 420 68 / 127;
#X obj 173 -90 inlet;
#X obj 164 -59 unpack f f;
#X obj 416 37 t b;
#X obj 468 38 t b f;
#X obj 10 258 +~;
#X obj 12 392 *~ 0.8;
#X obj 308 367 ADSR \$1;
#N canvas 0 22 450 300 bendbs 0;
#X obj 208 25 bendin;
#X obj 190 86 pack f f;
#X obj 182 110 route \$1;
#X obj 184 138 / 16384;
#X obj 196 211 sig~;
#X obj 191 186 - 24;
#X obj 185 161 * 48;
#X obj 115 284 outlet~;
#X obj 196 250 print innewinst;
#X msg 182 60 bang;
#X connect 0 0 1 1;
#X connect 0 0 9 0;
#X connect 0 1 1 0;
#X connect 1 0 2 0;
#X connect 1 0 8 0;
#X connect 2 0 3 0;
#X connect 3 0 6 0;
#X connect 4 0 7 0;
#X connect 5 0 4 0;
#X connect 6 0 5 0;
#X connect 9 0 1 0;
#X restore -51 134 pd bendbs;
#X obj 18 299 new_synth 0 0 0 1292929292929asdfasdfasdf;
#X obj 70 67 r \$1-synth-vibrato-waveform-x;
#X obj 178 165 r \$1-synth-tremolo-waveform-x;
#X obj 75 375 r \$1-synth-volume;
#X connect 0 0 28 0;
#X connect 1 0 2 0;
#X connect 2 0 32 1;
#X connect 3 0 32 2;
#X connect 4 0 32 3;
#X connect 5 0 32 5;
#X connect 6 0 7 0;
#X connect 7 0 32 6;
#X connect 8 0 32 7;
#X connect 9 0 32 8;
#X connect 10 0 0 0;
#X connect 11 0 32 10;
#X connect 12 0 32 11;
#X connect 14 0 22 0;
#X connect 15 0 30 0;
#X connect 16 0 30 1;
#X connect 17 0 32 12;
#X connect 18 0 32 13;
#X connect 19 0 20 0;
#X connect 20 0 32 7;
#X connect 21 0 26 0;
#X connect 21 1 27 0;
#X connect 22 0 29 0;
#X connect 23 0 22 1;
#X connect 24 0 25 0;
#X connect 25 0 0 0;
#X connect 25 1 21 0;
#X connect 26 0 30 1;
#X connect 27 0 30 0;
#X connect 27 1 23 0;
#X connect 28 0 32 0;
#X connect 29 0 13 0;
#X connect 30 0 14 1;
#X connect 31 0 28 1;
#X connect 32 0 14 0;
#X connect 33 0 32 4;
#X connect 34 0 32 9;
#X connect 35 0 29 1;
