#N canvas 436 357 566 423 10;
#X obj 368 10 r \$1-noteon;
#X obj 458 10 r \$1-noteoff;
#N canvas 0 22 450 300 cheapsquare 0;
#X obj 80 45 inlet~;
#X obj 83 197 outlet~;
#X obj 79 72 osc~;
#X obj 79 100 *~ 1000;
#X obj 81 127 clip~ -1 1;
#X obj 240 144 switch~;
#X obj 236 101 inlet;
#X connect 0 0 2 0;
#X connect 2 0 3 0;
#X connect 3 0 4 0;
#X connect 4 0 1 0;
#X connect 6 0 5 0;
#X restore 170 153 pd cheapsquare;
#N canvas 0 22 450 300 sawtooth 0;
#X obj 78 98 inlet~;
#X obj 82 224 outlet~;
#X obj 67 169 phasor~;
#X obj 240 144 switch~;
#X obj 236 101 inlet;
#X connect 0 0 2 0;
#X connect 2 0 1 0;
#X connect 4 0 3 0;
#X restore 21 154 pd sawtooth;
#N canvas 0 22 450 300 sinewave 0;
#X obj 78 98 inlet~;
#X obj 82 224 outlet~;
#X obj 240 144 switch~;
#X obj 236 101 inlet;
#X obj 66 169 osc~;
#X connect 0 0 4 0;
#X connect 3 0 2 0;
#X connect 4 0 1 0;
#X restore 96 154 pd sinewave;
#X obj 100 78 mtof;
#X obj 103 104 sig~;
#X obj 99 52 r \$1-pitch;
#X obj 104 279 *~;
#X obj 98 328 outlet~;
#X obj 229 249 ADSR \$1;
#X obj 454 98 r \$1-square;
#X obj 458 79 r \$1-sinewave;
#X obj 463 56 r \$1-sawtooth;
#X obj 434 123 r \$1-sawtooth-level;
#X obj 431 143 r \$1-sinewave-level;
#X obj 430 166 r \$1-square-level;
#X obj 94 219 *~ 1;
#X obj 138 218 *~ 1;
#X obj 46 217 *~ 1;
#X connect 0 0 10 0;
#X connect 1 0 10 1;
#X connect 2 0 18 0;
#X connect 3 0 19 0;
#X connect 4 0 17 0;
#X connect 5 0 6 0;
#X connect 6 0 3 0;
#X connect 6 0 4 0;
#X connect 6 0 2 0;
#X connect 7 0 5 0;
#X connect 8 0 9 0;
#X connect 10 0 8 1;
#X connect 11 0 2 1;
#X connect 12 0 4 1;
#X connect 13 0 3 1;
#X connect 14 0 19 1;
#X connect 15 0 17 1;
#X connect 16 0 18 1;
#X connect 17 0 8 0;
#X connect 18 0 8 1;
#X connect 19 0 8 0;
