#N canvas 244 139 603 537 10;
#X obj -82 2 sig~;
#X obj -51 1 r \$1-synth-vibrato-speed;
#X obj -51 20 sig~;
#X obj -19 21 r \$1-synth-vibrato-depth;
#X obj -2 40 r \$1-synth-vibrato-waveform;
#X obj 23 59 r \$1-synth-waveform;
#X obj 41 79 r \$1-synth-tremolo-speed;
#X obj 40 100 sig~;
#X obj 72 99 r \$1-synth-tremolo-depth;
#X obj 89 120 r \$1-synth-tremolo-waveform;
#X obj -80 -18 r \$1-synth-note;
#X obj 116 138 r \$1-synth-vibrato-enable;
#X obj 129 157 r \$1-synth-tremolo-enable;
#X obj -64 384 outlet~;
#X obj -33 344 *~;
#X obj 259 224 r \$1-synth-noteon;
#X obj 287 260 r \$1-synth-noteoff;
#X obj -40 267 new_synth 0 0 0 sdstomakethislonger;
#X obj 140 179 r \$1-synth-suboctave-waveform;
#X obj 157 201 r \$1-synth-suboctave-mix;
#X obj 173 21 loadbang;
#X obj 177 44 0;
#X obj 389 9 route 0;
#X obj -37 364 *~ 1;
#X obj 362 62 / 127;
#X obj 115 -96 inlet;
#X obj 106 -65 unpack f f;
#X obj 52 384 print VOL;
#X obj 358 31 t b;
#X obj 410 32 t b f;
#X obj 250 335 ADSR \$1;
#X connect 0 0 17 0;
#X connect 1 0 2 0;
#X connect 2 0 17 1;
#X connect 3 0 17 2;
#X connect 4 0 17 3;
#X connect 5 0 17 4;
#X connect 6 0 7 0;
#X connect 7 0 17 5;
#X connect 8 0 17 6;
#X connect 9 0 17 7;
#X connect 10 0 0 0;
#X connect 11 0 17 8;
#X connect 12 0 17 9;
#X connect 14 0 23 0;
#X connect 15 0 30 0;
#X connect 16 0 30 1;
#X connect 17 0 14 0;
#X connect 18 0 17 10;
#X connect 19 0 17 11;
#X connect 20 0 21 0;
#X connect 21 0 17 6;
#X connect 22 0 28 0;
#X connect 22 1 29 0;
#X connect 23 0 13 0;
#X connect 24 0 27 0;
#X connect 24 0 23 1;
#X connect 25 0 26 0;
#X connect 26 0 0 0;
#X connect 26 1 22 0;
#X connect 28 0 30 1;
#X connect 29 0 30 0;
#X connect 29 1 24 0;
#X connect 30 0 14 1;
