#N canvas 138 266 566 423 10;
#X obj -103 -88 sig~;
#X obj -72 -89 r \$1-synth-vibrato-speed;
#X obj -72 -70 sig~;
#X obj -40 -69 r \$1-synth-vibrato-depth;
#X obj -23 -50 r \$1-synth-vibrato-waveform;
#X obj 2 -31 r \$1-synth-waveform;
#X obj 20 -11 r \$1-synth-tremolo-speed;
#X obj 19 10 sig~;
#X obj 51 9 r \$1-synth-tremolo-depth;
#X obj 68 30 r \$1-synth-tremolo-waveform;
#X obj -101 -108 r \$1-synth-note;
#X obj 95 48 r \$1-synth-vibrato-enable;
#X obj 108 67 r \$1-synth-tremolo-enable;
#X obj -52 98 chiptune_synth 2 2 2;
#X connect 0 0 13 0;
#X connect 1 0 2 0;
#X connect 2 0 13 1;
#X connect 3 0 13 2;
#X connect 4 0 13 3;
#X connect 5 0 13 4;
#X connect 6 0 7 0;
#X connect 7 0 13 5;
#X connect 8 0 13 6;
#X connect 9 0 13 7;
#X connect 10 0 0 0;
#X connect 11 0 13 8;
#X connect 12 0 13 9;
