#N canvas 17 22 821 600 10;
#X obj 45 416 dac~;
#X obj 49 370 effectbitcrush 0 1 3;
#X obj 429 158 hsl 128 15 0 127 0 0 empty empty empty -2 -8 0 10 -262144
-1 -1 5400 1;
#X obj 428 183 / 127;
#X obj 428 207 s 0-bitcrush-dist;
#X obj 428 234 hsl 128 15 0 127 0 0 empty empty empty -2 -8 0 10 -262144
-1 -1 3500 1;
#X obj 428 256 / 20;
#X obj 427 279 s 0-bitcrush-depth;
#X obj 41 284 +~;
#X obj 430 322 loadbang;
#X obj 428 300 table sticky;
#X msg 430 345 \; sticky 0 3 5 8 11 13 16;
#X obj 624 215 bng 15 250 50 0 empty empty empty 17 7 0 10 -262144
-1 -1;
#X obj 652 193 bng 15 250 50 0 empty empty empty 17 7 0 10 -262144
-1 -1;
#X obj 600 235 bng 15 250 50 0 empty empty empty 17 7 0 10 -262144
-1 -1;
#X obj 624 236 s \$0-start;
#X obj 649 214 s \$0-stop;
#X obj 602 256 s \$0-reset;
#X msg 117 286 0;
#X obj 435 126 chiptune_drums;
#N canvas 0 22 450 300 drumrandom 0;
#X obj -195 90 rndseq;
#X msg -242 62 16;
#X msg -151 32 bang;
#X msg -278 81 bang;
#X obj -136 67 metro 100;
#X msg -115 44 stop;
#X obj -183 6 r \$0-start;
#X obj -114 22 r \$0-stop;
#X obj -301 58 r \$0-reset;
#X obj -229 29 loadbang;
#X msg -205 62 0;
#X msg -174 59 3;
#X obj -255 155 outlet;
#X connect 0 0 12 0;
#X connect 1 0 0 1;
#X connect 2 0 4 0;
#X connect 3 0 0 0;
#X connect 4 0 0 4;
#X connect 5 0 4 0;
#X connect 6 0 2 0;
#X connect 7 0 5 0;
#X connect 8 0 3 0;
#X connect 9 0 11 0;
#X connect 9 0 10 0;
#X connect 9 0 1 0;
#X connect 9 0 3 0;
#X connect 10 0 0 2;
#X connect 11 0 0 3;
#X restore 316 -96 pd drumrandom;
#X obj -6 98 / 10;
#X obj 26 117 / 80;
#N canvas 0 22 450 300 bassrandom 0;
#X obj 149 123 rndseq;
#X msg 102 95 16;
#X msg 193 65 bang;
#X msg 66 114 bang;
#X obj 208 100 metro 100;
#X msg 229 77 stop;
#X obj 152 151 tabread sticky;
#X msg 170 92 5;
#X msg 140 95 0;
#X obj 37 90 r \$0-reset;
#X obj 170 45 r \$0-start;
#X obj 224 54 r \$0-stop;
#X obj 105 165 + 34;
#X obj 130 72 loadbang;
#X obj 78 213 outlet;
#X connect 0 0 6 0;
#X connect 1 0 0 1;
#X connect 2 0 4 0;
#X connect 3 0 0 0;
#X connect 4 0 0 4;
#X connect 5 0 4 0;
#X connect 6 0 12 0;
#X connect 7 0 0 3;
#X connect 8 0 0 2;
#X connect 9 0 3 0;
#X connect 10 0 2 0;
#X connect 11 0 5 0;
#X connect 12 0 14 0;
#X connect 13 0 7 0;
#X connect 13 0 8 0;
#X connect 13 0 1 0;
#X connect 13 0 3 0;
#X restore 171 -55 pd bassrandom;
#N canvas 0 22 450 300 synthrandom 0;
#X obj 132 120 rndseq;
#X msg 97 92 16;
#X msg 176 62 bang;
#X msg 67 95 bang;
#X obj 191 97 metro 100;
#X msg 212 74 stop;
#X obj 135 148 tabread sticky;
#X msg 153 89 5;
#X msg 123 92 0;
#X obj 84 150 + 70;
#X obj 52 73 r \$0-reset;
#X obj 173 29 r \$0-start;
#X obj 220 51 r \$0-stop;
#X obj 116 58 loadbang;
#X obj 95 195 outlet;
#X connect 0 0 6 0;
#X connect 1 0 0 1;
#X connect 2 0 4 0;
#X connect 3 0 0 0;
#X connect 4 0 0 4;
#X connect 5 0 4 0;
#X connect 6 0 9 0;
#X connect 7 0 0 3;
#X connect 8 0 0 2;
#X connect 9 0 14 0;
#X connect 10 0 3 0;
#X connect 11 0 2 0;
#X connect 12 0 5 0;
#X connect 13 0 7 0;
#X connect 13 0 8 0;
#X connect 13 0 1 0;
#X connect 13 0 3 0;
#X restore -14 -63 pd synthrandom;
#X obj 4 137 chiptune_synth 2 2 2;
#X obj -2 -40 vsl 15 128 0 127 0 0 empty empty empty 0 -9 0 10 -262144
-1 -1 0 1;
#X obj 23 -40 vsl 15 128 0 127 0 0 empty empty empty 0 -9 0 10 -262144
-1 -1 0 1;
#X obj 91 -40 vsl 15 128 0 127 0 0 empty empty empty 0 -9 0 10 -262144
-1 -1 11500 1;
#X obj 120 -40 vsl 15 128 0 127 0 0 empty empty empty 0 -9 0 10 -262144
-1 -1 7900 1;
#X obj 48 20 vradio 15 1 0 4 empty empty empty 0 -8 0 10 -262144 -1
-1 0;
#X obj 70 20 vradio 15 1 0 4 empty empty empty 0 -8 0 10 -262144 -1
-1 3;
#X obj 147 20 vradio 15 1 0 4 empty empty empty 0 -8 0 10 -262144 -1
-1 2;
#X obj 82 117 sig~;
#X obj 112 117 / 127;
#X obj 83 96 / 5;
#X obj -8 118 sig~;
#X obj 171 116 / 10;
#X obj 203 135 / 80;
#X obj 181 155 chiptune_synth 2 2 2;
#X obj 175 -22 vsl 15 128 0 127 0 0 empty empty empty 0 -9 0 10 -262144
-1 -1 0 1;
#X obj 200 -22 vsl 15 128 0 127 0 0 empty empty empty 0 -9 0 10 -262144
-1 -1 0 1;
#X obj 268 -22 vsl 15 128 0 127 0 0 empty empty empty 0 -9 0 10 -262144
-1 -1 0 1;
#X obj 297 -22 vsl 15 128 0 127 0 0 empty empty empty 0 -9 0 10 -262144
-1 -1 0 1;
#X obj 225 38 vradio 15 1 0 4 empty empty empty 0 -8 0 10 -262144 -1
-1 2;
#X obj 247 38 vradio 15 1 0 4 empty empty empty 0 -8 0 10 -262144 -1
-1 3;
#X obj 324 38 vradio 15 1 0 4 empty empty empty 0 -8 0 10 -262144 -1
-1 1;
#X obj 259 135 sig~;
#X obj 289 135 / 127;
#X obj 260 114 / 5;
#X obj 169 136 sig~;
#X obj 448 -125 vradio 15 1 0 16 empty empty empty 0 -8 0 10 -262144
-1 -1 3;
#X obj 506 -128 vradio 15 1 0 16 empty empty empty 0 -8 0 10 -262144
-1 -1 4;
#X obj 477 -128 vradio 15 1 0 16 empty empty empty 0 -8 0 10 -262144
-1 -1 2;
#X obj 53 325 *~ 0.3;
#X msg 80 284 0.3;
#X connect 1 0 0 0;
#X connect 1 0 0 1;
#X connect 2 0 3 0;
#X connect 3 0 4 0;
#X connect 5 0 6 0;
#X connect 6 0 7 0;
#X connect 8 0 54 0;
#X connect 9 0 11 0;
#X connect 12 0 15 0;
#X connect 13 0 16 0;
#X connect 14 0 17 0;
#X connect 18 0 54 1;
#X connect 19 0 1 0;
#X connect 20 0 19 0;
#X connect 21 0 36 0;
#X connect 22 0 25 2;
#X connect 23 0 39 0;
#X connect 24 0 25 0;
#X connect 25 0 8 0;
#X connect 26 0 21 0;
#X connect 27 0 22 0;
#X connect 28 0 35 0;
#X connect 29 0 34 0;
#X connect 30 0 25 3;
#X connect 31 0 25 4;
#X connect 32 0 25 7;
#X connect 33 0 25 5;
#X connect 34 0 25 6;
#X connect 35 0 33 0;
#X connect 36 0 25 1;
#X connect 37 0 50 0;
#X connect 38 0 39 2;
#X connect 39 0 8 1;
#X connect 40 0 37 0;
#X connect 41 0 38 0;
#X connect 42 0 49 0;
#X connect 43 0 48 0;
#X connect 44 0 39 3;
#X connect 45 0 39 4;
#X connect 46 0 39 7;
#X connect 47 0 39 5;
#X connect 48 0 39 6;
#X connect 49 0 47 0;
#X connect 50 0 39 1;
#X connect 51 0 19 1;
#X connect 52 0 19 3;
#X connect 53 0 19 2;
#X connect 54 0 1 0;
#X connect 55 0 54 1;
