#N canvas 514 388 448 357 10;
#X obj 96 14 inlet~;
#X obj 25 300 outlet~;
#X obj 162 17 inlet;
#X obj 22 15 inlet~;
#X obj 221 16 inlet;
#X obj 26 246 *~;
#X obj 106 123 +~ 1;
#X obj 345 16 inlet;
#X obj 105 147 *~ -0.5;
#X obj 102 216 +~ 1;
#X obj 258 135 min -0.5;
#X obj 220 127 max 0;
#X obj 253 109 moses 0.5;
#X obj 106 92 waveformselector \$1;
#X obj 268 16 inlet;
#X connect 0 0 13 0;
#X connect 2 0 13 1;
#X connect 3 0 5 0;
#X connect 4 0 13 2;
#X connect 5 0 1 0;
#X connect 6 0 8 0;
#X connect 7 0 12 0;
#X connect 8 0 9 0;
#X connect 9 0 5 1;
#X connect 10 0 8 1;
#X connect 11 0 8 1;
#X connect 12 0 11 0;
#X connect 12 1 10 0;
#X connect 13 0 6 0;
#X connect 14 0 13 3;
