#N canvas 0 22 384 338 10;
#X obj 96 14 inlet~;
#X obj 115 270 outlet~;
#X obj 122 246 +~;
#X obj 162 17 inlet;
#X obj 22 15 inlet~;
#X obj 221 16 inlet;
#X obj 165 138 waveformselector \$1;
#X obj 161 193 *~ 1;
#X obj 297 16 inlet;
#X connect 0 0 6 0;
#X connect 2 0 1 0;
#X connect 3 0 6 1;
#X connect 4 0 2 0;
#X connect 5 0 6 2;
#X connect 6 0 7 0;
#X connect 7 0 2 1;
#X connect 8 0 7 1;
