#N canvas 115 158 1165 642 10;
#X msg 111 30 devicename /dev/tty.usbserial-191;
#X obj 113 241 select 13 10 33;
#X msg 171 54 close;
#X msg 111 53 open \$1;
#X msg 47 -12 devices;
#X obj 112 -11 hradio 15 1 0 12 empty empty empty 0 -6 0 10 -262144
-1 -1 4;
#X floatatom 127 4 5 0 0 0 - - -;
#X text 115 -31 0;
#X text 131 -31 1;
#X text 147 -31 2;
#X text 161 -31 3;
#X text 175 -31 4;
#X text 191 -31 5;
#X text 206 -31 6;
#X obj 511 225 unpack f f f f;
#X floatatom 509 265 5 0 0 0 - - -;
#X floatatom 566 269 5 0 0 0 - - -;
#X floatatom 535 248 5 0 0 0 - - -;
#X floatatom 591 250 5 0 0 0 - - -;
#X obj 201 304 list prepend;
#X obj 200 272 makefilename %c;
#X obj 294 305 t l;
#X obj 113 273 bng 15 50 10 0 empty empty empty 0 -6 0 10 -262144 -1
-1;
#X obj 113 338 list append;
#X obj 112 441 list trim;
#X symbolatom 114 395 55 0 0 0 - - -;
#X obj 113 368 list2symbol;
#X symbolatom 200 354 10 0 0 0 - - -;
#X obj 111 416 symbol2list;
#X msg 200 331 symbol;
#X obj 87 493 print recv;
#X text 112 -32 comment;
#X text 220 -31 7;
#X text 234 -31 8;
#X text 249 -31 9;
#X text 261 -31 10;
#X text 280 -31 11;
#X obj 110 467 s recv;
#X obj 510 103 r recv;
#X obj 126 174 ascseq;
#X obj 126 146 list2symbol;
#X obj 824 34 hsl 128 15 -20 20 0 0 empty empty empty -2 -6 0 10 -262144
-1 -1 0 1;
#X floatatom 826 95 5 0 0 0 - - -;
#X obj 827 69 int;
#X obj 125 118 list append;
#X msg 1087 125 L 1 !;
#X msg 1027 126 L 0 !;
#X obj 125 91 r send;
#X msg 826 125 L \$1 !;
#X obj 827 203 s send;
#X obj 511 191 route A;
#X obj 653 227 unpack f f f f;
#X floatatom 651 267 5 0 0 0 - - -;
#X floatatom 708 271 5 0 0 0 - - -;
#X floatatom 677 250 5 0 0 0 - - -;
#X floatatom 733 252 5 0 0 0 - - -;
#X msg 1000 75 B 12 34 56 -56 !;
#X obj 653 192 route B;
#X msg 1025 159 P 0 !;
#X msg 1085 158 P 1 !;
#X msg 978 29 A 12 34 56 -56 !;
#X msg 837 365 B;
#X floatatom 853 419 5 0 0 0 - - -;
#X floatatom 891 419 5 0 0 0 - - -;
#X floatatom 870 399 5 0 0 0 - - -;
#X floatatom 912 398 5 0 0 0 - - -;
#X obj 838 555 s send;
#X obj 839 518 list trim;
#X msg 955 363 symbol !;
#X obj 835 474 pack s f f f f s;
#X obj 837 286 bng 15 250 50 0 empty empty empty 0 -6 0 10 -262144
-1 -1;
#X obj 838 318 t b b b b b b;
#X text 21 -13 GET;
#X text 212 241 <-- end character end line select one!;
#X text 508 77 a receiving example;
#X text 651 168 yhea \, route is neat;
#X text 817 -9 some sending examples;
#X text 301 271 // change int to ascii;
#X text 325 305 // stores string;
#X text 1 338 // send string out;
#X text 272 352 // remove unwanted spaces;
#X text 453 394 // monitor what comes in;
#X text 190 419 // make list (message) out of it;
#X text 188 441 // remove beginning "list";
#X text 186 466 // send it to whoever needs it;
#X text 184 492 // for debuging;
#X text 323 -13 // select a device by number;
#X text 322 30 // or open a known device by name;
#X text 223 211 // datarate;
#X obj 113 211 comport 4 115200;
#X connect 0 0 89 0;
#X connect 1 0 22 0;
#X connect 1 3 20 0;
#X connect 2 0 89 0;
#X connect 3 0 89 0;
#X connect 4 0 89 0;
#X connect 5 0 3 0;
#X connect 5 0 6 0;
#X connect 14 0 15 0;
#X connect 14 1 17 0;
#X connect 14 2 16 0;
#X connect 14 3 18 0;
#X connect 19 0 21 0;
#X connect 19 0 23 1;
#X connect 20 0 19 0;
#X connect 21 0 19 1;
#X connect 22 0 19 1;
#X connect 22 0 23 0;
#X connect 23 0 26 0;
#X connect 24 0 37 0;
#X connect 24 0 30 0;
#X connect 25 0 28 0;
#X connect 26 0 25 0;
#X connect 27 0 26 1;
#X connect 28 0 24 0;
#X connect 29 0 27 0;
#X connect 38 0 50 0;
#X connect 38 0 57 0;
#X connect 39 0 89 0;
#X connect 40 0 39 0;
#X connect 41 0 43 0;
#X connect 42 0 48 0;
#X connect 43 0 42 0;
#X connect 44 0 40 0;
#X connect 45 0 49 0;
#X connect 46 0 49 0;
#X connect 47 0 44 0;
#X connect 48 0 49 0;
#X connect 50 0 14 0;
#X connect 51 0 52 0;
#X connect 51 1 54 0;
#X connect 51 2 53 0;
#X connect 51 3 55 0;
#X connect 56 0 49 0;
#X connect 57 0 51 0;
#X connect 58 0 49 0;
#X connect 59 0 49 0;
#X connect 60 0 49 0;
#X connect 61 0 69 0;
#X connect 62 0 69 1;
#X connect 63 0 69 3;
#X connect 64 0 69 2;
#X connect 65 0 69 4;
#X connect 67 0 66 0;
#X connect 68 0 69 5;
#X connect 69 0 67 0;
#X connect 70 0 71 0;
#X connect 71 0 61 0;
#X connect 71 1 62 0;
#X connect 71 2 64 0;
#X connect 71 3 63 0;
#X connect 71 4 65 0;
#X connect 71 5 68 0;
#X connect 89 0 1 0;
