#N canvas 0 22 450 300 10;
#X obj 115 80 inlet;
#X obj 126 175 outlet;
#X obj 204 121 float;
#X obj 122 121 / \$1;
#X obj 161 122 +;
#X obj 259 39 loadbang;
#X obj 266 63 \$1;
#X obj 272 115 *;
#X obj 296 138 / \$1;
#X obj 272 88 - 1;
#X connect 0 0 3 0;
#X connect 2 0 7 0;
#X connect 3 0 4 0;
#X connect 4 0 1 0;
#X connect 4 0 2 0;
#X connect 5 0 6 0;
#X connect 6 0 9 0;
#X connect 7 0 8 0;
#X connect 8 0 4 1;
#X connect 9 0 7 1;
