#N canvas 628 78 450 300 10;
#X obj 100 17 ArduinoPuredataMessageSystem;
#X obj 99 261 s send;
#X msg 247 225 C 0 0 0 0 !;
#X msg 215 180 C 0 1000 500 200 !;
#X obj 29 49 r setcolor;
#X msg 46 220 C \$1 \$2 \$3 \$4 !;
#X obj 30 69 unpack f f f f;
#X obj 33 165 pack f f f f;
#X obj 16 112 clip 0 1023;
#X obj 44 89 int;
#X obj 69 89 int;
#X obj 96 90 int;
#X obj 115 110 clip 0 1023;
#X obj 114 135 clip 0 1023;
#X connect 2 0 1 0;
#X connect 3 0 1 0;
#X connect 4 0 6 0;
#X connect 5 0 1 0;
#X connect 6 0 7 0;
#X connect 6 1 9 0;
#X connect 6 2 10 0;
#X connect 6 3 11 0;
#X connect 7 0 5 0;
#X connect 8 0 7 1;
#X connect 9 0 8 0;
#X connect 10 0 12 0;
#X connect 11 0 13 0;
#X connect 12 0 7 2;
#X connect 13 0 7 3;
