#N canvas 474 33 806 677 10;
#X obj 100 17 ArduinoPuredataMessageSystem;
#X obj 118 568 s send;
#X obj 29 49 r pixels;
#X obj 14 70 unpack f f f f f f f f f f f f f f f f f f f f f f f f
;
#X obj 272 230 clipz;
#X obj 284 197 clipz;
#X obj 291 177 clipz;
#X obj 262 250 clipz;
#X obj 313 132 clipz;
#X obj 323 110 clipz;
#X obj 333 92 clipz;
#X obj 299 158 clipz;
#X obj 239 313 clipz;
#X obj 247 296 clipz;
#X obj 257 268 clipz;
#X obj 231 330 clipz;
#X obj 217 393 clipz;
#X obj 226 374 clipz;
#X obj 230 354 clipz;
#X obj 118 242 clipz;
#X obj 127 223 clipz;
#X obj 131 203 clipz;
#X obj 135 180 clipz;
#X obj 144 161 clipz;
#X obj 148 141 clipz;
#X obj 91 305 clipz;
#X obj 103 284 clipz;
#X obj 113 261 clipz;
#X msg 15 397 bang;
#X msg 64 506 0 \$1 \$2 \$3n1 \$4 \$5 \$6n2 \$7 \$8 \$9n3 \$10 \$11
\$12n4 \$13 \$14 \$15n5 \$16 \$17 \$18n6 \$19 \$20 \$21n7 \$22 \$23
\$24nW;
#X obj 58 469 pack 100 f f f f f 100 f f f f f f f f f f f f f f f
f f;
#X connect 2 0 3 0;
#X connect 3 0 25 0;
#X connect 3 1 26 0;
#X connect 3 2 27 0;
#X connect 3 3 19 0;
#X connect 3 4 20 0;
#X connect 3 5 21 0;
#X connect 3 6 22 0;
#X connect 3 7 23 0;
#X connect 3 8 24 0;
#X connect 3 9 16 0;
#X connect 3 10 17 0;
#X connect 3 11 18 0;
#X connect 3 12 15 0;
#X connect 3 13 12 0;
#X connect 3 14 13 0;
#X connect 3 15 14 0;
#X connect 3 16 7 0;
#X connect 3 17 4 0;
#X connect 3 18 5 0;
#X connect 3 19 6 0;
#X connect 3 20 11 0;
#X connect 3 21 8 0;
#X connect 3 22 9 0;
#X connect 3 23 10 0;
#X connect 4 0 30 17;
#X connect 5 0 30 18;
#X connect 6 0 30 19;
#X connect 7 0 30 16;
#X connect 8 0 30 21;
#X connect 9 0 30 22;
#X connect 10 0 30 23;
#X connect 11 0 30 20;
#X connect 12 0 30 13;
#X connect 13 0 30 14;
#X connect 14 0 30 15;
#X connect 15 0 30 12;
#X connect 16 0 30 9;
#X connect 17 0 30 10;
#X connect 18 0 30 11;
#X connect 19 0 30 3;
#X connect 20 0 30 4;
#X connect 21 0 30 5;
#X connect 22 0 30 6;
#X connect 23 0 30 7;
#X connect 24 0 30 8;
#X connect 25 0 30 0;
#X connect 26 0 30 1;
#X connect 27 0 30 2;
#X connect 28 0 30 0;
#X connect 29 0 1 0;
#X connect 30 0 29 0;
