#N canvas 242 22 949 756 10;
#X obj 319 90 adc~;
#X obj 59 205 bng 15 250 50 0 empty empty empty 17 7 0 10 -262144 -1
-1;
#X obj 86 206 bng 15 250 50 0 empty empty empty 17 7 0 10 -262144 -1
-1;
#X obj 118 209 nbx 5 14 -1e+37 1e+37 0 0 empty empty empty 0 -8 0 10
-262144 -1 -1 56.1966 256;
#X obj 40 240 hsl 128 15 0 127 0 0 empty empty empty -2 -8 0 10 -262144
-1 -1 5620 1;
#X obj 178 225 nbx 5 14 -1e+37 1e+37 0 0 empty empty empty 0 -8 0 10
-262144 -1 -1 56.6158 256;
#X obj 345 132 *~ 1;
#X obj 548 239 bng 15 250 50 0 empty empty empty 17 7 0 10 -262144
-1 -1;
#X obj 575 240 bng 15 250 50 0 empty empty empty 17 7 0 10 -262144
-1 -1;
#X obj 607 243 nbx 5 14 -1e+37 1e+37 0 0 empty empty empty 0 -8 0 10
-262144 -1 -1 68.7399 256;
#X obj 525 266 hsl 128 15 0 127 0 0 empty empty empty -2 -8 0 10 -262144
-1 -1 6874 1;
#X obj 667 259 nbx 5 14 -1e+37 1e+37 0 0 empty empty empty 0 -8 0 10
-262144 -1 -1 48.5427 256;
#X msg 54 34 amp-range 60 100;
#X msg 544 64 amp-range 60 100;
#X msg 597 112 vibrato 500;
#X obj 543 211 fiddle~ 2048 1 20 1;
#X obj 59 183 fiddle~ 1024 1 1 1;
#X msg 570 89 npartials 0;
#X obj 117 156 bp~ 1000 1;
#X obj 574 158 lop~ 300;
#X obj 572 179 lop~ 300;
#X obj 660 317 mod 12;
#X obj 663 352 * 0.666;
#X obj 663 418 route 0 1 2 3 4 5 6 7;
#X obj 725 440 1;
#X obj 753 440 1;
#X obj 781 440 1;
#X obj 810 440 1;
#X obj 836 440 1;
#X obj 862 440 1;
#X obj 669 440 1;
#X obj 697 440 1;
#X obj 641 440 1;
#X obj 667 394 trigger b f b;
#X obj 898 407 * 0;
#X obj 669 335 / 10;
#X obj 705 332 +;
#X obj 743 311 / 10;
#X obj 743 335 * 9;
#X obj 665 374 int;
#X obj 661 287 moses 3;
#X obj 669 469 * 1;
#X obj 641 469 * 1;
#X obj 697 469 * 1;
#X obj 725 469 * 1;
#X obj 753 469 * 1;
#X obj 781 469 * 1;
#X obj 810 469 * 1;
#X obj 836 469 * 1;
#X obj 862 469 * 1;
#X obj 898 441 r bmag;
#X obj 198 679 pack f f f f f f f f f f f f f f f f f f f f f f f f
;
#X obj 57 725 send pixels;
#X obj 184 724 print;
#X obj 65 314 mod 12;
#X obj 68 349 * 0.666;
#X obj 68 415 route 0 1 2 3 4 5 6 7;
#X obj 130 437 1;
#X obj 158 437 1;
#X obj 186 437 1;
#X obj 215 437 1;
#X obj 241 437 1;
#X obj 267 437 1;
#X obj 74 437 1;
#X obj 102 437 1;
#X obj 46 437 1;
#X obj 72 391 trigger b f b;
#X obj 304 404 * 0;
#X obj 74 332 / 10;
#X obj 110 329 +;
#X obj 148 308 / 10;
#X obj 148 332 * 9;
#X obj 70 371 int;
#X obj 66 284 moses 3;
#X obj 303 437 r rmag;
#X obj 46 466 de;
#X obj 69 642 metro 100;
#X obj 50 572 loadbang;
#X obj 78 682 bng 15 250 50 0 empty empty empty 17 7 0 10 -262144 -1
-1;
#X msg 63 604 1;
#X msg 98 605 0;
#X obj 402 458 + 0;
#X obj 336 178 env~;
#X obj 548 350 - 60;
#X obj 548 389 / 30;
#X obj 540 414 * 1023;
#X obj 536 443 s bmag;
#X obj 208 298 - 60;
#X obj 213 325 / 30;
#X obj 212 358 * 1023;
#X obj 217 384 s rmag;
#X obj 368 361 * 1023;
#X obj 331 265 - 70;
#X obj 340 292 / 20;
#X obj 266 466 de;
#X obj 241 466 de;
#X obj 215 466 de;
#X obj 185 466 de;
#X obj 158 466 de;
#X obj 130 466 de;
#X obj 102 465 de;
#X obj 74 466 de;
#X obj 345 222 dec 3;
#X obj 198 269 dec 10;
#X obj 542 309 dec 2;
#X obj 378 28 octobarAPI;
#X obj 374 84 hsl 128 15 0 127 0 0 empty empty empty -2 -8 0 10 -262144
-1 -1 1900 1;
#X obj 392 107 / 64;
#X obj 394 137 nbx 5 14 -1e+37 1e+37 0 0 empty empty empty 0 -8 0 10
-262144 -1 -1 0.296875 256;
#X obj 395 224 nbx 5 14 -1e+37 1e+37 0 0 empty empty empty 0 -8 0 10
-262144 -1 -1 51.2091 256;
#X connect 0 0 6 0;
#X connect 3 0 4 0;
#X connect 4 0 73 0;
#X connect 5 0 103 0;
#X connect 6 0 18 0;
#X connect 6 0 19 0;
#X connect 6 0 82 0;
#X connect 9 0 10 0;
#X connect 10 0 40 0;
#X connect 11 0 104 0;
#X connect 12 0 16 0;
#X connect 13 0 15 0;
#X connect 15 0 7 0;
#X connect 15 1 8 0;
#X connect 15 2 9 0;
#X connect 15 3 11 0;
#X connect 16 0 1 0;
#X connect 16 1 2 0;
#X connect 16 2 3 0;
#X connect 16 3 5 0;
#X connect 17 0 15 0;
#X connect 18 0 16 0;
#X connect 19 0 20 0;
#X connect 20 0 15 0;
#X connect 21 0 35 0;
#X connect 21 0 22 0;
#X connect 22 0 39 0;
#X connect 23 0 32 0;
#X connect 23 1 30 0;
#X connect 23 2 31 0;
#X connect 23 3 24 0;
#X connect 23 4 25 0;
#X connect 23 5 26 0;
#X connect 23 6 27 0;
#X connect 23 7 28 0;
#X connect 23 8 29 0;
#X connect 24 0 44 0;
#X connect 25 0 45 0;
#X connect 26 0 46 0;
#X connect 27 0 47 0;
#X connect 28 0 48 0;
#X connect 29 0 49 0;
#X connect 30 0 41 0;
#X connect 31 0 43 0;
#X connect 32 0 42 0;
#X connect 33 1 23 0;
#X connect 33 2 34 0;
#X connect 34 0 49 0;
#X connect 34 0 48 0;
#X connect 34 0 47 0;
#X connect 34 0 46 0;
#X connect 34 0 45 0;
#X connect 34 0 44 0;
#X connect 34 0 43 0;
#X connect 34 0 41 0;
#X connect 34 0 42 0;
#X connect 35 0 36 0;
#X connect 36 0 37 0;
#X connect 37 0 38 0;
#X connect 38 0 36 1;
#X connect 39 0 33 0;
#X connect 40 1 21 0;
#X connect 41 0 51 5;
#X connect 42 0 51 2;
#X connect 43 0 51 8;
#X connect 44 0 51 11;
#X connect 45 0 51 14;
#X connect 46 0 51 17;
#X connect 47 0 51 20;
#X connect 48 0 51 23;
#X connect 50 0 49 1;
#X connect 50 0 48 1;
#X connect 50 0 47 1;
#X connect 50 0 46 1;
#X connect 50 0 45 1;
#X connect 50 0 44 1;
#X connect 50 0 43 1;
#X connect 50 0 41 1;
#X connect 50 0 42 1;
#X connect 51 0 52 0;
#X connect 54 0 68 0;
#X connect 54 0 55 0;
#X connect 55 0 72 0;
#X connect 56 0 65 0;
#X connect 56 1 63 0;
#X connect 56 2 64 0;
#X connect 56 3 57 0;
#X connect 56 4 58 0;
#X connect 56 5 59 0;
#X connect 56 6 60 0;
#X connect 56 7 61 0;
#X connect 56 8 62 0;
#X connect 57 0 99 0;
#X connect 58 0 98 0;
#X connect 59 0 97 0;
#X connect 60 0 96 0;
#X connect 61 0 95 0;
#X connect 62 0 94 0;
#X connect 63 0 101 0;
#X connect 64 0 100 0;
#X connect 65 0 75 0;
#X connect 66 1 56 0;
#X connect 66 2 67 0;
#X connect 67 0 75 0;
#X connect 67 0 94 0;
#X connect 67 0 95 0;
#X connect 67 0 96 0;
#X connect 67 0 97 0;
#X connect 67 0 98 0;
#X connect 67 0 99 0;
#X connect 67 0 100 0;
#X connect 67 0 101 0;
#X connect 68 0 69 0;
#X connect 69 0 70 0;
#X connect 70 0 71 0;
#X connect 71 0 69 1;
#X connect 72 0 66 0;
#X connect 73 1 54 0;
#X connect 74 0 75 1;
#X connect 74 0 94 1;
#X connect 74 0 95 1;
#X connect 74 0 96 1;
#X connect 74 0 97 1;
#X connect 74 0 98 1;
#X connect 74 0 99 1;
#X connect 74 0 100 1;
#X connect 74 0 101 1;
#X connect 75 0 51 0;
#X connect 76 0 51 0;
#X connect 76 0 78 0;
#X connect 77 0 79 0;
#X connect 79 0 76 0;
#X connect 80 0 76 0;
#X connect 81 0 51 22;
#X connect 81 0 51 19;
#X connect 81 0 51 16;
#X connect 81 0 51 13;
#X connect 81 0 51 10;
#X connect 81 0 51 7;
#X connect 81 0 51 4;
#X connect 81 0 51 1;
#X connect 82 0 102 0;
#X connect 82 0 109 0;
#X connect 83 0 84 0;
#X connect 84 0 85 0;
#X connect 85 0 86 0;
#X connect 87 0 88 0;
#X connect 88 0 89 0;
#X connect 89 0 90 0;
#X connect 91 0 81 0;
#X connect 92 0 93 0;
#X connect 93 0 91 0;
#X connect 95 0 51 21;
#X connect 96 0 51 18;
#X connect 97 0 51 15;
#X connect 98 0 51 12;
#X connect 99 0 51 9;
#X connect 100 0 51 6;
#X connect 101 0 51 3;
#X connect 102 0 92 0;
#X connect 103 0 87 0;
#X connect 104 0 83 0;
#X connect 106 0 107 0;
#X connect 107 0 6 1;
#X connect 107 0 108 0;
